<ttFont>
    <TTGlyph name="A" xMin="-82" yMin="0" xMax="608" yMax="700">
      <contour>
        <pt x="-82" y="0" on="1"/>
        <pt x="-71" y="41" on="1"/>
        <pt x="20" y="63" on="1"/>
        <pt x="400" y="700" on="1"/>
        <pt x="483" y="700" on="1"/>
        <pt x="529" y="62" on="1"/>
        <pt x="608" y="41" on="1"/>
        <pt x="598" y="0" on="1"/>
        <pt x="316" y="0" on="1"/>
        <pt x="327" y="41" on="1"/>
        <pt x="403" y="59" on="1"/>
        <pt x="393" y="196" on="1"/>
        <pt x="196" y="196" on="1"/>
        <pt x="116" y="62" on="1"/>
        <pt x="195" y="41" on="1"/>
        <pt x="184" y="0" on="1"/>
      </contour>
      <contour>
        <pt x="234" y="260" on="1"/>
        <pt x="388" y="260" on="1"/>
        <pt x="371" y="488" on="1"/>
      </contour>
    </TTGlyph>
    <TTGlyph name="AE" xMin="-88" yMin="0" xMax="1065" yMax="700">
      <contour>
        <pt x="-88" y="0" on="1"/>
        <pt x="-75" y="51" on="1"/>
        <pt x="51" y="80" on="1"/>
        <pt x="675" y="700" on="1"/>
        <pt x="1065" y="700" on="1"/>
        <pt x="1014" y="495" on="1"/>
        <pt x="966" y="495" on="1"/>
        <pt x="960" y="638" on="1"/>
        <pt x="780" y="638" on="1"/>
        <pt x="717" y="387" on="1"/>
        <pt x="903" y="406" on="1"/>
        <pt x="880" y="312" on="1"/>
        <pt x="703" y="329" on="1"/>
        <pt x="639" y="72" on="1"/>
        <pt x="821" y="72" on="1"/>
        <pt x="924" y="216" on="1"/>
        <pt x="972" y="216" on="1"/>
        <pt x="891" y="0" on="1"/>
        <pt x="404" y="0" on="1"/>
        <pt x="417" y="51" on="1"/>
        <pt x="508" y="73" on="1"/>
        <pt x="538" y="196" on="1"/>
        <pt x="262" y="196" on="1"/>
        <pt x="131" y="66" on="1"/>
        <pt x="191" y="51" on="1"/>
        <pt x="178" y="0" on="1"/>
      </contour>
      <contour>
        <pt x="555" y="260" on="1"/>
        <pt x="629" y="556" on="1"/>
        <pt x="327" y="260" on="1"/>
      </contour>
    </TTGlyph>
    <TTGlyph name="Aacute" xMin="-82" yMin="0" xMax="608" yMax="916">
      <component glyphName="A" x="0" y="0" flags="0x204"/>
      <component glyphName="acute.case" x="354" y="0" flags="0x4"/>
    </TTGlyph>
    <TTGlyph name="Acircumflex" xMin="-82" yMin="0" xMax="608" yMax="918">
      <component glyphName="A" x="0" y="0" flags="0x204"/>
      <component glyphName="circumflex.case" x="231" y="0" flags="0x4"/>
    </TTGlyph>
    <TTGlyph name="Adieresis" xMin="-82" yMin="0" xMax="638" yMax="926">
      <component glyphName="A" x="0" y="0" flags="0x204"/>
      <component glyphName="dieresis.case" x="225" y="0" flags="0x4"/>
    </TTGlyph>
    <TTGlyph name="Agrave" xMin="-82" yMin="0" xMax="608" yMax="924">
      <component glyphName="A" x="0" y="0" flags="0x204"/>
      <component glyphName="grave.case" x="309" y="0" flags="0x4"/>
    </TTGlyph>
    <TTGlyph name="Aring" xMin="-82" yMin="0" xMax="608" yMax="873">
      <contour>
        <pt x="334" y="753" on="1"/>
        <pt x="334" y="803" on="0"/>
        <pt x="406" y="873" on="0"/>
        <pt x="454" y="873" on="1"/>
        <pt x="503" y="873" on="0"/>
        <pt x="574" y="802" on="0"/>
        <pt x="574" y="753" on="1"/>
        <pt x="574" y="703" on="0"/>
        <pt x="538" y="668" on="1"/>
        <pt x="516" y="645" on="0"/>
        <pt x="487" y="637" on="1"/>
        <pt x="529" y="62" on="1"/>
        <pt x="608" y="41" on="1"/>
        <pt x="598" y="0" on="1"/>
        <pt x="316" y="0" on="1"/>
        <pt x="327" y="41" on="1"/>
        <pt x="403" y="59" on="1"/>
        <pt x="393" y="196" on="1"/>
        <pt x="196" y="196" on="1"/>
        <pt x="116" y="62" on="1"/>
        <pt x="195" y="41" on="1"/>
        <pt x="184" y="0" on="1"/>
        <pt x="-82" y="0" on="1"/>
        <pt x="-71" y="41" on="1"/>
        <pt x="20" y="63" on="1"/>
        <pt x="377" y="661" on="1"/>
        <pt x="373" y="664" on="0"/>
        <pt x="370" y="668" on="1"/>
        <pt x="334" y="703" on="0"/>
      </contour>
      <contour>
        <pt x="234" y="260" on="1"/>
        <pt x="388" y="260" on="1"/>
        <pt x="371" y="488" on="1"/>
      </contour>
      <contour>
        <pt x="402" y="753" on="1"/>
        <pt x="402" y="731" on="0"/>
        <pt x="432" y="702" on="0"/>
        <pt x="454" y="702" on="1"/>
        <pt x="476" y="702" on="0"/>
        <pt x="505" y="731" on="0"/>
        <pt x="505" y="753" on="1"/>
        <pt x="505" y="775" on="0"/>
        <pt x="476" y="803" on="0"/>
        <pt x="454" y="803" on="1"/>
        <pt x="431" y="803" on="0"/>
        <pt x="402" y="775" on="0"/>
      </contour>
    </TTGlyph>
    <TTGlyph name="Atilde" xMin="-82" yMin="0" xMax="678" yMax="916">
      <component glyphName="A" x="0" y="0" flags="0x204"/>
      <component glyphName="tilde.case" x="243" y="-9" flags="0x4"/>
    </TTGlyph>
    <TTGlyph name="B" xMin="-37" yMin="0" xMax="593" yMax="700">
      <contour>
        <pt x="-37" y="0" on="1"/>
        <pt x="-23" y="51" on="1"/>
        <pt x="70" y="73" on="1"/>
        <pt x="208" y="627" on="1"/>
        <pt x="128" y="649" on="1"/>
        <pt x="140" y="700" on="1"/>
        <pt x="401" y="700" on="1"/>
        <pt x="593" y="700" on="0"/>
        <pt x="593" y="553" on="1"/>
        <pt x="593" y="484" on="0"/>
        <pt x="500" y="385" on="0"/>
        <pt x="428" y="367" on="1"/>
        <pt x="427" y="364" on="1"/>
        <pt x="488" y="354" on="0"/>
        <pt x="559" y="275" on="0"/>
        <pt x="559" y="216" on="1"/>
        <pt x="559" y="114" on="0"/>
        <pt x="396" y="0" on="0"/>
        <pt x="278" y="0" on="1"/>
      </contour>
      <contour>
        <pt x="201" y="76" on="1"/>
        <pt x="262" y="76" on="1"/>
        <pt x="330" y="77" on="0"/>
        <pt x="424" y="159" on="0"/>
        <pt x="424" y="222" on="1"/>
        <pt x="424" y="272" on="0"/>
        <pt x="365" y="329" on="0"/>
        <pt x="311" y="329" on="1"/>
        <pt x="265" y="329" on="1"/>
      </contour>
      <contour>
        <pt x="281" y="397" on="1"/>
        <pt x="314" y="397" on="1"/>
        <pt x="375" y="398" on="0"/>
        <pt x="458" y="484" on="0"/>
        <pt x="458" y="546" on="1"/>
        <pt x="458" y="625" on="0"/>
        <pt x="371" y="625" on="1"/>
        <pt x="338" y="625" on="1"/>
      </contour>
    </TTGlyph>
    <TTGlyph name="C" xMin="46" yMin="-7" xMax="660" yMax="708">
      <contour>
        <pt x="46" y="239" on="1"/>
        <pt x="46" y="326" on="0"/>
        <pt x="105" y="493" on="0"/>
        <pt x="211" y="626" on="0"/>
        <pt x="372" y="708" on="0"/>
        <pt x="465" y="708" on="1"/>
        <pt x="519" y="708" on="0"/>
        <pt x="618" y="688" on="0"/>
        <pt x="660" y="668" on="1"/>
        <pt x="614" y="483" on="1"/>
        <pt x="555" y="483" on="1"/>
        <pt x="549" y="632" on="1"/>
        <pt x="521" y="640" on="0"/>
        <pt x="489" y="640" on="1"/>
        <pt x="358" y="640" on="0"/>
        <pt x="179" y="408" on="0"/>
        <pt x="179" y="245" on="1"/>
        <pt x="179" y="157" on="0"/>
        <pt x="251" y="65" on="0"/>
        <pt x="310" y="65" on="1"/>
        <pt x="352" y="65" on="0"/>
        <pt x="383" y="74" on="1"/>
        <pt x="498" y="226" on="1"/>
        <pt x="556" y="226" on="1"/>
        <pt x="485" y="42" on="1"/>
        <pt x="400" y="-7" on="0"/>
        <pt x="284" y="-7" on="1"/>
        <pt x="163" y="-7" on="0"/>
        <pt x="46" y="130" on="0"/>
      </contour>
    </TTGlyph>
    <TTGlyph name="Ccedilla" xMin="46" yMin="-239" xMax="660" yMax="708">
      <contour>
        <pt x="196" y="-229" on="1"/>
        <pt x="211" y="-181" on="1"/>
        <pt x="226" y="-184" on="0"/>
        <pt x="248" y="-184" on="1"/>
        <pt x="280" y="-184" on="0"/>
        <pt x="331" y="-156" on="0"/>
        <pt x="331" y="-125" on="1"/>
        <pt x="331" y="-76" on="0"/>
        <pt x="272" y="-76" on="1"/>
        <pt x="308" y="-6" on="1"/>
        <pt x="296" y="-7" on="0"/>
        <pt x="284" y="-7" on="1"/>
        <pt x="163" y="-7" on="0"/>
        <pt x="46" y="130" on="0"/>
        <pt x="46" y="239" on="1"/>
        <pt x="46" y="326" on="0"/>
        <pt x="105" y="493" on="0"/>
        <pt x="211" y="626" on="0"/>
        <pt x="372" y="708" on="0"/>
        <pt x="465" y="708" on="1"/>
        <pt x="519" y="708" on="0"/>
        <pt x="618" y="688" on="0"/>
        <pt x="660" y="668" on="1"/>
        <pt x="614" y="483" on="1"/>
        <pt x="555" y="483" on="1"/>
        <pt x="549" y="632" on="1"/>
        <pt x="521" y="640" on="0"/>
        <pt x="489" y="640" on="1"/>
        <pt x="358" y="640" on="0"/>
        <pt x="179" y="408" on="0"/>
        <pt x="179" y="245" on="1"/>
        <pt x="179" y="157" on="0"/>
        <pt x="251" y="65" on="0"/>
        <pt x="310" y="65" on="1"/>
        <pt x="352" y="65" on="0"/>
        <pt x="383" y="74" on="1"/>
        <pt x="498" y="226" on="1"/>
        <pt x="556" y="226" on="1"/>
        <pt x="485" y="42" on="1"/>
        <pt x="436" y="13" on="0"/>
        <pt x="376" y="1" on="1"/>
        <pt x="356" y="-41" on="1"/>
        <pt x="391" y="-43" on="0"/>
        <pt x="434" y="-78" on="0"/>
        <pt x="434" y="-110" on="1"/>
        <pt x="434" y="-172" on="0"/>
        <pt x="331" y="-239" on="0"/>
        <pt x="265" y="-239" on="1"/>
        <pt x="229" y="-239" on="0"/>
      </contour>
    </TTGlyph>
    <TTGlyph name="D" xMin="-34" yMin="0" xMax="682" yMax="700">
      <contour>
        <pt x="-34" y="0" on="1"/>
        <pt x="-23" y="51" on="1"/>
        <pt x="68" y="73" on="1"/>
        <pt x="208" y="627" on="1"/>
        <pt x="127" y="649" on="1"/>
        <pt x="140" y="700" on="1"/>
        <pt x="386" y="700" on="1"/>
        <pt x="535" y="700" on="0"/>
        <pt x="682" y="571" on="0"/>
        <pt x="682" y="453" on="1"/>
        <pt x="682" y="346" on="0"/>
        <pt x="608" y="172" on="0"/>
        <pt x="479" y="60" on="0"/>
        <pt x="310" y="0" on="0"/>
        <pt x="212" y="0" on="1"/>
      </contour>
      <contour>
        <pt x="199" y="72" on="1"/>
        <pt x="225" y="72" on="1"/>
        <pt x="356" y="72" on="0"/>
        <pt x="549" y="289" on="0"/>
        <pt x="549" y="457" on="1"/>
        <pt x="549" y="541" on="0"/>
        <pt x="453" y="628" on="0"/>
        <pt x="369" y="628" on="1"/>
        <pt x="338" y="628" on="1"/>
      </contour>
    </TTGlyph>
    <TTGlyph name="E" xMin="-35" yMin="0" xMax="625" yMax="700">
      <contour>
        <pt x="-35" y="0" on="1"/>
        <pt x="-24" y="49" on="1"/>
        <pt x="70" y="73" on="1"/>
        <pt x="208" y="627" on="1"/>
        <pt x="128" y="650" on="1"/>
        <pt x="140" y="700" on="1"/>
        <pt x="625" y="700" on="1"/>
        <pt x="574" y="495" on="1"/>
        <pt x="517" y="495" on="1"/>
        <pt x="510" y="628" on="1"/>
        <pt x="338" y="628" on="1"/>
        <pt x="280" y="391" on="1"/>
        <pt x="463" y="411" on="1"/>
        <pt x="439" y="307" on="1"/>
        <pt x="263" y="325" on="1"/>
        <pt x="200" y="72" on="1"/>
        <pt x="365" y="72" on="1"/>
        <pt x="474" y="216" on="1"/>
        <pt x="532" y="216" on="1"/>
        <pt x="451" y="0" on="1"/>
      </contour>
    </TTGlyph>
    <TTGlyph name="Eacute" xMin="-35" yMin="0" xMax="625" yMax="916">
      <component glyphName="E" x="0" y="0" flags="0x204"/>
      <component glyphName="acute.case" x="357" y="0" flags="0x4"/>
    </TTGlyph>
    <TTGlyph name="Ecircumflex" xMin="-35" yMin="0" xMax="625" yMax="899">
      <component glyphName="E" x="0" y="0" flags="0x204"/>
      <component glyphName="circumflex.case" x="234" y="-19" flags="0x4"/>
    </TTGlyph>
    <TTGlyph name="Edieresis" xMin="-35" yMin="0" xMax="651" yMax="926">
      <component glyphName="E" x="0" y="0" flags="0x204"/>
      <component glyphName="dieresis.case" x="238" y="0" flags="0x4"/>
    </TTGlyph>
    <TTGlyph name="Egrave" xMin="-35" yMin="0" xMax="625" yMax="924">
      <component glyphName="E" x="0" y="0" flags="0x204"/>
      <component glyphName="grave.case" x="302" y="0" flags="0x4"/>
    </TTGlyph>
    <TTGlyph name="Eth" xMin="-34" yMin="0" xMax="682" yMax="700">
      <contour>
        <pt x="49" y="316" on="1"/>
        <pt x="49" y="387" on="1"/>
        <pt x="147" y="387" on="1"/>
        <pt x="208" y="627" on="1"/>
        <pt x="127" y="649" on="1"/>
        <pt x="140" y="700" on="1"/>
        <pt x="386" y="700" on="1"/>
        <pt x="535" y="700" on="0"/>
        <pt x="682" y="571" on="0"/>
        <pt x="682" y="453" on="1"/>
        <pt x="682" y="346" on="0"/>
        <pt x="608" y="172" on="0"/>
        <pt x="479" y="60" on="0"/>
        <pt x="310" y="0" on="0"/>
        <pt x="212" y="0" on="1"/>
        <pt x="-34" y="0" on="1"/>
        <pt x="-23" y="51" on="1"/>
        <pt x="68" y="73" on="1"/>
        <pt x="129" y="316" on="1"/>
      </contour>
      <contour>
        <pt x="199" y="72" on="1"/>
        <pt x="225" y="72" on="1"/>
        <pt x="356" y="72" on="0"/>
        <pt x="549" y="289" on="0"/>
        <pt x="549" y="457" on="1"/>
        <pt x="549" y="541" on="0"/>
        <pt x="453" y="628" on="0"/>
        <pt x="369" y="628" on="1"/>
        <pt x="338" y="628" on="1"/>
        <pt x="277" y="387" on="1"/>
        <pt x="417" y="387" on="1"/>
        <pt x="417" y="316" on="1"/>
        <pt x="260" y="316" on="1"/>
      </contour>
    </TTGlyph>
    <TTGlyph name="Euro" xMin="34" yMin="-7" xMax="709" yMax="708">
      <contour>
        <pt x="69" y="380" on="1"/>
        <pt x="83" y="432" on="1"/>
        <pt x="134" y="435" on="1"/>
        <pt x="162" y="503" on="0"/>
        <pt x="262" y="627" on="0"/>
        <pt x="421" y="708" on="0"/>
        <pt x="514" y="708" on="1"/>
        <pt x="568" y="708" on="0"/>
        <pt x="665" y="688" on="0"/>
        <pt x="687" y="678" on="1"/>
        <pt x="709" y="668" on="1"/>
        <pt x="663" y="483" on="1"/>
        <pt x="604" y="483" on="1"/>
        <pt x="598" y="632" on="1"/>
        <pt x="570" y="640" on="0"/>
        <pt x="538" y="640" on="1"/>
        <pt x="437" y="640" on="0"/>
        <pt x="295" y="509" on="0"/>
        <pt x="268" y="443" on="1"/>
        <pt x="518" y="458" on="1"/>
        <pt x="488" y="380" on="1"/>
        <pt x="246" y="380" on="1"/>
        <pt x="235" y="342" on="0"/>
        <pt x="230" y="301" on="1"/>
        <pt x="466" y="315" on="1"/>
        <pt x="436" y="238" on="1"/>
        <pt x="228" y="238" on="1"/>
        <pt x="229" y="155" on="0"/>
        <pt x="264" y="111" on="1"/>
        <pt x="300" y="65" on="0"/>
        <pt x="359" y="65" on="1"/>
        <pt x="400" y="65" on="0"/>
        <pt x="432" y="74" on="1"/>
        <pt x="547" y="226" on="1"/>
        <pt x="605" y="226" on="1"/>
        <pt x="534" y="42" on="1"/>
        <pt x="449" y="-7" on="0"/>
        <pt x="333" y="-7" on="1"/>
        <pt x="212" y="-7" on="0"/>
        <pt x="153" y="61" on="1"/>
        <pt x="95" y="129" on="0"/>
        <pt x="95" y="238" on="1"/>
        <pt x="34" y="238" on="1"/>
        <pt x="49" y="291" on="1"/>
        <pt x="98" y="294" on="1"/>
        <pt x="102" y="337" on="0"/>
        <pt x="115" y="380" on="1"/>
      </contour>
    </TTGlyph>
    <TTGlyph name="F" xMin="-35" yMin="0" xMax="624" yMax="700">
      <contour>
        <pt x="-35" y="0" on="1"/>
        <pt x="-22" y="51" on="1"/>
        <pt x="70" y="73" on="1"/>
        <pt x="208" y="627" on="1"/>
        <pt x="126" y="649" on="1"/>
        <pt x="139" y="700" on="1"/>
        <pt x="624" y="700" on="1"/>
        <pt x="573" y="495" on="1"/>
        <pt x="515" y="495" on="1"/>
        <pt x="509" y="628" on="1"/>
        <pt x="338" y="628" on="1"/>
        <pt x="278" y="391" on="1"/>
        <pt x="467" y="412" on="1"/>
        <pt x="441" y="306" on="1"/>
        <pt x="263" y="325" on="1"/>
        <pt x="200" y="73" on="1"/>
        <pt x="301" y="51" on="1"/>
        <pt x="289" y="0" on="1"/>
      </contour>
    </TTGlyph>
    <TTGlyph name="G" xMin="46" yMin="-7" xMax="678" yMax="708">
      <contour>
        <pt x="46" y="236" on="1"/>
        <pt x="46" y="433" on="0"/>
        <pt x="296" y="708" on="0"/>
        <pt x="492" y="708" on="1"/>
        <pt x="584" y="708" on="0"/>
        <pt x="678" y="669" on="1"/>
        <pt x="632" y="484" on="1"/>
        <pt x="574" y="484" on="1"/>
        <pt x="568" y="636" on="1"/>
        <pt x="528" y="643" on="0"/>
        <pt x="500" y="643" on="1"/>
        <pt x="360" y="643" on="0"/>
        <pt x="182" y="404" on="0"/>
        <pt x="182" y="242" on="1"/>
        <pt x="182" y="155" on="0"/>
        <pt x="276" y="61" on="0"/>
        <pt x="351" y="61" on="1"/>
        <pt x="375" y="61" on="0"/>
        <pt x="402" y="65" on="0"/>
        <pt x="410" y="67" on="1"/>
        <pt x="456" y="252" on="1"/>
        <pt x="358" y="286" on="1"/>
        <pt x="367" y="327" on="1"/>
        <pt x="674" y="327" on="1"/>
        <pt x="665" y="286" on="1"/>
        <pt x="585" y="251" on="1"/>
        <pt x="533" y="42" on="1"/>
        <pt x="430" y="-7" on="0"/>
        <pt x="314" y="-7" on="1"/>
        <pt x="194" y="-7" on="0"/>
        <pt x="46" y="114" on="0"/>
      </contour>
    </TTGlyph>
    <TTGlyph name="H" xMin="-35" yMin="0" xMax="833" yMax="700">
      <contour>
        <pt x="-35" y="0" on="1"/>
        <pt x="-21" y="51" on="1"/>
        <pt x="69" y="72" on="1"/>
        <pt x="208" y="626" on="1"/>
        <pt x="126" y="649" on="1"/>
        <pt x="139" y="700" on="1"/>
        <pt x="444" y="700" on="1"/>
        <pt x="432" y="649" on="1"/>
        <pt x="339" y="627" on="1"/>
        <pt x="278" y="385" on="1"/>
        <pt x="538" y="385" on="1"/>
        <pt x="599" y="626" on="1"/>
        <pt x="519" y="649" on="1"/>
        <pt x="531" y="700" on="1"/>
        <pt x="833" y="700" on="1"/>
        <pt x="821" y="649" on="1"/>
        <pt x="729" y="628" on="1"/>
        <pt x="590" y="73" on="1"/>
        <pt x="673" y="51" on="1"/>
        <pt x="660" y="0" on="1"/>
        <pt x="357" y="0" on="1"/>
        <pt x="371" y="51" on="1"/>
        <pt x="460" y="72" on="1"/>
        <pt x="523" y="323" on="1"/>
        <pt x="262" y="323" on="1"/>
        <pt x="200" y="73" on="1"/>
        <pt x="284" y="51" on="1"/>
        <pt x="271" y="0" on="1"/>
      </contour>
    </TTGlyph>
    <TTGlyph name="I" xMin="-35" yMin="0" xMax="443" yMax="700">
      <contour>
        <pt x="-35" y="0" on="1"/>
        <pt x="-22" y="51" on="1"/>
        <pt x="70" y="73" on="1"/>
        <pt x="207" y="627" on="1"/>
        <pt x="126" y="649" on="1"/>
        <pt x="139" y="700" on="1"/>
        <pt x="443" y="700" on="1"/>
        <pt x="430" y="649" on="1"/>
        <pt x="337" y="627" on="1"/>
        <pt x="200" y="73" on="1"/>
        <pt x="282" y="51" on="1"/>
        <pt x="269" y="0" on="1"/>
      </contour>
    </TTGlyph>
    <TTGlyph name="Iacute" xMin="-35" yMin="0" xMax="458" yMax="916">
      <component glyphName="I" x="0" y="0" flags="0x204"/>
      <component glyphName="acute.case" x="214" y="0" flags="0x4"/>
    </TTGlyph>
    <TTGlyph name="Icircumflex" xMin="-35" yMin="0" xMax="484" yMax="918">
      <component glyphName="I" x="0" y="0" flags="0x204"/>
      <component glyphName="circumflex.case" x="111" y="0" flags="0x4"/>
    </TTGlyph>
    <TTGlyph name="Idieresis" xMin="-35" yMin="0" xMax="508" yMax="926">
      <component glyphName="I" x="0" y="0" flags="0x204"/>
      <component glyphName="dieresis.case" x="95" y="0" flags="0x4"/>
    </TTGlyph>
    <TTGlyph name="Igrave" xMin="-35" yMin="0" xMax="443" yMax="924">
      <component glyphName="I" x="0" y="0" flags="0x204"/>
      <component glyphName="grave.case" x="159" y="0" flags="0x4"/>
    </TTGlyph>
    <TTGlyph name="J" xMin="-86" yMin="-159" xMax="435" yMax="700">
      <contour>
        <pt x="-86" y="-106" on="1"/>
        <pt x="-24" y="-64" on="0"/>
        <pt x="56" y="51" on="0"/>
        <pt x="81" y="150" on="1"/>
        <pt x="200" y="626" on="1"/>
        <pt x="119" y="649" on="1"/>
        <pt x="133" y="700" on="1"/>
        <pt x="435" y="700" on="1"/>
        <pt x="422" y="649" on="1"/>
        <pt x="331" y="628" on="1"/>
        <pt x="212" y="150" on="1"/>
        <pt x="185" y="43" on="0"/>
        <pt x="27" y="-118" on="0"/>
        <pt x="-66" y="-159" on="1"/>
      </contour>
    </TTGlyph>
    <TTGlyph name="K" xMin="-34" yMin="-7" xMax="757" yMax="700">
      <contour>
        <pt x="-34" y="0" on="1"/>
        <pt x="-21" y="51" on="1"/>
        <pt x="70" y="73" on="1"/>
        <pt x="208" y="627" on="1"/>
        <pt x="127" y="649" on="1"/>
        <pt x="139" y="700" on="1"/>
        <pt x="444" y="700" on="1"/>
        <pt x="431" y="649" on="1"/>
        <pt x="338" y="626" on="1"/>
        <pt x="201" y="72" on="1"/>
        <pt x="283" y="51" on="1"/>
        <pt x="270" y="0" on="1"/>
      </contour>
      <contour>
        <pt x="294" y="364" on="1"/>
        <pt x="544" y="628" on="1"/>
        <pt x="487" y="649" on="1"/>
        <pt x="499" y="700" on="1"/>
        <pt x="757" y="700" on="1"/>
        <pt x="744" y="649" on="1"/>
        <pt x="658" y="629" on="1"/>
        <pt x="419" y="384" on="1"/>
        <pt x="467" y="259" on="1"/>
        <pt x="513" y="137" on="0"/>
        <pt x="569" y="70" on="0"/>
        <pt x="635" y="51" on="1"/>
        <pt x="621" y="-7" on="1"/>
        <pt x="506" y="-7" on="0"/>
        <pt x="392" y="91" on="0"/>
        <pt x="346" y="221" on="1"/>
      </contour>
    </TTGlyph>
    <TTGlyph name="L" xMin="-35" yMin="0" xMax="531" yMax="700">
      <contour>
        <pt x="-35" y="0" on="1"/>
        <pt x="-22" y="51" on="1"/>
        <pt x="70" y="73" on="1"/>
        <pt x="208" y="626" on="1"/>
        <pt x="126" y="649" on="1"/>
        <pt x="139" y="700" on="1"/>
        <pt x="443" y="700" on="1"/>
        <pt x="431" y="649" on="1"/>
        <pt x="338" y="626" on="1"/>
        <pt x="199" y="72" on="1"/>
        <pt x="370" y="72" on="1"/>
        <pt x="473" y="216" on="1"/>
        <pt x="531" y="216" on="1"/>
        <pt x="450" y="0" on="1"/>
      </contour>
    </TTGlyph>
    <TTGlyph name="M" xMin="-51" yMin="-5" xMax="986" yMax="700">
      <contour>
        <pt x="-51" y="0" on="1"/>
        <pt x="-38" y="51" on="1"/>
        <pt x="58" y="75" on="1"/>
        <pt x="226" y="628" on="1"/>
        <pt x="148" y="649" on="1"/>
        <pt x="161" y="700" on="1"/>
        <pt x="367" y="700" on="1"/>
        <pt x="443" y="194" on="1"/>
        <pt x="764" y="700" on="1"/>
        <pt x="986" y="700" on="1"/>
        <pt x="973" y="649" on="1"/>
        <pt x="885" y="629" on="1"/>
        <pt x="776" y="73" on="1"/>
        <pt x="863" y="51" on="1"/>
        <pt x="849" y="0" on="1"/>
        <pt x="546" y="0" on="1"/>
        <pt x="559" y="51" on="1"/>
        <pt x="646" y="72" on="1"/>
        <pt x="736" y="523" on="1"/>
        <pt x="399" y="-5" on="1"/>
        <pt x="346" y="-5" on="1"/>
        <pt x="266" y="524" on="1"/>
        <pt x="132" y="72" on="1"/>
        <pt x="211" y="51" on="1"/>
        <pt x="198" y="0" on="1"/>
      </contour>
    </TTGlyph>
    <TTGlyph name="N" xMin="-35" yMin="0" xMax="795" yMax="700">
      <contour>
        <pt x="-35" y="0" on="1"/>
        <pt x="-23" y="51" on="1"/>
        <pt x="69" y="73" on="1"/>
        <pt x="207" y="626" on="1"/>
        <pt x="127" y="649" on="1"/>
        <pt x="139" y="700" on="1"/>
        <pt x="296" y="700" on="1"/>
        <pt x="517" y="231" on="1"/>
        <pt x="615" y="627" on="1"/>
        <pt x="535" y="649" on="1"/>
        <pt x="548" y="700" on="1"/>
        <pt x="795" y="700" on="1"/>
        <pt x="783" y="649" on="1"/>
        <pt x="689" y="627" on="1"/>
        <pt x="534" y="0" on="1"/>
        <pt x="487" y="0" on="1"/>
        <pt x="250" y="503" on="1"/>
        <pt x="143" y="72" on="1"/>
        <pt x="224" y="51" on="1"/>
        <pt x="212" y="0" on="1"/>
      </contour>
    </TTGlyph>
    <TTGlyph name="Ntilde" xMin="-35" yMin="0" xMax="795" yMax="916">
      <component glyphName="N" x="0" y="0" flags="0x204"/>
      <component glyphName="tilde.case" x="258" y="-9" flags="0x4"/>
    </TTGlyph>
    <TTGlyph name="O" xMin="45" yMin="-7" xMax="714" yMax="708">
      <contour>
        <pt x="45" y="233" on="1"/>
        <pt x="45" y="356" on="0"/>
        <pt x="146" y="571" on="0"/>
        <pt x="340" y="708" on="0"/>
        <pt x="461" y="708" on="1"/>
        <pt x="584" y="708" on="0"/>
        <pt x="714" y="577" on="0"/>
        <pt x="714" y="467" on="1"/>
        <pt x="714" y="345" on="0"/>
        <pt x="614" y="130" on="0"/>
        <pt x="421" y="-7" on="0"/>
        <pt x="299" y="-7" on="1"/>
        <pt x="175" y="-7" on="0"/>
        <pt x="45" y="123" on="0"/>
      </contour>
      <contour>
        <pt x="182" y="223" on="1"/>
        <pt x="182" y="147" on="0"/>
        <pt x="243" y="57" on="0"/>
        <pt x="307" y="57" on="1"/>
        <pt x="373" y="57" on="0"/>
        <pt x="480" y="137" on="0"/>
        <pt x="544" y="264" on="0"/>
        <pt x="578" y="408" on="0"/>
        <pt x="578" y="477" on="1"/>
        <pt x="578" y="553" on="0"/>
        <pt x="515" y="644" on="0"/>
        <pt x="451" y="644" on="1"/>
        <pt x="386" y="644" on="0"/>
        <pt x="280" y="563" on="0"/>
        <pt x="216" y="435" on="0"/>
        <pt x="182" y="292" on="0"/>
      </contour>
    </TTGlyph>
    <TTGlyph name="OE" xMin="45" yMin="-7" xMax="1051" yMax="708">
      <contour>
        <pt x="45" y="233" on="1"/>
        <pt x="45" y="354" on="0"/>
        <pt x="147" y="569" on="0"/>
        <pt x="344" y="708" on="0"/>
        <pt x="467" y="708" on="1"/>
        <pt x="553" y="708" on="0"/>
        <pt x="601" y="663" on="1"/>
        <pt x="622" y="643" on="0"/>
        <pt x="636" y="620" on="1"/>
        <pt x="657" y="700" on="1"/>
        <pt x="1051" y="700" on="1"/>
        <pt x="1000" y="495" on="1"/>
        <pt x="952" y="495" on="1"/>
        <pt x="946" y="628" on="1"/>
        <pt x="761" y="628" on="1"/>
        <pt x="700" y="387" on="1"/>
        <pt x="888" y="406" on="1"/>
        <pt x="866" y="312" on="1"/>
        <pt x="686" y="329" on="1"/>
        <pt x="620" y="72" on="1"/>
        <pt x="808" y="72" on="1"/>
        <pt x="910" y="216" on="1"/>
        <pt x="958" y="216" on="1"/>
        <pt x="877" y="0" on="1"/>
        <pt x="483" y="0" on="1"/>
        <pt x="503" y="80" on="1"/>
        <pt x="417" y="-7" on="0"/>
        <pt x="289" y="-7" on="1"/>
        <pt x="45" y="-7" on="0"/>
      </contour>
      <contour>
        <pt x="181" y="213" on="1"/>
        <pt x="181" y="141" on="0"/>
        <pt x="242" y="57" on="0"/>
        <pt x="302" y="57" on="1"/>
        <pt x="358" y="57" on="0"/>
        <pt x="455" y="120" on="0"/>
        <pt x="517" y="217" on="0"/>
        <pt x="562" y="335" on="0"/>
        <pt x="582" y="443" on="0"/>
        <pt x="582" y="487" on="1"/>
        <pt x="582" y="560" on="0"/>
        <pt x="516" y="644" on="0"/>
        <pt x="457" y="644" on="1"/>
        <pt x="394" y="644" on="0"/>
        <pt x="286" y="557" on="0"/>
        <pt x="219" y="425" on="0"/>
        <pt x="181" y="278" on="0"/>
      </contour>
    </TTGlyph>
    <TTGlyph name="Oacute" xMin="45" yMin="-7" xMax="714" yMax="916">
      <component glyphName="O" x="0" y="0" flags="0x204"/>
      <component glyphName="acute.case" x="379" y="0" flags="0x4"/>
    </TTGlyph>
    <TTGlyph name="Ocircumflex" xMin="45" yMin="-7" xMax="714" yMax="918">
      <component glyphName="O" x="0" y="0" flags="0x204"/>
      <component glyphName="circumflex.case" x="296" y="0" flags="0x4"/>
    </TTGlyph>
    <TTGlyph name="Odieresis" xMin="45" yMin="-7" xMax="714" yMax="926">
      <component glyphName="O" x="0" y="0" flags="0x204"/>
      <component glyphName="dieresis.case" x="270" y="0" flags="0x4"/>
    </TTGlyph>
    <TTGlyph name="Ograve" xMin="45" yMin="-7" xMax="714" yMax="924">
      <component glyphName="O" x="0" y="0" flags="0x204"/>
      <component glyphName="grave.case" x="334" y="0" flags="0x4"/>
    </TTGlyph>
    <TTGlyph name="Oslash" xMin="45" yMin="-40" xMax="714" yMax="739">
      <contour>
        <pt x="147" y="-40" on="1"/>
        <pt x="176" y="15" on="1"/>
        <pt x="121" y="37" on="0"/>
        <pt x="45" y="144" on="0"/>
        <pt x="45" y="233" on="1"/>
        <pt x="45" y="356" on="0"/>
        <pt x="146" y="571" on="0"/>
        <pt x="340" y="708" on="0"/>
        <pt x="461" y="708" on="1"/>
        <pt x="501" y="708" on="0"/>
        <pt x="536" y="701" on="1"/>
        <pt x="556" y="739" on="1"/>
        <pt x="640" y="739" on="1"/>
        <pt x="606" y="675" on="1"/>
        <pt x="630" y="661" on="0"/>
        <pt x="649" y="642" on="1"/>
        <pt x="714" y="577" on="0"/>
        <pt x="714" y="467" on="1"/>
        <pt x="714" y="345" on="0"/>
        <pt x="614" y="130" on="0"/>
        <pt x="421" y="-7" on="0"/>
        <pt x="299" y="-7" on="1"/>
        <pt x="273" y="-7" on="0"/>
        <pt x="250" y="-4" on="1"/>
        <pt x="231" y="-40" on="1"/>
      </contour>
      <contour>
        <pt x="182" y="223" on="1"/>
        <pt x="182" y="147" on="0"/>
        <pt x="212" y="102" on="1"/>
        <pt x="217" y="95" on="1"/>
        <pt x="501" y="635" on="1"/>
        <pt x="479" y="644" on="0"/>
        <pt x="451" y="644" on="1"/>
        <pt x="386" y="644" on="0"/>
        <pt x="280" y="563" on="0"/>
        <pt x="216" y="435" on="0"/>
        <pt x="182" y="292" on="0"/>
      </contour>
      <contour>
        <pt x="307" y="57" on="1"/>
        <pt x="373" y="57" on="0"/>
        <pt x="480" y="137" on="0"/>
        <pt x="544" y="264" on="0"/>
        <pt x="578" y="408" on="0"/>
        <pt x="578" y="477" on="1"/>
        <pt x="578" y="539" on="0"/>
        <pt x="557" y="581" on="1"/>
        <pt x="283" y="59" on="1"/>
        <pt x="294" y="57" on="0"/>
      </contour>
    </TTGlyph>
    <TTGlyph name="Otilde" xMin="45" yMin="-7" xMax="714" yMax="925">
      <component glyphName="O" x="0" y="0" flags="0x204"/>
      <component glyphName="tilde.case" x="278" y="0" flags="0x4"/>
    </TTGlyph>
    <TTGlyph name="P" xMin="-35" yMin="0" xMax="621" yMax="700">
      <contour>
        <pt x="-35" y="0" on="1"/>
        <pt x="-22" y="51" on="1"/>
        <pt x="70" y="73" on="1"/>
        <pt x="209" y="627" on="1"/>
        <pt x="127" y="649" on="1"/>
        <pt x="140" y="700" on="1"/>
        <pt x="407" y="700" on="1"/>
        <pt x="507" y="700" on="0"/>
        <pt x="621" y="612" on="0"/>
        <pt x="621" y="526" on="1"/>
        <pt x="621" y="401" on="0"/>
        <pt x="452" y="259" on="0"/>
        <pt x="320" y="259" on="1"/>
        <pt x="288" y="259" on="0"/>
        <pt x="248" y="264" on="1"/>
        <pt x="199" y="70" on="1"/>
        <pt x="310" y="51" on="1"/>
        <pt x="297" y="0" on="1"/>
      </contour>
      <contour>
        <pt x="297" y="329" on="1"/>
        <pt x="383" y="329" on="0"/>
        <pt x="486" y="438" on="0"/>
        <pt x="486" y="522" on="1"/>
        <pt x="486" y="632" on="0"/>
        <pt x="365" y="632" on="1"/>
        <pt x="340" y="632" on="1"/>
        <pt x="265" y="330" on="1"/>
        <pt x="281" y="329" on="0"/>
      </contour>
    </TTGlyph>
    <TTGlyph name="Q" xMin="46" yMin="-210" xMax="788" yMax="708">
      <contour>
        <pt x="46" y="233" on="1"/>
        <pt x="46" y="356" on="0"/>
        <pt x="150" y="573" on="0"/>
        <pt x="341" y="708" on="0"/>
        <pt x="462" y="708" on="1"/>
        <pt x="585" y="708" on="0"/>
        <pt x="715" y="577" on="0"/>
        <pt x="715" y="467" on="1"/>
        <pt x="715" y="345" on="0"/>
        <pt x="615" y="130" on="0"/>
        <pt x="518" y="61" on="1"/>
        <pt x="458" y="19" on="0"/>
        <pt x="387" y="3" on="1"/>
        <pt x="415" y="-5" on="1"/>
        <pt x="455" y="-16" on="0"/>
        <pt x="595" y="-97" on="0"/>
        <pt x="642" y="-97" on="1"/>
        <pt x="693" y="-97" on="0"/>
        <pt x="748" y="-45" on="1"/>
        <pt x="788" y="-68" on="1"/>
        <pt x="751" y="-143" on="0"/>
        <pt x="674" y="-210" on="0"/>
        <pt x="627" y="-210" on="1"/>
        <pt x="592" y="-210" on="0"/>
        <pt x="519" y="-172" on="0"/>
        <pt x="402" y="-61" on="0"/>
        <pt x="364" y="-37" on="1"/>
        <pt x="330" y="-15" on="0"/>
        <pt x="295" y="-7" on="1"/>
        <pt x="177" y="-6" on="0"/>
        <pt x="46" y="123" on="0"/>
      </contour>
      <contour>
        <pt x="183" y="223" on="1"/>
        <pt x="183" y="147" on="0"/>
        <pt x="244" y="57" on="0"/>
        <pt x="308" y="57" on="1"/>
        <pt x="374" y="57" on="0"/>
        <pt x="481" y="137" on="0"/>
        <pt x="545" y="264" on="0"/>
        <pt x="579" y="408" on="0"/>
        <pt x="579" y="477" on="1"/>
        <pt x="579" y="553" on="0"/>
        <pt x="516" y="644" on="0"/>
        <pt x="452" y="644" on="1"/>
        <pt x="387" y="644" on="0"/>
        <pt x="281" y="563" on="0"/>
        <pt x="217" y="435" on="0"/>
        <pt x="183" y="292" on="0"/>
      </contour>
    </TTGlyph>
    <TTGlyph name="R" xMin="-35" yMin="-7" xMax="621" yMax="700">
      <contour>
        <pt x="-35" y="0" on="1"/>
        <pt x="-22" y="51" on="1"/>
        <pt x="70" y="73" on="1"/>
        <pt x="209" y="626" on="1"/>
        <pt x="127" y="649" on="1"/>
        <pt x="139" y="700" on="1"/>
        <pt x="406" y="700" on="1"/>
        <pt x="621" y="700" on="0"/>
        <pt x="621" y="543" on="1"/>
        <pt x="621" y="442" on="0"/>
        <pt x="556" y="384" on="1"/>
        <pt x="504" y="337" on="0"/>
        <pt x="430" y="328" on="1"/>
        <pt x="458" y="232" on="1"/>
        <pt x="482" y="144" on="0"/>
        <pt x="542" y="60" on="0"/>
        <pt x="604" y="40" on="1"/>
        <pt x="592" y="-7" on="1"/>
        <pt x="483" y="-4" on="0"/>
        <pt x="367" y="96" on="0"/>
        <pt x="337" y="197" on="1"/>
        <pt x="303" y="306" on="1"/>
        <pt x="258" y="306" on="1"/>
        <pt x="200" y="73" on="1"/>
        <pt x="282" y="51" on="1"/>
        <pt x="270" y="0" on="1"/>
      </contour>
      <contour>
        <pt x="274" y="371" on="1"/>
        <pt x="304" y="371" on="1"/>
        <pt x="376" y="371" on="0"/>
        <pt x="486" y="461" on="0"/>
        <pt x="486" y="541" on="1"/>
        <pt x="486" y="632" on="0"/>
        <pt x="379" y="632" on="1"/>
        <pt x="340" y="632" on="1"/>
      </contour>
    </TTGlyph>
    <TTGlyph name="S" xMin="-3" yMin="-7" xMax="557" yMax="708">
      <contour>
        <pt x="-3" y="40" on="1"/>
        <pt x="53" y="224" on="1"/>
        <pt x="102" y="224" on="1"/>
        <pt x="102" y="71" on="1"/>
        <pt x="149" y="57" on="0"/>
        <pt x="194" y="57" on="1"/>
        <pt x="267" y="57" on="0"/>
        <pt x="352" y="113" on="0"/>
        <pt x="352" y="167" on="1"/>
        <pt x="352" y="203" on="0"/>
        <pt x="302" y="267" on="0"/>
        <pt x="230" y="319" on="0"/>
        <pt x="158" y="377" on="0"/>
        <pt x="108" y="462" on="0"/>
        <pt x="108" y="514" on="1"/>
        <pt x="108" y="606" on="0"/>
        <pt x="255" y="708" on="0"/>
        <pt x="367" y="708" on="1"/>
        <pt x="481" y="708" on="0"/>
        <pt x="557" y="676" on="1"/>
        <pt x="502" y="492" on="1"/>
        <pt x="454" y="492" on="1"/>
        <pt x="454" y="635" on="1"/>
        <pt x="410" y="643" on="0"/>
        <pt x="382" y="643" on="1"/>
        <pt x="323" y="643" on="0"/>
        <pt x="239" y="594" on="0"/>
        <pt x="239" y="539" on="1"/>
        <pt x="239" y="509" on="0"/>
        <pt x="291" y="447" on="0"/>
        <pt x="366" y="391" on="0"/>
        <pt x="440" y="327" on="0"/>
        <pt x="492" y="238" on="0"/>
        <pt x="492" y="187" on="1"/>
        <pt x="492" y="96" on="0"/>
        <pt x="354" y="-7" on="0"/>
        <pt x="211" y="-7" on="1"/>
        <pt x="88" y="-7" on="0"/>
      </contour>
    </TTGlyph>
    <TTGlyph name="T" xMin="71" yMin="0" xMax="666" yMax="700">
      <contour>
        <pt x="71" y="0" on="1"/>
        <pt x="83" y="51" on="1"/>
        <pt x="175" y="73" on="1"/>
        <pt x="314" y="628" on="1"/>
        <pt x="197" y="628" on="1"/>
        <pt x="122" y="488" on="1"/>
        <pt x="73" y="488" on="1"/>
        <pt x="126" y="700" on="1"/>
        <pt x="666" y="700" on="1"/>
        <pt x="613" y="488" on="1"/>
        <pt x="565" y="488" on="1"/>
        <pt x="560" y="628" on="1"/>
        <pt x="443" y="628" on="1"/>
        <pt x="304" y="73" on="1"/>
        <pt x="386" y="51" on="1"/>
        <pt x="373" y="0" on="1"/>
      </contour>
    </TTGlyph>
    <TTGlyph name="Thorn" xMin="-36" yMin="0" xMax="578" yMax="700">
      <contour>
        <pt x="-36" y="0" on="1"/>
        <pt x="-24" y="46" on="1"/>
        <pt x="68" y="68" on="1"/>
        <pt x="208" y="632" on="1"/>
        <pt x="127" y="654" on="1"/>
        <pt x="138" y="700" on="1"/>
        <pt x="442" y="700" on="1"/>
        <pt x="431" y="654" on="1"/>
        <pt x="338" y="632" on="1"/>
        <pt x="319" y="553" on="1"/>
        <pt x="360" y="553" on="1"/>
        <pt x="461" y="553" on="0"/>
        <pt x="578" y="472" on="0"/>
        <pt x="578" y="389" on="1"/>
        <pt x="578" y="272" on="0"/>
        <pt x="400" y="147" on="0"/>
        <pt x="271" y="147" on="1"/>
        <pt x="217" y="147" on="1"/>
        <pt x="198" y="68" on="1"/>
        <pt x="280" y="46" on="1"/>
        <pt x="269" y="0" on="1"/>
      </contour>
      <contour>
        <pt x="235" y="217" on="1"/>
        <pt x="267" y="217" on="1"/>
        <pt x="346" y="217" on="0"/>
        <pt x="445" y="307" on="0"/>
        <pt x="445" y="391" on="1"/>
        <pt x="445" y="485" on="0"/>
        <pt x="330" y="485" on="1"/>
        <pt x="301" y="485" on="1"/>
      </contour>
    </TTGlyph>
    <TTGlyph name="U" xMin="85" yMin="-7" xMax="815" yMax="700">
      <contour>
        <pt x="85" y="169" on="1"/>
        <pt x="85" y="210" on="0"/>
        <pt x="100" y="269" on="1"/>
        <pt x="188" y="627" on="1"/>
        <pt x="108" y="649" on="1"/>
        <pt x="121" y="700" on="1"/>
        <pt x="425" y="700" on="1"/>
        <pt x="412" y="649" on="1"/>
        <pt x="319" y="627" on="1"/>
        <pt x="229" y="269" on="1"/>
        <pt x="216" y="215" on="0"/>
        <pt x="216" y="184" on="1"/>
        <pt x="216" y="137" on="0"/>
        <pt x="280" y="75" on="0"/>
        <pt x="341" y="75" on="1"/>
        <pt x="416" y="75" on="0"/>
        <pt x="524" y="180" on="0"/>
        <pt x="546" y="269" on="1"/>
        <pt x="635" y="627" on="1"/>
        <pt x="556" y="649" on="1"/>
        <pt x="568" y="700" on="1"/>
        <pt x="815" y="700" on="1"/>
        <pt x="802" y="649" on="1"/>
        <pt x="709" y="628" on="1"/>
        <pt x="620" y="269" on="1"/>
        <pt x="552" y="-7" on="0"/>
        <pt x="304" y="-7" on="1"/>
        <pt x="199" y="-7" on="0"/>
        <pt x="85" y="81" on="0"/>
      </contour>
    </TTGlyph>
    <TTGlyph name="Uacute" xMin="85" yMin="-7" xMax="815" yMax="916">
      <component glyphName="U" x="0" y="0" flags="0x204"/>
      <component glyphName="acute.case" x="435" y="0" flags="0x4"/>
    </TTGlyph>
    <TTGlyph name="Ucircumflex" xMin="85" yMin="-7" xMax="815" yMax="918">
      <component glyphName="U" x="0" y="0" flags="0x204"/>
      <component glyphName="circumflex.case" x="292" y="0" flags="0x4"/>
    </TTGlyph>
    <TTGlyph name="Udieresis" xMin="85" yMin="-7" xMax="815" yMax="926">
      <component glyphName="U" x="0" y="0" flags="0x204"/>
      <component glyphName="dieresis.case" x="266" y="0" flags="0x4"/>
    </TTGlyph>
    <TTGlyph name="Ugrave" xMin="85" yMin="-7" xMax="815" yMax="924">
      <component glyphName="U" x="0" y="0" flags="0x204"/>
      <component glyphName="grave.case" x="330" y="0" flags="0x4"/>
    </TTGlyph>
    <TTGlyph name="V" xMin="80" yMin="-7" xMax="763" yMax="700">
      <contour>
        <pt x="80" y="649" on="1"/>
        <pt x="93" y="700" on="1"/>
        <pt x="376" y="700" on="1"/>
        <pt x="363" y="649" on="1"/>
        <pt x="290" y="632" on="1"/>
        <pt x="324" y="182" on="1"/>
        <pt x="571" y="628" on="1"/>
        <pt x="503" y="649" on="1"/>
        <pt x="517" y="700" on="1"/>
        <pt x="763" y="700" on="1"/>
        <pt x="750" y="649" on="1"/>
        <pt x="655" y="627" on="1"/>
        <pt x="303" y="-7" on="1"/>
        <pt x="211" y="-7" on="1"/>
        <pt x="162" y="626" on="1"/>
      </contour>
    </TTGlyph>
    <TTGlyph name="W" xMin="80" yMin="-7" xMax="1059" yMax="700">
      <contour>
        <pt x="80" y="649" on="1"/>
        <pt x="92" y="700" on="1"/>
        <pt x="377" y="700" on="1"/>
        <pt x="364" y="649" on="1"/>
        <pt x="286" y="631" on="1"/>
        <pt x="305" y="206" on="1"/>
        <pt x="556" y="700" on="1"/>
        <pt x="639" y="700" on="1"/>
        <pt x="666" y="211" on="1"/>
        <pt x="870" y="629" on="1"/>
        <pt x="800" y="649" on="1"/>
        <pt x="813" y="700" on="1"/>
        <pt x="1059" y="700" on="1"/>
        <pt x="1047" y="649" on="1"/>
        <pt x="952" y="627" on="1"/>
        <pt x="642" y="-7" on="1"/>
        <pt x="551" y="-7" on="1"/>
        <pt x="524" y="476" on="1"/>
        <pt x="280" y="-7" on="1"/>
        <pt x="189" y="-7" on="1"/>
        <pt x="160" y="627" on="1"/>
      </contour>
    </TTGlyph>
    <TTGlyph name="X" xMin="-76" yMin="0" xMax="759" yMax="700">
      <contour>
        <pt x="-76" y="0" on="1"/>
        <pt x="-64" y="51" on="1"/>
        <pt x="36" y="75" on="1"/>
        <pt x="287" y="355" on="1"/>
        <pt x="192" y="624" on="1"/>
        <pt x="106" y="649" on="1"/>
        <pt x="118" y="700" on="1"/>
        <pt x="393" y="700" on="1"/>
        <pt x="381" y="649" on="1"/>
        <pt x="322" y="634" on="1"/>
        <pt x="390" y="444" on="1"/>
        <pt x="551" y="631" on="1"/>
        <pt x="484" y="649" on="1"/>
        <pt x="496" y="700" on="1"/>
        <pt x="759" y="700" on="1"/>
        <pt x="748" y="649" on="1"/>
        <pt x="645" y="625" on="1"/>
        <pt x="417" y="366" on="1"/>
        <pt x="520" y="73" on="1"/>
        <pt x="606" y="51" on="1"/>
        <pt x="594" y="0" on="1"/>
        <pt x="318" y="0" on="1"/>
        <pt x="330" y="51" on="1"/>
        <pt x="388" y="65" on="1"/>
        <pt x="314" y="277" on="1"/>
        <pt x="132" y="69" on="1"/>
        <pt x="199" y="51" on="1"/>
        <pt x="187" y="0" on="1"/>
      </contour>
    </TTGlyph>
    <TTGlyph name="Y" xMin="74" yMin="0" xMax="727" yMax="700">
      <contour>
        <pt x="74" y="649" on="1"/>
        <pt x="87" y="700" on="1"/>
        <pt x="358" y="700" on="1"/>
        <pt x="346" y="649" on="1"/>
        <pt x="285" y="637" on="1"/>
        <pt x="364" y="408" on="1"/>
        <pt x="539" y="630" on="1"/>
        <pt x="468" y="649" on="1"/>
        <pt x="481" y="700" on="1"/>
        <pt x="727" y="700" on="1"/>
        <pt x="713" y="649" on="1"/>
        <pt x="630" y="624" on="1"/>
        <pt x="392" y="326" on="1"/>
        <pt x="329" y="73" on="1"/>
        <pt x="417" y="51" on="1"/>
        <pt x="405" y="0" on="1"/>
        <pt x="102" y="0" on="1"/>
        <pt x="114" y="51" on="1"/>
        <pt x="199" y="73" on="1"/>
        <pt x="261" y="326" on="1"/>
        <pt x="155" y="627" on="1"/>
      </contour>
    </TTGlyph>
    <TTGlyph name="Yacute" xMin="74" yMin="0" xMax="727" yMax="916">
      <component glyphName="Y" x="0" y="0" flags="0x204"/>
      <component glyphName="acute.case" x="358" y="0" flags="0x4"/>
    </TTGlyph>
    <TTGlyph name="Z" xMin="-37" yMin="0" xMax="655" yMax="700">
      <contour>
        <pt x="-37" y="0" on="1"/>
        <pt x="-22" y="62" on="1"/>
        <pt x="465" y="628" on="1"/>
        <pt x="227" y="628" on="1"/>
        <pt x="157" y="495" on="1"/>
        <pt x="109" y="495" on="1"/>
        <pt x="160" y="700" on="1"/>
        <pt x="655" y="700" on="1"/>
        <pt x="640" y="638" on="1"/>
        <pt x="152" y="72" on="1"/>
        <pt x="409" y="72" on="1"/>
        <pt x="510" y="216" on="1"/>
        <pt x="559" y="216" on="1"/>
        <pt x="478" y="0" on="1"/>
      </contour>
    </TTGlyph>
    <TTGlyph name="a" xMin="17" yMin="-7" xMax="528" yMax="507">
      <contour>
        <pt x="17" y="137" on="1"/>
        <pt x="17" y="295" on="0"/>
        <pt x="209" y="507" on="0"/>
        <pt x="348" y="507" on="1"/>
        <pt x="446" y="507" on="0"/>
        <pt x="528" y="461" on="1"/>
        <pt x="429" y="79" on="1"/>
        <pt x="527" y="79" on="1"/>
        <pt x="527" y="37" on="1"/>
        <pt x="450" y="16" on="0"/>
        <pt x="357" y="-7" on="0"/>
        <pt x="329" y="-7" on="1"/>
        <pt x="292" y="-7" on="0"/>
        <pt x="292" y="26" on="1"/>
        <pt x="292" y="42" on="0"/>
        <pt x="298" y="64" on="1"/>
        <pt x="303" y="83" on="1"/>
        <pt x="224" y="-7" on="0"/>
        <pt x="133" y="-7" on="1"/>
        <pt x="80" y="-7" on="0"/>
        <pt x="17" y="67" on="0"/>
      </contour>
      <contour>
        <pt x="150" y="147" on="1"/>
        <pt x="150" y="72" on="0"/>
        <pt x="192" y="72" on="1"/>
        <pt x="226" y="72" on="0"/>
        <pt x="303" y="142" on="0"/>
        <pt x="331" y="191" on="1"/>
        <pt x="399" y="448" on="1"/>
        <pt x="384" y="453" on="0"/>
        <pt x="355" y="453" on="1"/>
        <pt x="274" y="453" on="0"/>
        <pt x="150" y="261" on="0"/>
      </contour>
    </TTGlyph>
    <TTGlyph name="aacute" xMin="17" yMin="-7" xMax="528" yMax="794">
      <component glyphName="a" x="0" y="0" flags="0x204"/>
      <component glyphName="acute" x="240" y="0" flags="0x4"/>
    </TTGlyph>
    <TTGlyph name="acircumflex" xMin="17" yMin="-7" xMax="528" yMax="788">
      <component glyphName="a" x="0" y="0" flags="0x204"/>
      <component glyphName="circumflex" x="160" y="0" flags="0x4"/>
    </TTGlyph>
    <TTGlyph name="acute" xMin="37" yMin="567" xMax="235" yMax="794">
      <contour>
        <pt x="37" y="595" on="1"/>
        <pt x="121" y="794" on="1"/>
        <pt x="186" y="787" on="0"/>
        <pt x="235" y="744" on="1"/>
        <pt x="94" y="567" on="1"/>
      </contour>
    </TTGlyph>
    <TTGlyph name="acute.case" xMin="-4" yMin="730" xMax="244" yMax="916">
      <contour>
        <pt x="-4" y="768" on="1"/>
        <pt x="158" y="916" on="1"/>
        <pt x="183" y="908" on="0"/>
        <pt x="230" y="852" on="0"/>
        <pt x="244" y="820" on="1"/>
        <pt x="19" y="730" on="1"/>
      </contour>
    </TTGlyph>
    <TTGlyph name="adieresis" xMin="17" yMin="-7" xMax="545" yMax="760">
      <component glyphName="a" x="0" y="0" flags="0x204"/>
      <component glyphName="dieresis" x="106" y="0" flags="0x4"/>
    </TTGlyph>
    <TTGlyph name="ae" xMin="4" yMin="-7" xMax="757" yMax="507">
      <contour>
        <pt x="4" y="109" on="1"/>
        <pt x="4" y="195" on="0"/>
        <pt x="170" y="279" on="0"/>
        <pt x="312" y="279" on="1"/>
        <pt x="336" y="346" on="0"/>
        <pt x="336" y="386" on="1"/>
        <pt x="336" y="460" on="0"/>
        <pt x="268" y="460" on="1"/>
        <pt x="187" y="460" on="0"/>
        <pt x="185" y="321" on="1"/>
        <pt x="144" y="321" on="0"/>
        <pt x="69" y="363" on="0"/>
        <pt x="69" y="405" on="1"/>
        <pt x="69" y="456" on="0"/>
        <pt x="178" y="507" on="0"/>
        <pt x="251" y="507" on="1"/>
        <pt x="367" y="507" on="0"/>
        <pt x="417" y="442" on="1"/>
        <pt x="439" y="461" on="0"/>
        <pt x="466" y="475" on="1"/>
        <pt x="525" y="507" on="0"/>
        <pt x="595" y="507" on="1"/>
        <pt x="676" y="507" on="0"/>
        <pt x="757" y="451" on="0"/>
        <pt x="757" y="401" on="1"/>
        <pt x="757" y="343" on="0"/>
        <pt x="662" y="261" on="0"/>
        <pt x="520" y="223" on="0"/>
        <pt x="430" y="220" on="1"/>
        <pt x="428" y="200" on="0"/>
        <pt x="428" y="187" on="1"/>
        <pt x="428" y="123" on="0"/>
        <pt x="468" y="52" on="0"/>
        <pt x="523" y="52" on="1"/>
        <pt x="588" y="52" on="0"/>
        <pt x="659" y="79" on="1"/>
        <pt x="670" y="43" on="1"/>
        <pt x="570" y="-7" on="0"/>
        <pt x="454" y="-7" on="1"/>
        <pt x="356" y="-7" on="0"/>
        <pt x="317" y="55" on="1"/>
        <pt x="306" y="47" on="0"/>
        <pt x="302" y="44" on="1"/>
        <pt x="280" y="30" on="1"/>
        <pt x="263" y="19" on="0"/>
        <pt x="239" y="10" on="0"/>
        <pt x="202" y="-2" on="0"/>
        <pt x="162" y="-7" on="0"/>
        <pt x="140" y="-7" on="1"/>
        <pt x="76" y="-7" on="0"/>
        <pt x="4" y="56" on="0"/>
      </contour>
      <contour>
        <pt x="439" y="276" on="1"/>
        <pt x="527" y="288" on="0"/>
        <pt x="630" y="365" on="0"/>
        <pt x="630" y="413" on="1"/>
        <pt x="630" y="434" on="0"/>
        <pt x="607" y="459" on="0"/>
        <pt x="588" y="459" on="1"/>
        <pt x="540" y="459" on="0"/>
        <pt x="455" y="362" on="0"/>
      </contour>
      <contour>
        <pt x="293" y="162" on="1"/>
        <pt x="293" y="193" on="0"/>
        <pt x="298" y="224" on="1"/>
        <pt x="226" y="223" on="0"/>
        <pt x="184" y="194" on="1"/>
        <pt x="141" y="165" on="0"/>
        <pt x="141" y="120" on="1"/>
        <pt x="141" y="95" on="0"/>
        <pt x="168" y="63" on="0"/>
        <pt x="195" y="63" on="1"/>
        <pt x="249" y="63" on="0"/>
        <pt x="299" y="102" on="1"/>
        <pt x="293" y="129" on="0"/>
      </contour>
    </TTGlyph>
    <TTGlyph name="agrave" xMin="17" yMin="-7" xMax="528" yMax="796">
      <component glyphName="a" x="0" y="0" flags="0x204"/>
      <component glyphName="grave" x="240" y="0" flags="0x4"/>
    </TTGlyph>
    <TTGlyph name="ampersand" xMin="15" yMin="-8" xMax="768" yMax="708">
      <contour>
        <pt x="15" y="171" on="1"/>
        <pt x="15" y="267" on="0"/>
        <pt x="163" y="400" on="0"/>
        <pt x="272" y="413" on="1"/>
        <pt x="272" y="415" on="1"/>
        <pt x="213" y="423" on="0"/>
        <pt x="151" y="496" on="0"/>
        <pt x="151" y="541" on="1"/>
        <pt x="151" y="615" on="0"/>
        <pt x="281" y="708" on="0"/>
        <pt x="398" y="708" on="1"/>
        <pt x="478" y="708" on="0"/>
        <pt x="573" y="657" on="0"/>
        <pt x="573" y="613" on="1"/>
        <pt x="573" y="570" on="0"/>
        <pt x="502" y="526" on="0"/>
        <pt x="445" y="526" on="1"/>
        <pt x="436" y="526" on="0"/>
        <pt x="432" y="527" on="1"/>
        <pt x="443" y="560" on="0"/>
        <pt x="443" y="587" on="1"/>
        <pt x="443" y="616" on="0"/>
        <pt x="412" y="658" on="0"/>
        <pt x="384" y="658" on="1"/>
        <pt x="340" y="658" on="0"/>
        <pt x="288" y="584" on="0"/>
        <pt x="288" y="528" on="1"/>
        <pt x="288" y="435" on="0"/>
        <pt x="389" y="435" on="1"/>
        <pt x="383" y="375" on="1"/>
        <pt x="301" y="372" on="0"/>
        <pt x="156" y="267" on="0"/>
        <pt x="156" y="183" on="1"/>
        <pt x="156" y="128" on="0"/>
        <pt x="222" y="70" on="0"/>
        <pt x="279" y="70" on="1"/>
        <pt x="449" y="70" on="0"/>
        <pt x="549" y="242" on="1"/>
        <pt x="531" y="242" on="1"/>
        <pt x="436" y="244" on="0"/>
        <pt x="359" y="222" on="0"/>
        <pt x="323" y="179" on="1"/>
        <pt x="290" y="202" on="1"/>
        <pt x="350" y="330" on="0"/>
        <pt x="546" y="327" on="1"/>
        <pt x="579" y="327" on="1"/>
        <pt x="701" y="327" on="0"/>
        <pt x="724" y="397" on="1"/>
        <pt x="742" y="388" on="0"/>
        <pt x="768" y="351" on="0"/>
        <pt x="768" y="328" on="1"/>
        <pt x="768" y="290" on="0"/>
        <pt x="703" y="242" on="0"/>
        <pt x="640" y="242" on="1"/>
        <pt x="612" y="242" on="1"/>
        <pt x="556" y="130" on="0"/>
        <pt x="368" y="-8" on="0"/>
        <pt x="239" y="-8" on="1"/>
        <pt x="130" y="-8" on="0"/>
        <pt x="15" y="93" on="0"/>
      </contour>
    </TTGlyph>
    <TTGlyph name="aring" xMin="17" yMin="-7" xMax="528" yMax="810">
      <component glyphName="a" x="0" y="0" flags="0x204"/>
      <component glyphName="ring" x="207" y="0" flags="0x4"/>
    </TTGlyph>
    <TTGlyph name="asciicircum" xMin="104" yMin="267" xMax="550" yMax="715">
      <contour>
        <pt x="104" y="267" on="1"/>
        <pt x="413" y="715" on="1"/>
        <pt x="463" y="715" on="1"/>
        <pt x="550" y="267" on="1"/>
        <pt x="473" y="267" on="1"/>
        <pt x="413" y="604" on="1"/>
        <pt x="187" y="267" on="1"/>
      </contour>
    </TTGlyph>
    <TTGlyph name="asciitilde" xMin="110" yMin="606" xMax="538" yMax="734">
      <contour>
        <pt x="110" y="653" on="1"/>
        <pt x="120" y="662" on="0"/>
        <pt x="154" y="689" on="0"/>
        <pt x="240" y="734" on="0"/>
        <pt x="272" y="734" on="1"/>
        <pt x="310" y="734" on="0"/>
        <pt x="382" y="686" on="0"/>
        <pt x="403" y="686" on="1"/>
        <pt x="460" y="686" on="0"/>
        <pt x="515" y="720" on="1"/>
        <pt x="538" y="687" on="1"/>
        <pt x="512" y="664" on="1"/>
        <pt x="496" y="651" on="0"/>
        <pt x="411" y="606" on="0"/>
        <pt x="377" y="606" on="1"/>
        <pt x="337" y="606" on="0"/>
        <pt x="269" y="654" on="0"/>
        <pt x="245" y="654" on="1"/>
        <pt x="192" y="654" on="0"/>
        <pt x="133" y="620" on="1"/>
      </contour>
    </TTGlyph>
    <TTGlyph name="asterisk" xMin="115" yMin="386" xMax="506" yMax="760">
      <contour>
        <pt x="115" y="581" on="1"/>
        <pt x="148" y="681" on="1"/>
        <pt x="272" y="627" on="1"/>
        <pt x="258" y="760" on="1"/>
        <pt x="364" y="760" on="1"/>
        <pt x="350" y="627" on="1"/>
        <pt x="473" y="679" on="1"/>
        <pt x="506" y="581" on="1"/>
        <pt x="374" y="552" on="1"/>
        <pt x="464" y="449" on="1"/>
        <pt x="379" y="386" on="1"/>
        <pt x="311" y="505" on="1"/>
        <pt x="245" y="386" on="1"/>
        <pt x="157" y="449" on="1"/>
        <pt x="248" y="553" on="1"/>
      </contour>
    </TTGlyph>
    <TTGlyph name="at" xMin="54" yMin="-117" xMax="865" yMax="708">
      <contour>
        <pt x="54" y="232" on="1"/>
        <pt x="54" y="331" on="0"/>
        <pt x="125" y="504" on="0"/>
        <pt x="251" y="633" on="0"/>
        <pt x="425" y="708" on="0"/>
        <pt x="528" y="708" on="1"/>
        <pt x="600" y="708" on="0"/>
        <pt x="723" y="664" on="0"/>
        <pt x="813" y="586" on="0"/>
        <pt x="865" y="479" on="0"/>
        <pt x="865" y="416" on="1"/>
        <pt x="865" y="344" on="0"/>
        <pt x="810" y="225" on="0"/>
        <pt x="711" y="139" on="0"/>
        <pt x="575" y="92" on="0"/>
        <pt x="494" y="92" on="1"/>
        <pt x="465" y="92" on="0"/>
        <pt x="465" y="115" on="1"/>
        <pt x="465" y="131" on="0"/>
        <pt x="477" y="161" on="1"/>
        <pt x="412" y="92" on="0"/>
        <pt x="335" y="92" on="1"/>
        <pt x="292" y="92" on="0"/>
        <pt x="243" y="143" on="0"/>
        <pt x="243" y="195" on="1"/>
        <pt x="243" y="262" on="0"/>
        <pt x="294" y="383" on="0"/>
        <pt x="380" y="474" on="0"/>
        <pt x="489" y="528" on="0"/>
        <pt x="548" y="528" on="1"/>
        <pt x="635" y="528" on="0"/>
        <pt x="703" y="489" on="1"/>
        <pt x="585" y="151" on="1"/>
        <pt x="632" y="159" on="0"/>
        <pt x="712" y="206" on="0"/>
        <pt x="771" y="275" on="0"/>
        <pt x="805" y="362" on="0"/>
        <pt x="805" y="411" on="1"/>
        <pt x="805" y="465" on="0"/>
        <pt x="763" y="555" on="0"/>
        <pt x="689" y="620" on="0"/>
        <pt x="586" y="655" on="0"/>
        <pt x="526" y="655" on="1"/>
        <pt x="441" y="655" on="0"/>
        <pt x="306" y="584" on="0"/>
        <pt x="212" y="468" on="0"/>
        <pt x="162" y="319" on="0"/>
        <pt x="162" y="241" on="1"/>
        <pt x="162" y="172" on="0"/>
        <pt x="204" y="61" on="0"/>
        <pt x="282" y="-16" on="0"/>
        <pt x="391" y="-57" on="0"/>
        <pt x="457" y="-57" on="1"/>
        <pt x="548" y="-57" on="0"/>
        <pt x="643" y="-20" on="1"/>
        <pt x="663" y="-58" on="1"/>
        <pt x="556" y="-117" on="0"/>
        <pt x="427" y="-117" on="1"/>
        <pt x="354" y="-117" on="0"/>
        <pt x="219" y="-74" on="0"/>
        <pt x="116" y="13" on="0"/>
        <pt x="54" y="144" on="0"/>
      </contour>
      <contour>
        <pt x="361" y="218" on="1"/>
        <pt x="361" y="163" on="0"/>
        <pt x="393" y="163" on="1"/>
        <pt x="416" y="163" on="0"/>
        <pt x="477" y="204" on="0"/>
        <pt x="508" y="243" on="1"/>
        <pt x="591" y="479" on="1"/>
        <pt x="574" y="482" on="0"/>
        <pt x="556" y="482" on="1"/>
        <pt x="518" y="482" on="0"/>
        <pt x="448" y="438" on="0"/>
        <pt x="394" y="365" on="0"/>
        <pt x="361" y="270" on="0"/>
      </contour>
    </TTGlyph>
    <TTGlyph name="atilde" xMin="17" yMin="-7" xMax="552" yMax="753">
      <component glyphName="a" x="0" y="0" flags="0x204"/>
      <component glyphName="tilde" x="126" y="0" flags="0x4"/>
    </TTGlyph>
    <TTGlyph name="b" xMin="8" yMin="-7" xMax="520" yMax="807">
      <contour>
        <pt x="8" y="39" on="1"/>
        <pt x="185" y="722" on="1"/>
        <pt x="88" y="722" on="1"/>
        <pt x="88" y="763" on="1"/>
        <pt x="247" y="807" on="0"/>
        <pt x="280" y="807" on="1"/>
        <pt x="322" y="807" on="0"/>
        <pt x="322" y="774" on="1"/>
        <pt x="322" y="762" on="0"/>
        <pt x="316" y="736" on="1"/>
        <pt x="234" y="417" on="1"/>
        <pt x="313" y="507" on="0"/>
        <pt x="404" y="507" on="1"/>
        <pt x="457" y="507" on="0"/>
        <pt x="520" y="433" on="0"/>
        <pt x="520" y="363" on="1"/>
        <pt x="520" y="205" on="0"/>
        <pt x="328" y="-7" on="0"/>
        <pt x="189" y="-7" on="1"/>
        <pt x="90" y="-7" on="0"/>
      </contour>
      <contour>
        <pt x="138" y="52" on="1"/>
        <pt x="153" y="47" on="0"/>
        <pt x="182" y="47" on="1"/>
        <pt x="263" y="47" on="0"/>
        <pt x="387" y="239" on="0"/>
        <pt x="387" y="353" on="1"/>
        <pt x="387" y="428" on="0"/>
        <pt x="345" y="428" on="1"/>
        <pt x="311" y="428" on="0"/>
        <pt x="234" y="358" on="0"/>
        <pt x="206" y="309" on="1"/>
      </contour>
    </TTGlyph>
    <TTGlyph name="backslash" xMin="156" yMin="-121" xMax="221" yMax="760">
      <contour>
        <pt x="156" y="-121" on="1"/>
        <pt x="156" y="760" on="1"/>
        <pt x="221" y="760" on="1"/>
        <pt x="221" y="-121" on="1"/>
      </contour>
    </TTGlyph>
    <TTGlyph name="bar" xMin="118" yMin="-240" xMax="197" yMax="760">
      <contour>
        <pt x="118" y="-240" on="1"/>
        <pt x="118" y="760" on="1"/>
        <pt x="197" y="760" on="1"/>
        <pt x="197" y="-240" on="1"/>
      </contour>
    </TTGlyph>
    <TTGlyph name="braceleft" xMin="20" yMin="-128" xMax="457" yMax="760">
      <contour>
        <pt x="20" y="292" on="1"/>
        <pt x="33" y="344" on="1"/>
        <pt x="87" y="347" on="0"/>
        <pt x="156" y="392" on="0"/>
        <pt x="170" y="448" on="1"/>
        <pt x="212" y="617" on="1"/>
        <pt x="248" y="760" on="0"/>
        <pt x="383" y="760" on="1"/>
        <pt x="457" y="760" on="1"/>
        <pt x="444" y="707" on="1"/>
        <pt x="416" y="707" on="1"/>
        <pt x="374" y="707" on="0"/>
        <pt x="328" y="663" on="0"/>
        <pt x="315" y="612" on="1"/>
        <pt x="272" y="441" on="1"/>
        <pt x="246" y="336" on="0"/>
        <pt x="138" y="317" on="1"/>
        <pt x="138" y="316" on="1"/>
        <pt x="216" y="301" on="0"/>
        <pt x="216" y="232" on="1"/>
        <pt x="216" y="210" on="0"/>
        <pt x="211" y="193" on="1"/>
        <pt x="167" y="20" on="1"/>
        <pt x="161" y="-7" on="0"/>
        <pt x="161" y="-24" on="1"/>
        <pt x="161" y="-75" on="0"/>
        <pt x="221" y="-75" on="1"/>
        <pt x="249" y="-75" on="1"/>
        <pt x="236" y="-128" on="1"/>
        <pt x="162" y="-128" on="1"/>
        <pt x="110" y="-128" on="0"/>
        <pt x="56" y="-76" on="0"/>
        <pt x="56" y="-30" on="1"/>
        <pt x="56" y="-8" on="0"/>
        <pt x="62" y="16" on="1"/>
        <pt x="105" y="185" on="1"/>
        <pt x="110" y="204" on="0"/>
        <pt x="110" y="223" on="1"/>
        <pt x="110" y="289" on="0"/>
      </contour>
    </TTGlyph>
    <TTGlyph name="braceright" xMin="-81" yMin="-128" xMax="357" yMax="760">
      <contour>
        <pt x="-81" y="-128" on="1"/>
        <pt x="-68" y="-75" on="1"/>
        <pt x="-40" y="-75" on="1"/>
        <pt x="2" y="-75" on="0"/>
        <pt x="48" y="-31" on="0"/>
        <pt x="61" y="20" on="1"/>
        <pt x="104" y="191" on="1"/>
        <pt x="130" y="296" on="0"/>
        <pt x="238" y="314" on="1"/>
        <pt x="238" y="315" on="1"/>
        <pt x="160" y="331" on="0"/>
        <pt x="160" y="400" on="1"/>
        <pt x="160" y="420" on="0"/>
        <pt x="164" y="439" on="1"/>
        <pt x="209" y="612" on="1"/>
        <pt x="215" y="639" on="0"/>
        <pt x="215" y="656" on="1"/>
        <pt x="204" y="707" on="0"/>
        <pt x="155" y="707" on="1"/>
        <pt x="127" y="707" on="1"/>
        <pt x="140" y="760" on="1"/>
        <pt x="215" y="760" on="1"/>
        <pt x="267" y="760" on="0"/>
        <pt x="321" y="708" on="0"/>
        <pt x="321" y="662" on="1"/>
        <pt x="321" y="640" on="0"/>
        <pt x="315" y="616" on="1"/>
        <pt x="272" y="447" on="1"/>
        <pt x="267" y="428" on="0"/>
        <pt x="267" y="409" on="1"/>
        <pt x="267" y="344" on="0"/>
        <pt x="357" y="339" on="1"/>
        <pt x="344" y="288" on="1"/>
        <pt x="290" y="285" on="0"/>
        <pt x="221" y="240" on="0"/>
        <pt x="207" y="184" on="1"/>
        <pt x="165" y="15" on="1"/>
        <pt x="129" y="-128" on="0"/>
        <pt x="-6" y="-128" on="1"/>
      </contour>
    </TTGlyph>
    <TTGlyph name="bracketleft" xMin="-16" yMin="-128" xMax="428" yMax="760">
      <contour>
        <pt x="-16" y="-128" on="1"/>
        <pt x="205" y="760" on="1"/>
        <pt x="428" y="760" on="1"/>
        <pt x="415" y="703" on="1"/>
        <pt x="299" y="703" on="1"/>
        <pt x="106" y="-71" on="1"/>
        <pt x="222" y="-71" on="1"/>
        <pt x="208" y="-128" on="1"/>
      </contour>
    </TTGlyph>
    <TTGlyph name="bracketright" xMin="-82" yMin="-128" xMax="362" yMax="760">
      <contour>
        <pt x="-82" y="-128" on="1"/>
        <pt x="-69" y="-71" on="1"/>
        <pt x="47" y="-71" on="1"/>
        <pt x="240" y="703" on="1"/>
        <pt x="124" y="703" on="1"/>
        <pt x="138" y="760" on="1"/>
        <pt x="362" y="760" on="1"/>
        <pt x="141" y="-128" on="1"/>
      </contour>
    </TTGlyph>
    <TTGlyph name="brokenbar" xMin="113" yMin="-240" xMax="192" yMax="760">
      <contour>
        <pt x="113" y="160" on="1"/>
        <pt x="192" y="160" on="1"/>
        <pt x="192" y="-240" on="1"/>
        <pt x="113" y="-240" on="1"/>
      </contour>
      <contour>
        <pt x="113" y="360" on="1"/>
        <pt x="113" y="760" on="1"/>
        <pt x="192" y="760" on="1"/>
        <pt x="192" y="360" on="1"/>
      </contour>
    </TTGlyph>
    <TTGlyph name="bullet" xMin="72" yMin="189" xMax="408" yMax="525">
      <contour>
        <pt x="72" y="356" on="1"/>
        <pt x="72" y="429" on="0"/>
        <pt x="174" y="525" on="0"/>
        <pt x="239" y="525" on="1"/>
        <pt x="312" y="525" on="0"/>
        <pt x="408" y="425" on="0"/>
        <pt x="408" y="356" on="1"/>
        <pt x="408" y="291" on="0"/>
        <pt x="311" y="189" on="0"/>
        <pt x="239" y="189" on="1"/>
        <pt x="173" y="189" on="0"/>
        <pt x="72" y="293" on="0"/>
      </contour>
    </TTGlyph>
    <TTGlyph name="c" xMin="17" yMin="-7" xMax="469" yMax="507">
      <contour>
        <pt x="17" y="170" on="1"/>
        <pt x="17" y="249" on="0"/>
        <pt x="93" y="406" on="0"/>
        <pt x="240" y="507" on="0"/>
        <pt x="335" y="507" on="1"/>
        <pt x="395" y="507" on="0"/>
        <pt x="469" y="464" on="0"/>
        <pt x="469" y="426" on="1"/>
        <pt x="469" y="387" on="0"/>
        <pt x="405" y="339" on="0"/>
        <pt x="358" y="339" on="1"/>
        <pt x="354" y="360" on="0"/>
        <pt x="346" y="417" on="0"/>
        <pt x="340" y="445" on="0"/>
        <pt x="328" y="457" on="0"/>
        <pt x="315" y="457" on="1"/>
        <pt x="256" y="457" on="0"/>
        <pt x="154" y="295" on="0"/>
        <pt x="154" y="178" on="1"/>
        <pt x="154" y="54" on="0"/>
        <pt x="254" y="54" on="1"/>
        <pt x="308" y="54" on="0"/>
        <pt x="375" y="81" on="1"/>
        <pt x="388" y="42" on="1"/>
        <pt x="355" y="25" on="0"/>
        <pt x="311" y="8" on="0"/>
        <pt x="243" y="-7" on="0"/>
        <pt x="197" y="-7" on="1"/>
        <pt x="113" y="-7" on="0"/>
        <pt x="17" y="85" on="0"/>
      </contour>
    </TTGlyph>
    <TTGlyph name="caron" xMin="13" yMin="596" xMax="359" yMax="786">
      <contour>
        <pt x="13" y="762" on="1"/>
        <pt x="87" y="786" on="1"/>
        <pt x="155" y="676" on="1"/>
        <pt x="289" y="786" on="1"/>
        <pt x="359" y="762" on="1"/>
        <pt x="198" y="596" on="1"/>
        <pt x="85" y="596" on="1"/>
      </contour>
    </TTGlyph>
    <TTGlyph name="caron.case" xMin="-2" yMin="777" xMax="358" yMax="923">
      <contour>
        <pt x="-2" y="899" on="1"/>
        <pt x="66" y="923" on="1"/>
        <pt x="161" y="858" on="1"/>
        <pt x="290" y="923" on="1"/>
        <pt x="358" y="899" on="1"/>
        <pt x="203" y="777" on="1"/>
        <pt x="94" y="777" on="1"/>
      </contour>
    </TTGlyph>
    <TTGlyph name="ccedilla" xMin="17" yMin="-239" xMax="469" yMax="507">
      <contour>
        <pt x="106" y="-229" on="1"/>
        <pt x="121" y="-181" on="1"/>
        <pt x="136" y="-184" on="0"/>
        <pt x="158" y="-184" on="1"/>
        <pt x="190" y="-184" on="0"/>
        <pt x="241" y="-156" on="0"/>
        <pt x="241" y="-125" on="1"/>
        <pt x="241" y="-76" on="0"/>
        <pt x="182" y="-76" on="1"/>
        <pt x="218" y="-7" on="1"/>
        <pt x="197" y="-7" on="1"/>
        <pt x="113" y="-7" on="0"/>
        <pt x="17" y="85" on="0"/>
        <pt x="17" y="170" on="1"/>
        <pt x="17" y="249" on="0"/>
        <pt x="93" y="406" on="0"/>
        <pt x="240" y="507" on="0"/>
        <pt x="335" y="507" on="1"/>
        <pt x="395" y="507" on="0"/>
        <pt x="469" y="464" on="0"/>
        <pt x="469" y="426" on="1"/>
        <pt x="469" y="387" on="0"/>
        <pt x="405" y="339" on="0"/>
        <pt x="358" y="339" on="1"/>
        <pt x="354" y="360" on="0"/>
        <pt x="346" y="417" on="0"/>
        <pt x="340" y="445" on="0"/>
        <pt x="328" y="457" on="0"/>
        <pt x="315" y="457" on="1"/>
        <pt x="256" y="457" on="0"/>
        <pt x="154" y="295" on="0"/>
        <pt x="154" y="178" on="1"/>
        <pt x="154" y="54" on="0"/>
        <pt x="254" y="54" on="1"/>
        <pt x="308" y="54" on="0"/>
        <pt x="375" y="81" on="1"/>
        <pt x="388" y="42" on="1"/>
        <pt x="355" y="25" on="0"/>
        <pt x="333" y="16" on="1"/>
        <pt x="314" y="9" on="0"/>
        <pt x="287" y="2" on="1"/>
        <pt x="266" y="-41" on="1"/>
        <pt x="301" y="-43" on="0"/>
        <pt x="344" y="-78" on="0"/>
        <pt x="344" y="-110" on="1"/>
        <pt x="344" y="-172" on="0"/>
        <pt x="241" y="-239" on="0"/>
        <pt x="175" y="-239" on="1"/>
        <pt x="139" y="-239" on="0"/>
      </contour>
    </TTGlyph>
    <TTGlyph name="cedilla" xMin="-1" yMin="-239" xMax="237" yMax="9">
      <contour>
        <pt x="-1" y="-229" on="1"/>
        <pt x="14" y="-181" on="1"/>
        <pt x="29" y="-184" on="0"/>
        <pt x="51" y="-184" on="1"/>
        <pt x="83" y="-184" on="0"/>
        <pt x="134" y="-156" on="0"/>
        <pt x="134" y="-125" on="1"/>
        <pt x="134" y="-76" on="0"/>
        <pt x="75" y="-76" on="1"/>
        <pt x="119" y="9" on="1"/>
        <pt x="183" y="9" on="1"/>
        <pt x="159" y="-41" on="1"/>
        <pt x="194" y="-43" on="0"/>
        <pt x="237" y="-78" on="0"/>
        <pt x="237" y="-110" on="1"/>
        <pt x="237" y="-172" on="0"/>
        <pt x="134" y="-239" on="0"/>
        <pt x="68" y="-239" on="1"/>
        <pt x="32" y="-239" on="0"/>
      </contour>
    </TTGlyph>
    <TTGlyph name="cent" xMin="30" yMin="-140" xMax="482" yMax="648">
      <contour>
        <pt x="134" y="-140" on="1"/>
        <pt x="168" y="-3" on="1"/>
        <pt x="113" y="5" on="0"/>
        <pt x="78" y="39" on="1"/>
        <pt x="30" y="85" on="0"/>
        <pt x="30" y="170" on="1"/>
        <pt x="30" y="248" on="0"/>
        <pt x="104" y="403" on="0"/>
        <pt x="177" y="455" on="1"/>
        <pt x="232" y="492" on="0"/>
        <pt x="293" y="502" on="1"/>
        <pt x="330" y="648" on="1"/>
        <pt x="400" y="648" on="1"/>
        <pt x="364" y="506" on="1"/>
        <pt x="410" y="504" on="0"/>
        <pt x="445" y="485" on="1"/>
        <pt x="482" y="462" on="0"/>
        <pt x="482" y="426" on="1"/>
        <pt x="482" y="387" on="0"/>
        <pt x="418" y="339" on="0"/>
        <pt x="371" y="339" on="1"/>
        <pt x="367" y="360" on="0"/>
        <pt x="359" y="417" on="0"/>
        <pt x="354" y="440" on="0"/>
        <pt x="350" y="447" on="1"/>
        <pt x="252" y="54" on="1"/>
        <pt x="259" y="54" on="0"/>
        <pt x="267" y="54" on="1"/>
        <pt x="321" y="54" on="0"/>
        <pt x="388" y="81" on="1"/>
        <pt x="401" y="42" on="1"/>
        <pt x="369" y="26" on="0"/>
        <pt x="324" y="8" on="0"/>
        <pt x="267" y="-4" on="0"/>
        <pt x="237" y="-6" on="1"/>
        <pt x="204" y="-140" on="1"/>
      </contour>
      <contour>
        <pt x="218" y="378" on="1"/>
        <pt x="167" y="295" on="0"/>
        <pt x="167" y="178" on="1"/>
        <pt x="167" y="116" on="0"/>
        <pt x="190" y="86" on="1"/>
        <pt x="278" y="441" on="1"/>
        <pt x="247" y="423" on="0"/>
      </contour>
    </TTGlyph>
    <TTGlyph name="circumflex" xMin="-7" yMin="570" xMax="338" yMax="788">
      <contour>
        <pt x="-7" y="594" on="1"/>
        <pt x="154" y="788" on="1"/>
        <pt x="267" y="788" on="1"/>
        <pt x="338" y="594" on="1"/>
        <pt x="265" y="570" on="1"/>
        <pt x="197" y="709" on="1"/>
        <pt x="62" y="570" on="1"/>
      </contour>
    </TTGlyph>
    <TTGlyph name="circumflex.case" xMin="13" yMin="772" xMax="373" yMax="918">
      <contour>
        <pt x="13" y="796" on="1"/>
        <pt x="167" y="918" on="1"/>
        <pt x="276" y="918" on="1"/>
        <pt x="373" y="796" on="1"/>
        <pt x="305" y="772" on="1"/>
        <pt x="209" y="837" on="1"/>
        <pt x="81" y="772" on="1"/>
      </contour>
    </TTGlyph>
    <TTGlyph name="colon" xMin="13" yMin="-7" xMax="270" yMax="479">
      <contour>
        <pt x="13" y="78" on="1"/>
        <pt x="13" y="115" on="0"/>
        <pt x="65" y="164" on="0"/>
        <pt x="98" y="164" on="1"/>
        <pt x="135" y="164" on="0"/>
        <pt x="184" y="113" on="0"/>
        <pt x="184" y="78" on="1"/>
        <pt x="184" y="45" on="0"/>
        <pt x="134" y="-7" on="0"/>
        <pt x="98" y="-7" on="1"/>
        <pt x="64" y="-7" on="0"/>
        <pt x="13" y="46" on="0"/>
      </contour>
      <contour>
        <pt x="99" y="393" on="1"/>
        <pt x="99" y="430" on="0"/>
        <pt x="151" y="479" on="0"/>
        <pt x="184" y="479" on="1"/>
        <pt x="221" y="479" on="0"/>
        <pt x="270" y="428" on="0"/>
        <pt x="270" y="393" on="1"/>
        <pt x="270" y="360" on="0"/>
        <pt x="220" y="308" on="0"/>
        <pt x="184" y="308" on="1"/>
        <pt x="150" y="308" on="0"/>
        <pt x="99" y="361" on="0"/>
      </contour>
    </TTGlyph>
    <TTGlyph name="comma" xMin="-68" yMin="-171" xMax="163" yMax="164">
      <contour>
        <pt x="-68" y="-129" on="1"/>
        <pt x="15" y="-61" on="0"/>
        <pt x="49" y="21" on="1"/>
        <pt x="-8" y="79" on="1"/>
        <pt x="-8" y="114" on="0"/>
        <pt x="43" y="164" on="0"/>
        <pt x="78" y="164" on="1"/>
        <pt x="114" y="164" on="0"/>
        <pt x="163" y="115" on="0"/>
        <pt x="163" y="79" on="1"/>
        <pt x="163" y="5" on="0"/>
        <pt x="34" y="-135" on="0"/>
        <pt x="-35" y="-171" on="1"/>
      </contour>
    </TTGlyph>
    <TTGlyph name="copyright" xMin="77" yMin="-17" xMax="826" yMax="732">
      <contour>
        <pt x="186" y="92" on="1"/>
        <pt x="77" y="201" on="0"/>
        <pt x="77" y="357" on="1"/>
        <pt x="77" y="434" on="0"/>
        <pt x="136" y="570" on="0"/>
        <pt x="238" y="672" on="0"/>
        <pt x="374" y="732" on="0"/>
        <pt x="451" y="732" on="1"/>
        <pt x="528" y="732" on="0"/>
        <pt x="664" y="672" on="0"/>
        <pt x="766" y="570" on="0"/>
        <pt x="826" y="434" on="0"/>
        <pt x="826" y="357" on="1"/>
        <pt x="826" y="280" on="0"/>
        <pt x="766" y="144" on="0"/>
        <pt x="664" y="42" on="0"/>
        <pt x="528" y="-17" on="0"/>
        <pt x="451" y="-17" on="1"/>
        <pt x="295" y="-17" on="0"/>
      </contour>
      <contour>
        <pt x="451" y="656" on="1"/>
        <pt x="389" y="656" on="0"/>
        <pt x="281" y="609" on="0"/>
        <pt x="200" y="528" on="0"/>
        <pt x="153" y="419" on="0"/>
        <pt x="153" y="357" on="1"/>
        <pt x="153" y="295" on="0"/>
        <pt x="199" y="186" on="0"/>
        <pt x="280" y="105" on="0"/>
        <pt x="389" y="59" on="0"/>
        <pt x="451" y="59" on="1"/>
        <pt x="513" y="59" on="0"/>
        <pt x="622" y="106" on="0"/>
        <pt x="703" y="187" on="0"/>
        <pt x="750" y="295" on="0"/>
        <pt x="750" y="357" on="1"/>
        <pt x="750" y="419" on="0"/>
        <pt x="703" y="528" on="0"/>
        <pt x="622" y="609" on="0"/>
        <pt x="513" y="656" on="0"/>
      </contour>
      <contour>
        <pt x="237" y="357" on="1"/>
        <pt x="237" y="466" on="0"/>
        <pt x="357" y="583" on="0"/>
        <pt x="471" y="583" on="1"/>
        <pt x="539" y="583" on="0"/>
        <pt x="592" y="558" on="1"/>
        <pt x="592" y="442" on="1"/>
        <pt x="544" y="442" on="1"/>
        <pt x="522" y="520" on="1"/>
        <pt x="480" y="523" on="0"/>
        <pt x="479" y="523" on="1"/>
        <pt x="413" y="523" on="0"/>
        <pt x="354" y="441" on="0"/>
        <pt x="354" y="357" on="1"/>
        <pt x="354" y="275" on="0"/>
        <pt x="412" y="192" on="0"/>
        <pt x="476" y="192" on="1"/>
        <pt x="489" y="192" on="0"/>
        <pt x="508" y="192" on="0"/>
        <pt x="513" y="193" on="1"/>
        <pt x="553" y="278" on="1"/>
        <pt x="600" y="278" on="1"/>
        <pt x="584" y="163" on="1"/>
        <pt x="523" y="131" on="0"/>
        <pt x="461" y="131" on="1"/>
        <pt x="355" y="131" on="0"/>
        <pt x="237" y="249" on="0"/>
      </contour>
    </TTGlyph>
    <TTGlyph name="currency" xMin="32" yMin="118" xMax="590" yMax="606">
      <contour>
        <pt x="32" y="173" on="1"/>
        <pt x="110" y="239" on="1"/>
        <pt x="98" y="267" on="0"/>
        <pt x="98" y="309" on="1"/>
        <pt x="98" y="404" on="0"/>
        <pt x="175" y="490" on="1"/>
        <pt x="129" y="555" on="1"/>
        <pt x="187" y="598" on="1"/>
        <pt x="231" y="536" on="1"/>
        <pt x="292" y="577" on="0"/>
        <pt x="364" y="577" on="1"/>
        <pt x="424" y="577" on="0"/>
        <pt x="468" y="542" on="1"/>
        <pt x="547" y="606" on="1"/>
        <pt x="590" y="550" on="1"/>
        <pt x="512" y="485" on="1"/>
        <pt x="523" y="450" on="0"/>
        <pt x="523" y="420" on="1"/>
        <pt x="523" y="395" on="0"/>
        <pt x="511" y="342" on="0"/>
        <pt x="489" y="292" on="0"/>
        <pt x="459" y="247" on="0"/>
        <pt x="441" y="229" on="1"/>
        <pt x="487" y="163" on="1"/>
        <pt x="431" y="120" on="1"/>
        <pt x="385" y="181" on="1"/>
        <pt x="326" y="142" on="0"/>
        <pt x="261" y="142" on="1"/>
        <pt x="195" y="142" on="0"/>
        <pt x="152" y="181" on="1"/>
        <pt x="76" y="118" on="1"/>
      </contour>
      <contour>
        <pt x="191" y="331" on="1"/>
        <pt x="191" y="279" on="0"/>
        <pt x="241" y="216" on="0"/>
        <pt x="286" y="216" on="1"/>
        <pt x="314" y="216" on="0"/>
        <pt x="365" y="246" on="0"/>
        <pt x="402" y="294" on="0"/>
        <pt x="424" y="354" on="0"/>
        <pt x="424" y="384" on="1"/>
        <pt x="424" y="435" on="0"/>
        <pt x="374" y="500" on="0"/>
        <pt x="329" y="500" on="1"/>
        <pt x="300" y="500" on="0"/>
        <pt x="250" y="471" on="0"/>
        <pt x="212" y="423" on="0"/>
        <pt x="191" y="362" on="0"/>
      </contour>
    </TTGlyph>
    <TTGlyph name="d" xMin="17" yMin="-7" xMax="598" yMax="807">
      <contour>
        <pt x="17" y="137" on="1"/>
        <pt x="17" y="299" on="0"/>
        <pt x="212" y="507" on="0"/>
        <pt x="347" y="507" on="1"/>
        <pt x="380" y="507" on="0"/>
        <pt x="407" y="501" on="1"/>
        <pt x="461" y="721" on="1"/>
        <pt x="364" y="721" on="1"/>
        <pt x="364" y="763" on="1"/>
        <pt x="526" y="807" on="0"/>
        <pt x="555" y="807" on="1"/>
        <pt x="598" y="807" on="0"/>
        <pt x="598" y="777" on="1"/>
        <pt x="598" y="763" on="0"/>
        <pt x="587" y="721" on="1"/>
        <pt x="429" y="79" on="1"/>
        <pt x="523" y="79" on="1"/>
        <pt x="523" y="37" on="1"/>
        <pt x="469" y="21" on="0"/>
        <pt x="348" y="-7" on="0"/>
        <pt x="329" y="-7" on="1"/>
        <pt x="291" y="-7" on="0"/>
        <pt x="291" y="24" on="1"/>
        <pt x="291" y="42" on="0"/>
        <pt x="302" y="84" on="1"/>
        <pt x="222" y="-7" on="0"/>
        <pt x="127" y="-7" on="1"/>
        <pt x="81" y="-7" on="0"/>
        <pt x="17" y="64" on="0"/>
      </contour>
      <contour>
        <pt x="149" y="155" on="1"/>
        <pt x="148" y="72" on="0"/>
        <pt x="190" y="72" on="1"/>
        <pt x="226" y="72" on="0"/>
        <pt x="301" y="140" on="0"/>
        <pt x="331" y="194" on="1"/>
        <pt x="394" y="449" on="1"/>
        <pt x="378" y="453" on="0"/>
        <pt x="357" y="453" on="1"/>
        <pt x="299" y="453" on="0"/>
        <pt x="200" y="353" on="0"/>
        <pt x="149" y="217" on="0"/>
      </contour>
    </TTGlyph>
    <TTGlyph name="degree" xMin="108" yMin="455" xMax="417" yMax="763">
      <contour>
        <pt x="262" y="455" on="1"/>
        <pt x="230" y="455" on="0"/>
        <pt x="174" y="479" on="0"/>
        <pt x="132" y="521" on="0"/>
        <pt x="108" y="577" on="0"/>
        <pt x="108" y="609" on="1"/>
        <pt x="108" y="641" on="0"/>
        <pt x="132" y="697" on="0"/>
        <pt x="174" y="739" on="0"/>
        <pt x="230" y="763" on="0"/>
        <pt x="262" y="763" on="1"/>
        <pt x="294" y="763" on="0"/>
        <pt x="350" y="738" on="0"/>
        <pt x="392" y="696" on="0"/>
        <pt x="417" y="640" on="0"/>
        <pt x="417" y="609" on="1"/>
        <pt x="417" y="577" on="0"/>
        <pt x="392" y="521" on="0"/>
        <pt x="350" y="479" on="0"/>
        <pt x="294" y="455" on="0"/>
      </contour>
      <contour>
        <pt x="262" y="540" on="1"/>
        <pt x="291" y="540" on="0"/>
        <pt x="332" y="581" on="0"/>
        <pt x="332" y="609" on="1"/>
        <pt x="332" y="637" on="0"/>
        <pt x="290" y="678" on="0"/>
        <pt x="262" y="678" on="1"/>
        <pt x="234" y="678" on="0"/>
        <pt x="193" y="637" on="0"/>
        <pt x="193" y="609" on="1"/>
        <pt x="193" y="581" on="0"/>
        <pt x="234" y="540" on="0"/>
      </contour>
    </TTGlyph>
    <TTGlyph name="dieresis" xMin="61" yMin="602" xMax="439" yMax="760">
      <contour>
        <pt x="61" y="680" on="1"/>
        <pt x="61" y="715" on="0"/>
        <pt x="107" y="760" on="0"/>
        <pt x="139" y="760" on="1"/>
        <pt x="174" y="760" on="0"/>
        <pt x="219" y="715" on="0"/>
        <pt x="219" y="680" on="1"/>
        <pt x="219" y="648" on="0"/>
        <pt x="174" y="602" on="0"/>
        <pt x="139" y="602" on="1"/>
        <pt x="107" y="602" on="0"/>
        <pt x="61" y="648" on="0"/>
      </contour>
      <contour>
        <pt x="281" y="680" on="1"/>
        <pt x="281" y="715" on="0"/>
        <pt x="327" y="760" on="0"/>
        <pt x="359" y="760" on="1"/>
        <pt x="394" y="760" on="0"/>
        <pt x="439" y="715" on="0"/>
        <pt x="439" y="680" on="1"/>
        <pt x="439" y="648" on="0"/>
        <pt x="394" y="602" on="0"/>
        <pt x="359" y="602" on="1"/>
        <pt x="327" y="602" on="0"/>
        <pt x="281" y="648" on="0"/>
      </contour>
    </TTGlyph>
    <TTGlyph name="dieresis.case" xMin="45" yMin="768" xMax="413" yMax="926">
      <contour>
        <pt x="45" y="846" on="1"/>
        <pt x="45" y="881" on="0"/>
        <pt x="91" y="926" on="0"/>
        <pt x="123" y="926" on="1"/>
        <pt x="158" y="926" on="0"/>
        <pt x="203" y="881" on="0"/>
        <pt x="203" y="846" on="1"/>
        <pt x="203" y="814" on="0"/>
        <pt x="158" y="768" on="0"/>
        <pt x="123" y="768" on="1"/>
        <pt x="91" y="768" on="0"/>
        <pt x="45" y="814" on="0"/>
      </contour>
      <contour>
        <pt x="255" y="846" on="1"/>
        <pt x="255" y="881" on="0"/>
        <pt x="301" y="926" on="0"/>
        <pt x="333" y="926" on="1"/>
        <pt x="368" y="926" on="0"/>
        <pt x="413" y="881" on="0"/>
        <pt x="413" y="846" on="1"/>
        <pt x="413" y="814" on="0"/>
        <pt x="368" y="768" on="0"/>
        <pt x="333" y="768" on="1"/>
        <pt x="301" y="768" on="0"/>
        <pt x="255" y="814" on="0"/>
      </contour>
    </TTGlyph>
    <TTGlyph name="divide" xMin="69" yMin="82" xMax="518" yMax="637">
      <contour>
        <pt x="207" y="551" on="1"/>
        <pt x="207" y="588" on="0"/>
        <pt x="259" y="637" on="0"/>
        <pt x="292" y="637" on="1"/>
        <pt x="329" y="637" on="0"/>
        <pt x="378" y="586" on="0"/>
        <pt x="378" y="551" on="1"/>
        <pt x="378" y="518" on="0"/>
        <pt x="328" y="466" on="0"/>
        <pt x="292" y="466" on="1"/>
        <pt x="258" y="466" on="0"/>
        <pt x="207" y="519" on="0"/>
      </contour>
      <contour>
        <pt x="207" y="167" on="1"/>
        <pt x="207" y="204" on="0"/>
        <pt x="259" y="253" on="0"/>
        <pt x="292" y="253" on="1"/>
        <pt x="329" y="253" on="0"/>
        <pt x="378" y="202" on="0"/>
        <pt x="378" y="167" on="1"/>
        <pt x="378" y="134" on="0"/>
        <pt x="328" y="82" on="0"/>
        <pt x="292" y="82" on="1"/>
        <pt x="258" y="82" on="0"/>
        <pt x="207" y="135" on="0"/>
      </contour>
      <contour>
        <pt x="69" y="316" on="1"/>
        <pt x="69" y="398" on="1"/>
        <pt x="518" y="398" on="1"/>
        <pt x="518" y="316" on="1"/>
      </contour>
    </TTGlyph>
    <TTGlyph name="dollar" xMin="4" yMin="-83" xMax="564" yMax="777">
      <contour>
        <pt x="156" y="-83" on="1"/>
        <pt x="175" y="-5" on="1"/>
        <pt x="80" y="2" on="0"/>
        <pt x="4" y="40" on="1"/>
        <pt x="60" y="224" on="1"/>
        <pt x="114" y="224" on="1"/>
        <pt x="114" y="73" on="1"/>
        <pt x="151" y="60" on="0"/>
        <pt x="191" y="57" on="1"/>
        <pt x="255" y="316" on="1"/>
        <pt x="210" y="351" on="1"/>
        <pt x="172" y="381" on="0"/>
        <pt x="118" y="462" on="0"/>
        <pt x="118" y="514" on="1"/>
        <pt x="118" y="603" on="0"/>
        <pt x="193" y="656" on="1"/>
        <pt x="259" y="701" on="0"/>
        <pt x="352" y="706" on="1"/>
        <pt x="370" y="777" on="1"/>
        <pt x="447" y="777" on="1"/>
        <pt x="429" y="705" on="1"/>
        <pt x="507" y="699" on="0"/>
        <pt x="564" y="676" on="1"/>
        <pt x="509" y="492" on="1"/>
        <pt x="456" y="492" on="1"/>
        <pt x="456" y="638" on="1"/>
        <pt x="441" y="641" on="0"/>
        <pt x="413" y="642" on="1"/>
        <pt x="351" y="396" on="1"/>
        <pt x="360" y="390" on="0"/>
        <pt x="398" y="361" on="0"/>
        <pt x="456" y="309" on="0"/>
        <pt x="497" y="233" on="0"/>
        <pt x="497" y="187" on="1"/>
        <pt x="497" y="100" on="0"/>
        <pt x="365" y="0" on="0"/>
        <pt x="251" y="-6" on="1"/>
        <pt x="232" y="-83" on="1"/>
      </contour>
      <contour>
        <pt x="318" y="79" on="1"/>
        <pt x="344" y="91" on="0"/>
        <pt x="374" y="136" on="0"/>
        <pt x="374" y="167" on="1"/>
        <pt x="374" y="204" on="0"/>
        <pt x="347" y="236" on="1"/>
        <pt x="334" y="252" on="0"/>
        <pt x="319" y="266" on="1"/>
        <pt x="268" y="63" on="1"/>
        <pt x="294" y="68" on="0"/>
      </contour>
      <contour>
        <pt x="278" y="617" on="1"/>
        <pt x="231" y="591" on="0"/>
        <pt x="231" y="539" on="1"/>
        <pt x="231" y="510" on="0"/>
        <pt x="250" y="483" on="1"/>
        <pt x="265" y="462" on="0"/>
        <pt x="287" y="444" on="1"/>
        <pt x="335" y="638" on="1"/>
        <pt x="305" y="631" on="0"/>
      </contour>
    </TTGlyph>
    <TTGlyph name="dotlessi" xMin="37" yMin="-7" xMax="273" yMax="507">
      <contour>
        <pt x="37" y="421" on="1"/>
        <pt x="37" y="463" on="1"/>
        <pt x="181" y="507" on="0"/>
        <pt x="222" y="507" on="1"/>
        <pt x="270" y="507" on="0"/>
        <pt x="270" y="472" on="1"/>
        <pt x="270" y="459" on="0"/>
        <pt x="260" y="419" on="1"/>
        <pt x="175" y="78" on="1"/>
        <pt x="273" y="78" on="1"/>
        <pt x="273" y="37" on="1"/>
        <pt x="218" y="20" on="0"/>
        <pt x="122" y="-7" on="0"/>
        <pt x="86" y="-7" on="1"/>
        <pt x="40" y="-7" on="0"/>
        <pt x="40" y="32" on="1"/>
        <pt x="40" y="42" on="0"/>
        <pt x="49" y="80" on="1"/>
        <pt x="135" y="421" on="1"/>
      </contour>
    </TTGlyph>
    <TTGlyph name="e" xMin="16" yMin="-7" xMax="473" yMax="507">
      <contour>
        <pt x="16" y="162" on="1"/>
        <pt x="16" y="226" on="0"/>
        <pt x="59" y="347" on="0"/>
        <pt x="138" y="446" on="0"/>
        <pt x="263" y="507" on="0"/>
        <pt x="338" y="507" on="1"/>
        <pt x="405" y="507" on="0"/>
        <pt x="473" y="450" on="0"/>
        <pt x="473" y="407" on="1"/>
        <pt x="473" y="319" on="0"/>
        <pt x="376" y="263" on="1"/>
        <pt x="290" y="214" on="0"/>
        <pt x="150" y="192" on="1"/>
        <pt x="150" y="172" on="1"/>
        <pt x="150" y="118" on="0"/>
        <pt x="198" y="54" on="0"/>
        <pt x="245" y="54" on="1"/>
        <pt x="300" y="54" on="0"/>
        <pt x="370" y="79" on="1"/>
        <pt x="383" y="41" on="1"/>
        <pt x="294" y="-7" on="0"/>
        <pt x="192" y="-7" on="1"/>
        <pt x="109" y="-7" on="0"/>
        <pt x="16" y="80" on="0"/>
      </contour>
      <contour>
        <pt x="346" y="417" on="1"/>
        <pt x="346" y="457" on="0"/>
        <pt x="307" y="457" on="1"/>
        <pt x="256" y="457" on="0"/>
        <pt x="209" y="388" on="1"/>
        <pt x="167" y="327" on="0"/>
        <pt x="154" y="246" on="1"/>
        <pt x="346" y="318" on="0"/>
      </contour>
    </TTGlyph>
    <TTGlyph name="eacute" xMin="16" yMin="-7" xMax="484" yMax="794">
      <component glyphName="e" x="0" y="0" flags="0x204"/>
      <component glyphName="acute" x="249" y="0" flags="0x4"/>
    </TTGlyph>
    <TTGlyph name="ecircumflex" xMin="16" yMin="-7" xMax="473" yMax="788">
      <component glyphName="e" x="0" y="0" flags="0x204"/>
      <component glyphName="circumflex" x="110" y="0" flags="0x4"/>
    </TTGlyph>
    <TTGlyph name="edieresis" xMin="16" yMin="-7" xMax="495" yMax="760">
      <component glyphName="e" x="0" y="0" flags="0x204"/>
      <component glyphName="dieresis" x="56" y="0" flags="0x4"/>
    </TTGlyph>
    <TTGlyph name="egrave" xMin="16" yMin="-7" xMax="473" yMax="796">
      <component glyphName="e" x="0" y="0" flags="0x204"/>
      <component glyphName="grave" x="210" y="0" flags="0x4"/>
    </TTGlyph>
    <TTGlyph name="eight" xMin="35" yMin="-7" xMax="554" yMax="708">
      <contour>
        <pt x="35" y="129" on="1"/>
        <pt x="35" y="201" on="0"/>
        <pt x="142" y="328" on="0"/>
        <pt x="212" y="369" on="1"/>
        <pt x="139" y="435" on="0"/>
        <pt x="139" y="509" on="1"/>
        <pt x="139" y="594" on="0"/>
        <pt x="278" y="708" on="0"/>
        <pt x="374" y="708" on="1"/>
        <pt x="456" y="708" on="0"/>
        <pt x="554" y="639" on="0"/>
        <pt x="554" y="577" on="1"/>
        <pt x="554" y="513" on="0"/>
        <pt x="469" y="415" on="0"/>
        <pt x="403" y="377" on="1"/>
        <pt x="444" y="341" on="0"/>
        <pt x="465" y="308" on="1"/>
        <pt x="491" y="267" on="0"/>
        <pt x="491" y="215" on="1"/>
        <pt x="491" y="119" on="0"/>
        <pt x="337" y="-7" on="0"/>
        <pt x="220" y="-7" on="1"/>
        <pt x="141" y="-7" on="0"/>
        <pt x="35" y="60" on="0"/>
      </contour>
      <contour>
        <pt x="148" y="146" on="1"/>
        <pt x="148" y="105" on="0"/>
        <pt x="199" y="51" on="0"/>
        <pt x="243" y="51" on="1"/>
        <pt x="300" y="51" on="0"/>
        <pt x="380" y="123" on="0"/>
        <pt x="380" y="169" on="1"/>
        <pt x="380" y="182" on="0"/>
        <pt x="373" y="207" on="0"/>
        <pt x="364" y="227" on="0"/>
        <pt x="354" y="240" on="1"/>
        <pt x="331" y="271" on="0"/>
        <pt x="261" y="327" on="1"/>
        <pt x="221" y="298" on="0"/>
        <pt x="148" y="199" on="0"/>
      </contour>
      <contour>
        <pt x="252" y="554" on="1"/>
        <pt x="252" y="541" on="0"/>
        <pt x="259" y="516" on="0"/>
        <pt x="267" y="503" on="1"/>
        <pt x="288" y="473" on="0"/>
        <pt x="329" y="436" on="0"/>
        <pt x="351" y="418" on="0"/>
        <pt x="354" y="416" on="1"/>
        <pt x="447" y="487" on="0"/>
        <pt x="447" y="563" on="1"/>
        <pt x="447" y="603" on="0"/>
        <pt x="395" y="648" on="0"/>
        <pt x="356" y="648" on="1"/>
        <pt x="314" y="648" on="0"/>
        <pt x="252" y="594" on="0"/>
      </contour>
    </TTGlyph>
    <TTGlyph name="emdash" xMin="53" yMin="231" xMax="1063" yMax="314">
      <contour>
        <pt x="53" y="231" on="1"/>
        <pt x="53" y="314" on="1"/>
        <pt x="1063" y="314" on="1"/>
        <pt x="1063" y="231" on="1"/>
      </contour>
    </TTGlyph>
    <TTGlyph name="endash" xMin="53" yMin="231" xMax="563" yMax="315">
      <contour>
        <pt x="53" y="231" on="1"/>
        <pt x="53" y="315" on="1"/>
        <pt x="563" y="315" on="1"/>
        <pt x="563" y="231" on="1"/>
      </contour>
    </TTGlyph>
    <TTGlyph name="equal" xMin="95" yMin="223" xMax="554" yMax="471">
      <contour>
        <pt x="95" y="223" on="1"/>
        <pt x="95" y="305" on="1"/>
        <pt x="554" y="305" on="1"/>
        <pt x="554" y="223" on="1"/>
      </contour>
      <contour>
        <pt x="95" y="389" on="1"/>
        <pt x="95" y="471" on="1"/>
        <pt x="554" y="471" on="1"/>
        <pt x="554" y="389" on="1"/>
      </contour>
    </TTGlyph>
    <TTGlyph name="eth" xMin="18" yMin="-7" xMax="535" yMax="771">
      <contour>
        <pt x="18" y="186" on="1"/>
        <pt x="18" y="311" on="0"/>
        <pt x="218" y="482" on="0"/>
        <pt x="364" y="482" on="1"/>
        <pt x="381" y="482" on="0"/>
        <pt x="400" y="480" on="1"/>
        <pt x="399" y="501" on="0"/>
        <pt x="398" y="514" on="1"/>
        <pt x="396" y="536" on="0"/>
        <pt x="381" y="582" on="0"/>
        <pt x="373" y="597" on="1"/>
        <pt x="244" y="519" on="1"/>
        <pt x="244" y="597" on="1"/>
        <pt x="333" y="650" on="1"/>
        <pt x="278" y="699" on="0"/>
        <pt x="189" y="699" on="1"/>
        <pt x="204" y="758" on="1"/>
        <pt x="336" y="758" on="0"/>
        <pt x="415" y="701" on="1"/>
        <pt x="529" y="771" on="1"/>
        <pt x="529" y="693" on="1"/>
        <pt x="464" y="653" on="1"/>
        <pt x="496" y="614" on="0"/>
        <pt x="513" y="565" on="1"/>
        <pt x="535" y="503" on="0"/>
        <pt x="535" y="407" on="1"/>
        <pt x="535" y="352" on="0"/>
        <pt x="517" y="244" on="0"/>
        <pt x="471" y="131" on="0"/>
        <pt x="401" y="47" on="0"/>
        <pt x="286" y="-7" on="0"/>
        <pt x="214" y="-7" on="1"/>
        <pt x="122" y="-7" on="0"/>
        <pt x="18" y="98" on="0"/>
      </contour>
      <contour>
        <pt x="153" y="163" on="1"/>
        <pt x="153" y="43" on="0"/>
        <pt x="224" y="43" on="1"/>
        <pt x="266" y="43" on="0"/>
        <pt x="335" y="117" on="0"/>
        <pt x="377" y="237" on="0"/>
        <pt x="388" y="306" on="1"/>
        <pt x="397" y="365" on="0"/>
        <pt x="399" y="425" on="1"/>
        <pt x="383" y="425" on="1"/>
        <pt x="323" y="425" on="0"/>
        <pt x="230" y="375" on="0"/>
        <pt x="179" y="295" on="0"/>
        <pt x="153" y="207" on="0"/>
      </contour>
    </TTGlyph>
    <TTGlyph name="exclam" xMin="19" yMin="-7" xMax="313" yMax="700">
      <contour>
        <pt x="82" y="208" on="1"/>
        <pt x="184" y="700" on="1"/>
        <pt x="313" y="700" on="1"/>
        <pt x="171" y="208" on="1"/>
      </contour>
      <contour>
        <pt x="19" y="78" on="1"/>
        <pt x="19" y="115" on="0"/>
        <pt x="69" y="164" on="0"/>
        <pt x="104" y="164" on="1"/>
        <pt x="141" y="164" on="0"/>
        <pt x="190" y="115" on="0"/>
        <pt x="190" y="78" on="1"/>
        <pt x="190" y="43" on="0"/>
        <pt x="141" y="-7" on="0"/>
        <pt x="104" y="-7" on="1"/>
        <pt x="69" y="-7" on="0"/>
        <pt x="19" y="43" on="0"/>
      </contour>
    </TTGlyph>
    <TTGlyph name="exclamdown" xMin="-39" yMin="-200" xMax="255" yMax="506">
      <component glyphName="exclam" x="274" y="500" scale="-0.999938964844" flags="0x4"/>
    </TTGlyph>
    <TTGlyph name="f" xMin="-306" yMin="-308" xMax="632" yMax="807">
      <contour>
        <pt x="-306" y="-221" on="1"/>
        <pt x="-306" y="-156" on="0"/>
        <pt x="-215" y="-111" on="1"/>
        <pt x="-212" y="-121" on="0"/>
        <pt x="-164" y="-250" on="0"/>
        <pt x="-121" y="-250" on="1"/>
        <pt x="-80" y="-250" on="0"/>
        <pt x="-9" y="-158" on="0"/>
        <pt x="13" y="-66" on="1"/>
        <pt x="137" y="444" on="1"/>
        <pt x="62" y="444" on="1"/>
        <pt x="74" y="487" on="1"/>
        <pt x="149" y="493" on="1"/>
        <pt x="168" y="573" on="1"/>
        <pt x="222" y="807" on="0"/>
        <pt x="461" y="807" on="1"/>
        <pt x="548" y="807" on="0"/>
        <pt x="632" y="760" on="0"/>
        <pt x="632" y="719" on="1"/>
        <pt x="632" y="687" on="0"/>
        <pt x="582" y="628" on="0"/>
        <pt x="542" y="610" on="1"/>
        <pt x="537" y="626" on="0"/>
        <pt x="486" y="750" on="0"/>
        <pt x="437" y="750" on="1"/>
        <pt x="418" y="750" on="0"/>
        <pt x="384" y="737" on="0"/>
        <pt x="342" y="698" on="0"/>
        <pt x="303" y="612" on="0"/>
        <pt x="287" y="548" on="1"/>
        <pt x="275" y="500" on="1"/>
        <pt x="421" y="512" on="1"/>
        <pt x="404" y="444" on="1"/>
        <pt x="262" y="444" on="1"/>
        <pt x="138" y="-68" on="1"/>
        <pt x="80" y="-308" on="0"/>
        <pt x="-143" y="-308" on="1"/>
        <pt x="-216" y="-308" on="0"/>
        <pt x="-306" y="-264" on="0"/>
      </contour>
    </TTGlyph>
    <TTGlyph name="five" xMin="-38" yMin="-7" xMax="572" yMax="739">
      <contour>
        <pt x="-38" y="35" on="1"/>
        <pt x="-5" y="83" on="1"/>
        <pt x="42" y="58" on="0"/>
        <pt x="112" y="58" on="1"/>
        <pt x="201" y="58" on="0"/>
        <pt x="325" y="177" on="0"/>
        <pt x="325" y="265" on="1"/>
        <pt x="325" y="319" on="0"/>
        <pt x="260" y="382" on="0"/>
        <pt x="202" y="382" on="1"/>
        <pt x="184" y="382" on="0"/>
        <pt x="140" y="378" on="0"/>
        <pt x="123" y="375" on="1"/>
        <pt x="99" y="393" on="1"/>
        <pt x="201" y="700" on="1"/>
        <pt x="400" y="700" on="1"/>
        <pt x="463" y="700" on="0"/>
        <pt x="508" y="715" on="0"/>
        <pt x="531" y="739" on="1"/>
        <pt x="572" y="724" on="1"/>
        <pt x="553" y="683" on="0"/>
        <pt x="526" y="641" on="0"/>
        <pt x="481" y="600" on="0"/>
        <pt x="419" y="585" on="0"/>
        <pt x="372" y="585" on="1"/>
        <pt x="230" y="585" on="1"/>
        <pt x="184" y="442" on="1"/>
        <pt x="233" y="458" on="0"/>
        <pt x="282" y="458" on="1"/>
        <pt x="373" y="458" on="0"/>
        <pt x="465" y="362" on="0"/>
        <pt x="465" y="286" on="1"/>
        <pt x="465" y="170" on="0"/>
        <pt x="271" y="-7" on="0"/>
        <pt x="129" y="-7" on="1"/>
        <pt x="27" y="-6" on="0"/>
      </contour>
    </TTGlyph>
    <TTGlyph name="foundryicon" xMin="51" yMin="138" xMax="1007" yMax="316">
      <contour>
        <pt x="51" y="245" on="1"/>
        <pt x="51" y="278" on="0"/>
        <pt x="86" y="316" on="0"/>
        <pt x="119" y="316" on="1"/>
        <pt x="135" y="316" on="0"/>
        <pt x="158" y="309" on="1"/>
        <pt x="158" y="269" on="1"/>
        <pt x="127" y="269" on="1"/>
        <pt x="127" y="284" on="1"/>
        <pt x="124" y="285" on="0"/>
        <pt x="118" y="285" on="1"/>
        <pt x="89" y="285" on="0"/>
        <pt x="89" y="249" on="1"/>
        <pt x="89" y="212" on="0"/>
        <pt x="126" y="212" on="1"/>
        <pt x="158" y="212" on="1"/>
        <pt x="158" y="187" on="1"/>
        <pt x="140" y="179" on="0"/>
        <pt x="117" y="179" on="1"/>
        <pt x="86" y="179" on="0"/>
        <pt x="51" y="214" on="0"/>
      </contour>
      <contour>
        <pt x="166" y="251" on="1"/>
        <pt x="176" y="251" on="1"/>
        <pt x="200" y="182" on="1"/>
        <pt x="214" y="182" on="1"/>
        <pt x="209" y="171" on="0"/>
        <pt x="193" y="171" on="1"/>
        <pt x="176" y="171" on="1"/>
        <pt x="176" y="145" on="1"/>
        <pt x="183" y="138" on="0"/>
        <pt x="202" y="138" on="1"/>
        <pt x="235" y="138" on="0"/>
        <pt x="245" y="175" on="1"/>
        <pt x="268" y="251" on="1"/>
        <pt x="268" y="282" on="1"/>
        <pt x="225" y="282" on="1"/>
        <pt x="225" y="251" on="1"/>
        <pt x="234" y="251" on="1"/>
        <pt x="223" y="209" on="1"/>
        <pt x="218" y="233" on="1"/>
        <pt x="204" y="282" on="1"/>
        <pt x="166" y="282" on="1"/>
      </contour>
      <contour>
        <pt x="282" y="251" on="1"/>
        <pt x="294" y="251" on="1"/>
        <pt x="294" y="212" on="1"/>
        <pt x="284" y="212" on="1"/>
        <pt x="284" y="182" on="1"/>
        <pt x="346" y="182" on="1"/>
        <pt x="346" y="212" on="1"/>
        <pt x="329" y="212" on="1"/>
        <pt x="329" y="251" on="1"/>
        <pt x="363" y="251" on="1"/>
        <pt x="363" y="282" on="1"/>
        <pt x="357" y="284" on="0"/>
        <pt x="351" y="284" on="1"/>
        <pt x="343" y="284" on="0"/>
        <pt x="336" y="279" on="1"/>
        <pt x="329" y="272" on="0"/>
        <pt x="326" y="266" on="1"/>
        <pt x="316" y="282" on="1"/>
        <pt x="282" y="282" on="1"/>
      </contour>
      <contour>
        <pt x="371" y="230" on="1"/>
        <pt x="371" y="179" on="0"/>
        <pt x="424" y="179" on="1"/>
        <pt x="446" y="179" on="0"/>
        <pt x="461" y="186" on="1"/>
        <pt x="461" y="212" on="1"/>
        <pt x="432" y="212" on="1"/>
        <pt x="411" y="212" on="0"/>
        <pt x="407" y="224" on="1"/>
        <pt x="462" y="224" on="1"/>
        <pt x="464" y="238" on="0"/>
        <pt x="464" y="242" on="1"/>
        <pt x="464" y="260" on="0"/>
        <pt x="440" y="284" on="0"/>
        <pt x="420" y="284" on="1"/>
        <pt x="371" y="284" on="0"/>
      </contour>
      <contour>
        <pt x="406" y="242" on="1"/>
        <pt x="409" y="258" on="0"/>
        <pt x="419" y="258" on="1"/>
        <pt x="431" y="258" on="0"/>
        <pt x="431" y="242" on="1"/>
      </contour>
      <contour>
        <pt x="476" y="210" on="1"/>
        <pt x="476" y="240" on="0"/>
        <pt x="515" y="240" on="1"/>
        <pt x="531" y="240" on="1"/>
        <pt x="531" y="241" on="1"/>
        <pt x="531" y="251" on="0"/>
        <pt x="509" y="251" on="1"/>
        <pt x="484" y="251" on="1"/>
        <pt x="484" y="277" on="1"/>
        <pt x="505" y="284" on="0"/>
        <pt x="520" y="284" on="1"/>
        <pt x="566" y="284" on="0"/>
        <pt x="566" y="246" on="1"/>
        <pt x="566" y="212" on="1"/>
        <pt x="577" y="212" on="1"/>
        <pt x="577" y="185" on="1"/>
        <pt x="570" y="180" on="0"/>
        <pt x="557" y="180" on="1"/>
        <pt x="541" y="180" on="0"/>
        <pt x="535" y="187" on="1"/>
        <pt x="526" y="179" on="0"/>
        <pt x="510" y="179" on="1"/>
        <pt x="495" y="179" on="0"/>
        <pt x="476" y="195" on="0"/>
      </contour>
      <contour>
        <pt x="520" y="204" on="1"/>
        <pt x="527" y="204" on="0"/>
        <pt x="531" y="207" on="1"/>
        <pt x="531" y="222" on="1"/>
        <pt x="523" y="222" on="1"/>
        <pt x="510" y="222" on="0"/>
        <pt x="510" y="204" on="0"/>
      </contour>
      <contour>
        <pt x="577" y="285" on="1"/>
        <pt x="577" y="316" on="1"/>
        <pt x="624" y="316" on="1"/>
        <pt x="624" y="212" on="1"/>
        <pt x="638" y="212" on="1"/>
        <pt x="638" y="184" on="1"/>
        <pt x="629" y="180" on="0"/>
        <pt x="616" y="180" on="1"/>
        <pt x="589" y="180" on="0"/>
        <pt x="589" y="208" on="1"/>
        <pt x="589" y="285" on="1"/>
      </contour>
      <contour>
        <pt x="651" y="199" on="1"/>
        <pt x="651" y="219" on="0"/>
        <pt x="671" y="219" on="1"/>
        <pt x="693" y="219" on="0"/>
        <pt x="693" y="199" on="1"/>
        <pt x="693" y="180" on="0"/>
        <pt x="671" y="180" on="1"/>
        <pt x="651" y="180" on="0"/>
      </contour>
      <contour>
        <pt x="699" y="231" on="1"/>
        <pt x="699" y="256" on="0"/>
        <pt x="726" y="284" on="0"/>
        <pt x="772" y="284" on="0"/>
        <pt x="799" y="257" on="0"/>
        <pt x="799" y="207" on="0"/>
        <pt x="772" y="179" on="0"/>
        <pt x="748" y="179" on="1"/>
        <pt x="699" y="179" on="0"/>
      </contour>
      <contour>
        <pt x="735" y="232" on="1"/>
        <pt x="735" y="206" on="0"/>
        <pt x="763" y="206" on="0"/>
        <pt x="763" y="232" on="1"/>
        <pt x="763" y="256" on="0"/>
        <pt x="735" y="256" on="0"/>
      </contour>
      <contour>
        <pt x="811" y="251" on="1"/>
        <pt x="822" y="251" on="1"/>
        <pt x="822" y="212" on="1"/>
        <pt x="813" y="212" on="1"/>
        <pt x="813" y="182" on="1"/>
        <pt x="875" y="182" on="1"/>
        <pt x="875" y="212" on="1"/>
        <pt x="858" y="212" on="1"/>
        <pt x="858" y="251" on="1"/>
        <pt x="892" y="251" on="1"/>
        <pt x="892" y="282" on="1"/>
        <pt x="886" y="284" on="0"/>
        <pt x="880" y="284" on="1"/>
        <pt x="872" y="284" on="0"/>
        <pt x="865" y="279" on="1"/>
        <pt x="858" y="272" on="0"/>
        <pt x="855" y="266" on="1"/>
        <pt x="845" y="282" on="1"/>
        <pt x="811" y="282" on="1"/>
      </contour>
      <contour>
        <pt x="903" y="189" on="1"/>
        <pt x="903" y="207" on="0"/>
        <pt x="917" y="219" on="1"/>
        <pt x="903" y="227" on="0"/>
        <pt x="903" y="247" on="1"/>
        <pt x="903" y="263" on="0"/>
        <pt x="926" y="284" on="0"/>
        <pt x="946" y="284" on="1"/>
        <pt x="964" y="284" on="0"/>
        <pt x="977" y="274" on="1"/>
        <pt x="985" y="284" on="0"/>
        <pt x="996" y="284" on="1"/>
        <pt x="999" y="284" on="0"/>
        <pt x="1007" y="282" on="1"/>
        <pt x="1007" y="251" on="1"/>
        <pt x="991" y="251" on="1"/>
        <pt x="992" y="249" on="0"/>
        <pt x="992" y="246" on="1"/>
        <pt x="992" y="231" on="0"/>
        <pt x="969" y="211" on="0"/>
        <pt x="947" y="211" on="1"/>
        <pt x="938" y="211" on="0"/>
        <pt x="935" y="212" on="1"/>
        <pt x="935" y="197" on="1"/>
        <pt x="953" y="197" on="1"/>
        <pt x="992" y="197" on="0"/>
        <pt x="992" y="161" on="1"/>
        <pt x="992" y="153" on="0"/>
        <pt x="986" y="138" on="1"/>
        <pt x="959" y="138" on="1"/>
        <pt x="959" y="167" on="1"/>
        <pt x="913" y="167" on="1"/>
        <pt x="903" y="174" on="0"/>
      </contour>
      <contour>
        <pt x="948" y="232" on="1"/>
        <pt x="958" y="232" on="0"/>
        <pt x="958" y="262" on="0"/>
        <pt x="948" y="262" on="1"/>
        <pt x="936" y="262" on="0"/>
        <pt x="936" y="232" on="0"/>
      </contour>
    </TTGlyph>
    <TTGlyph name="four" xMin="-20" yMin="0" xMax="540" yMax="707">
      <contour>
        <pt x="-20" y="177" on="1"/>
        <pt x="-6" y="230" on="1"/>
        <pt x="461" y="707" on="1"/>
        <pt x="540" y="707" on="1"/>
        <pt x="428" y="258" on="1"/>
        <pt x="502" y="258" on="1"/>
        <pt x="482" y="177" on="1"/>
        <pt x="408" y="177" on="1"/>
        <pt x="364" y="0" on="1"/>
        <pt x="237" y="0" on="1"/>
        <pt x="281" y="177" on="1"/>
      </contour>
      <contour>
        <pt x="301" y="258" on="1"/>
        <pt x="362" y="500" on="1"/>
        <pt x="120" y="258" on="1"/>
      </contour>
    </TTGlyph>
    <TTGlyph name="foursuperior" xMin="42" yMin="283" xMax="379" yMax="708">
      <contour>
        <pt x="42" y="396" on="1"/>
        <pt x="50" y="427" on="1"/>
        <pt x="325" y="708" on="1"/>
        <pt x="379" y="708" on="1"/>
        <pt x="315" y="448" on="1"/>
        <pt x="358" y="448" on="1"/>
        <pt x="345" y="396" on="1"/>
        <pt x="301" y="396" on="1"/>
        <pt x="273" y="283" on="1"/>
        <pt x="191" y="283" on="1"/>
        <pt x="220" y="396" on="1"/>
      </contour>
      <contour>
        <pt x="134" y="448" on="1"/>
        <pt x="233" y="448" on="1"/>
        <pt x="266" y="579" on="1"/>
      </contour>
    </TTGlyph>
    <TTGlyph name="fraction" xMin="-84" yMin="0" xMax="521" yMax="715">
      <contour>
        <pt x="-84" y="0" on="1"/>
        <pt x="431" y="715" on="1"/>
        <pt x="521" y="715" on="1"/>
        <pt x="8" y="0" on="1"/>
      </contour>
    </TTGlyph>
    <TTGlyph name="g" xMin="-52" yMin="-308" xMax="525" yMax="507">
      <contour>
        <pt x="-52" y="-219" on="1"/>
        <pt x="-52" y="-154" on="0"/>
        <pt x="39" y="-111" on="1"/>
        <pt x="55" y="-162" on="0"/>
        <pt x="96" y="-250" on="0"/>
        <pt x="131" y="-250" on="1"/>
        <pt x="146" y="-250" on="0"/>
        <pt x="182" y="-237" on="0"/>
        <pt x="219" y="-193" on="0"/>
        <pt x="256" y="-112" on="0"/>
        <pt x="273" y="-43" on="1"/>
        <pt x="305" y="86" on="1"/>
        <pt x="222" y="-7" on="0"/>
        <pt x="129" y="-7" on="1"/>
        <pt x="81" y="-7" on="0"/>
        <pt x="17" y="62" on="0"/>
        <pt x="17" y="137" on="1"/>
        <pt x="17" y="217" on="0"/>
        <pt x="70" y="352" on="0"/>
        <pt x="160" y="451" on="0"/>
        <pt x="280" y="507" on="0"/>
        <pt x="347" y="507" on="1"/>
        <pt x="445" y="507" on="0"/>
        <pt x="525" y="461" on="1"/>
        <pt x="392" y="-68" on="1"/>
        <pt x="332" y="-308" on="0"/>
        <pt x="110" y="-308" on="1"/>
        <pt x="37" y="-308" on="0"/>
        <pt x="-52" y="-264" on="0"/>
      </contour>
      <contour>
        <pt x="148" y="155" on="1"/>
        <pt x="148" y="72" on="0"/>
        <pt x="191" y="72" on="1"/>
        <pt x="255" y="72" on="0"/>
        <pt x="333" y="196" on="1"/>
        <pt x="396" y="449" on="1"/>
        <pt x="381" y="453" on="0"/>
        <pt x="359" y="453" on="1"/>
        <pt x="310" y="453" on="0"/>
        <pt x="232" y="392" on="0"/>
        <pt x="177" y="302" on="0"/>
        <pt x="148" y="198" on="0"/>
      </contour>
    </TTGlyph>
    <TTGlyph name="germandbls" xMin="0" yMin="-7" xMax="625" yMax="807">
      <contour>
        <pt x="0" y="-7" on="1"/>
        <pt x="150" y="573" on="1"/>
        <pt x="182" y="699" on="0"/>
        <pt x="331" y="807" on="0"/>
        <pt x="443" y="807" on="1"/>
        <pt x="527" y="807" on="0"/>
        <pt x="625" y="737" on="0"/>
        <pt x="625" y="674" on="1"/>
        <pt x="625" y="631" on="0"/>
        <pt x="590" y="576" on="0"/>
        <pt x="538" y="538" on="0"/>
        <pt x="476" y="510" on="0"/>
        <pt x="424" y="480" on="0"/>
        <pt x="389" y="439" on="0"/>
        <pt x="389" y="408" on="1"/>
        <pt x="389" y="355" on="0"/>
        <pt x="476" y="281" on="0"/>
        <pt x="524" y="244" on="1"/>
        <pt x="543" y="227" on="0"/>
        <pt x="576" y="173" on="0"/>
        <pt x="576" y="136" on="1"/>
        <pt x="576" y="67" on="0"/>
        <pt x="468" y="-7" on="0"/>
        <pt x="369" y="-7" on="1"/>
        <pt x="180" y="-7" on="0"/>
        <pt x="180" y="75" on="1"/>
        <pt x="180" y="105" on="0"/>
        <pt x="220" y="150" on="0"/>
        <pt x="262" y="179" on="1"/>
        <pt x="306" y="97" on="0"/>
        <pt x="358" y="44" on="0"/>
        <pt x="393" y="44" on="1"/>
        <pt x="424" y="44" on="0"/>
        <pt x="461" y="79" on="0"/>
        <pt x="461" y="106" on="1"/>
        <pt x="461" y="133" on="0"/>
        <pt x="433" y="180" on="0"/>
        <pt x="412" y="196" on="1"/>
        <pt x="366" y="231" on="1"/>
        <pt x="348" y="244" on="0"/>
        <pt x="314" y="273" on="0"/>
        <pt x="287" y="307" on="0"/>
        <pt x="271" y="350" on="0"/>
        <pt x="271" y="379" on="1"/>
        <pt x="271" y="424" on="0"/>
        <pt x="315" y="482" on="0"/>
        <pt x="351" y="503" on="1"/>
        <pt x="421" y="541" on="1"/>
        <pt x="455" y="559" on="0"/>
        <pt x="500" y="618" on="0"/>
        <pt x="500" y="661" on="1"/>
        <pt x="500" y="703" on="0"/>
        <pt x="463" y="753" on="0"/>
        <pt x="427" y="753" on="1"/>
        <pt x="403" y="753" on="0"/>
        <pt x="360" y="734" on="0"/>
        <pt x="321" y="687" on="0"/>
        <pt x="285" y="608" on="0"/>
        <pt x="270" y="548" on="1"/>
        <pt x="128" y="0" on="1"/>
      </contour>
    </TTGlyph>
    <TTGlyph name="grave" xMin="-41" yMin="574" xMax="152" yMax="796">
      <contour>
        <pt x="-41" y="746" on="1"/>
        <pt x="9" y="789" on="0"/>
        <pt x="73" y="796" on="1"/>
        <pt x="152" y="602" on="1"/>
        <pt x="95" y="574" on="1"/>
      </contour>
    </TTGlyph>
    <TTGlyph name="grave.case" xMin="-27" yMin="740" xMax="217" yMax="924">
      <contour>
        <pt x="-27" y="828" on="1"/>
        <pt x="-13" y="860" on="0"/>
        <pt x="34" y="916" on="0"/>
        <pt x="59" y="924" on="1"/>
        <pt x="217" y="778" on="1"/>
        <pt x="193" y="740" on="1"/>
      </contour>
    </TTGlyph>
    <TTGlyph name="greater" xMin="121" yMin="91" xMax="550" yMax="625">
      <contour>
        <pt x="121" y="91" on="1"/>
        <pt x="121" y="186" on="1"/>
        <pt x="440" y="357" on="1"/>
        <pt x="121" y="530" on="1"/>
        <pt x="121" y="625" on="1"/>
        <pt x="550" y="394" on="1"/>
        <pt x="550" y="321" on="1"/>
      </contour>
    </TTGlyph>
    <TTGlyph name="guillemotleft" xMin="35" yMin="80" xMax="441" yMax="460">
      <contour>
        <pt x="35" y="254" on="1"/>
        <pt x="44" y="286" on="1"/>
        <pt x="232" y="460" on="1"/>
        <pt x="303" y="460" on="1"/>
        <pt x="160" y="270" on="1"/>
        <pt x="208" y="80" on="1"/>
        <pt x="137" y="80" on="1"/>
      </contour>
      <contour>
        <pt x="218" y="256" on="1"/>
        <pt x="224" y="284" on="1"/>
        <pt x="375" y="431" on="1"/>
        <pt x="441" y="431" on="1"/>
        <pt x="337" y="270" on="1"/>
        <pt x="355" y="99" on="1"/>
        <pt x="288" y="99" on="1"/>
      </contour>
    </TTGlyph>
    <TTGlyph name="guillemotright" xMin="26" yMin="80" xMax="431" yMax="460">
      <contour>
        <pt x="26" y="109" on="1"/>
        <pt x="130" y="270" on="1"/>
        <pt x="112" y="441" on="1"/>
        <pt x="178" y="441" on="1"/>
        <pt x="249" y="284" on="1"/>
        <pt x="242" y="256" on="1"/>
        <pt x="93" y="109" on="1"/>
      </contour>
      <contour>
        <pt x="164" y="80" on="1"/>
        <pt x="307" y="270" on="1"/>
        <pt x="259" y="460" on="1"/>
        <pt x="330" y="460" on="1"/>
        <pt x="431" y="286" on="1"/>
        <pt x="424" y="254" on="1"/>
        <pt x="236" y="80" on="1"/>
      </contour>
    </TTGlyph>
    <TTGlyph name="guilsinglleft" xMin="35" yMin="80" xMax="303" yMax="460">
      <contour>
        <pt x="35" y="254" on="1"/>
        <pt x="44" y="286" on="1"/>
        <pt x="232" y="460" on="1"/>
        <pt x="303" y="460" on="1"/>
        <pt x="160" y="270" on="1"/>
        <pt x="208" y="80" on="1"/>
        <pt x="137" y="80" on="1"/>
      </contour>
    </TTGlyph>
    <TTGlyph name="guilsinglright" xMin="3" yMin="80" xMax="271" yMax="460">
      <contour>
        <pt x="3" y="80" on="1"/>
        <pt x="147" y="270" on="1"/>
        <pt x="99" y="460" on="1"/>
        <pt x="170" y="460" on="1"/>
        <pt x="271" y="286" on="1"/>
        <pt x="263" y="254" on="1"/>
        <pt x="75" y="80" on="1"/>
      </contour>
    </TTGlyph>
    <TTGlyph name="h" xMin="3" yMin="-7" xMax="529" yMax="807">
      <contour>
        <pt x="3" y="-7" on="1"/>
        <pt x="185" y="722" on="1"/>
        <pt x="88" y="722" on="1"/>
        <pt x="88" y="763" on="1"/>
        <pt x="167" y="784" on="0"/>
        <pt x="272" y="807" on="0"/>
        <pt x="286" y="807" on="1"/>
        <pt x="321" y="807" on="0"/>
        <pt x="321" y="777" on="1"/>
        <pt x="321" y="759" on="0"/>
        <pt x="315" y="737" on="1"/>
        <pt x="228" y="391" on="1"/>
        <pt x="325" y="507" on="0"/>
        <pt x="421" y="507" on="1"/>
        <pt x="467" y="507" on="0"/>
        <pt x="512" y="455" on="0"/>
        <pt x="512" y="411" on="1"/>
        <pt x="512" y="360" on="0"/>
        <pt x="479" y="247" on="1"/>
        <pt x="432" y="80" on="1"/>
        <pt x="529" y="80" on="1"/>
        <pt x="529" y="37" on="1"/>
        <pt x="449" y="16" on="0"/>
        <pt x="344" y="-7" on="0"/>
        <pt x="327" y="-7" on="1"/>
        <pt x="292" y="-7" on="0"/>
        <pt x="292" y="22" on="1"/>
        <pt x="292" y="33" on="0"/>
        <pt x="301" y="62" on="1"/>
        <pt x="340" y="206" on="1"/>
        <pt x="359" y="274" on="0"/>
        <pt x="377" y="333" on="0"/>
        <pt x="388" y="378" on="0"/>
        <pt x="388" y="391" on="1"/>
        <pt x="388" y="417" on="0"/>
        <pt x="366" y="417" on="1"/>
        <pt x="338" y="417" on="0"/>
        <pt x="248" y="346" on="0"/>
        <pt x="202" y="285" on="1"/>
        <pt x="131" y="0" on="1"/>
      </contour>
    </TTGlyph>
    <TTGlyph name="hyphen" xMin="64" yMin="228" xMax="282" yMax="319">
      <contour>
        <pt x="64" y="228" on="1"/>
        <pt x="64" y="319" on="1"/>
        <pt x="282" y="319" on="1"/>
        <pt x="282" y="228" on="1"/>
      </contour>
    </TTGlyph>
    <TTGlyph name="i" xMin="37" yMin="-7" xMax="341" yMax="734">
      <contour>
        <pt x="37" y="421" on="1"/>
        <pt x="37" y="463" on="1"/>
        <pt x="181" y="507" on="0"/>
        <pt x="222" y="507" on="1"/>
        <pt x="270" y="507" on="0"/>
        <pt x="270" y="472" on="1"/>
        <pt x="270" y="459" on="0"/>
        <pt x="260" y="419" on="1"/>
        <pt x="175" y="78" on="1"/>
        <pt x="273" y="78" on="1"/>
        <pt x="273" y="37" on="1"/>
        <pt x="219" y="20" on="0"/>
        <pt x="117" y="-7" on="0"/>
        <pt x="86" y="-7" on="1"/>
        <pt x="41" y="-7" on="0"/>
        <pt x="41" y="32" on="1"/>
        <pt x="41" y="46" on="0"/>
        <pt x="49" y="80" on="1"/>
        <pt x="135" y="421" on="1"/>
      </contour>
      <contour>
        <pt x="171" y="649" on="1"/>
        <pt x="171" y="685" on="0"/>
        <pt x="221" y="734" on="0"/>
        <pt x="256" y="734" on="1"/>
        <pt x="292" y="734" on="0"/>
        <pt x="341" y="685" on="0"/>
        <pt x="341" y="649" on="1"/>
        <pt x="341" y="614" on="0"/>
        <pt x="292" y="564" on="0"/>
        <pt x="256" y="564" on="1"/>
        <pt x="221" y="564" on="0"/>
        <pt x="171" y="614" on="0"/>
      </contour>
    </TTGlyph>
    <TTGlyph name="iacute" xMin="37" yMin="-7" xMax="358" yMax="794">
      <component glyphName="dotlessi" x="0" y="0" flags="0x204"/>
      <component glyphName="acute" x="123" y="0" flags="0x4"/>
    </TTGlyph>
    <TTGlyph name="icircumflex" xMin="17" yMin="-7" xMax="362" yMax="788">
      <component glyphName="dotlessi" x="0" y="0" flags="0x204"/>
      <component glyphName="circumflex" x="24" y="0" flags="0x4"/>
    </TTGlyph>
    <TTGlyph name="idieresis" xMin="1" yMin="-7" xMax="379" yMax="760">
      <component glyphName="dotlessi" x="0" y="0" flags="0x204"/>
      <component glyphName="dieresis" x="-60" y="0" flags="0x4"/>
    </TTGlyph>
    <TTGlyph name="igrave" xMin="37" yMin="-7" xMax="273" yMax="796">
      <component glyphName="dotlessi" x="0" y="0" flags="0x204"/>
      <component glyphName="grave" x="93" y="0" flags="0x4"/>
    </TTGlyph>
    <TTGlyph name="j" xMin="-294" yMin="-308" xMax="344" yMax="734">
      <contour>
        <pt x="-294" y="-221" on="1"/>
        <pt x="-294" y="-154" on="0"/>
        <pt x="-203" y="-111" on="1"/>
        <pt x="-200" y="-121" on="0"/>
        <pt x="-152" y="-250" on="0"/>
        <pt x="-113" y="-250" on="1"/>
        <pt x="-77" y="-250" on="0"/>
        <pt x="5" y="-159" on="0"/>
        <pt x="33" y="-43" on="1"/>
        <pt x="146" y="422" on="1"/>
        <pt x="49" y="422" on="1"/>
        <pt x="49" y="463" on="1"/>
        <pt x="195" y="507" on="0"/>
        <pt x="237" y="507" on="1"/>
        <pt x="281" y="507" on="0"/>
        <pt x="281" y="469" on="1"/>
        <pt x="281" y="454" on="0"/>
        <pt x="273" y="422" on="1"/>
        <pt x="153" y="-68" on="1"/>
        <pt x="136" y="-135" on="0"/>
        <pt x="75" y="-232" on="0"/>
        <pt x="-4" y="-284" on="0"/>
        <pt x="-86" y="-308" on="0"/>
        <pt x="-132" y="-308" on="1"/>
        <pt x="-205" y="-308" on="0"/>
        <pt x="-294" y="-263" on="0"/>
      </contour>
      <contour>
        <pt x="174" y="649" on="1"/>
        <pt x="174" y="685" on="0"/>
        <pt x="224" y="734" on="0"/>
        <pt x="259" y="734" on="1"/>
        <pt x="295" y="734" on="0"/>
        <pt x="344" y="685" on="0"/>
        <pt x="344" y="649" on="1"/>
        <pt x="344" y="614" on="0"/>
        <pt x="295" y="564" on="0"/>
        <pt x="259" y="564" on="1"/>
        <pt x="224" y="564" on="0"/>
        <pt x="174" y="614" on="0"/>
      </contour>
    </TTGlyph>
    <TTGlyph name="k" xMin="3" yMin="-7" xMax="498" yMax="807">
      <contour>
        <pt x="3" y="-7" on="1"/>
        <pt x="185" y="721" on="1"/>
        <pt x="88" y="721" on="1"/>
        <pt x="88" y="763" on="1"/>
        <pt x="233" y="807" on="0"/>
        <pt x="275" y="807" on="1"/>
        <pt x="319" y="807" on="0"/>
        <pt x="319" y="771" on="1"/>
        <pt x="319" y="753" on="0"/>
        <pt x="311" y="721" on="1"/>
        <pt x="131" y="0" on="1"/>
      </contour>
      <contour>
        <pt x="214" y="260" on="1"/>
        <pt x="385" y="338" on="0"/>
        <pt x="385" y="403" on="1"/>
        <pt x="385" y="428" on="0"/>
        <pt x="349" y="479" on="1"/>
        <pt x="384" y="507" on="0"/>
        <pt x="425" y="507" on="1"/>
        <pt x="458" y="507" on="0"/>
        <pt x="498" y="468" on="0"/>
        <pt x="498" y="439" on="1"/>
        <pt x="498" y="383" on="0"/>
        <pt x="451" y="339" on="1"/>
        <pt x="415" y="305" on="0"/>
        <pt x="345" y="262" on="1"/>
        <pt x="376" y="190" on="1"/>
        <pt x="410" y="107" on="0"/>
        <pt x="452" y="48" on="0"/>
        <pt x="490" y="33" on="1"/>
        <pt x="477" y="-7" on="1"/>
        <pt x="396" y="-7" on="0"/>
        <pt x="311" y="34" on="0"/>
        <pt x="280" y="104" on="1"/>
      </contour>
    </TTGlyph>
    <TTGlyph name="l" xMin="22" yMin="-7" xMax="327" yMax="807">
      <contour>
        <pt x="22" y="32" on="1"/>
        <pt x="22" y="44" on="0"/>
        <pt x="31" y="80" on="1"/>
        <pt x="191" y="721" on="1"/>
        <pt x="94" y="721" on="1"/>
        <pt x="94" y="763" on="1"/>
        <pt x="237" y="807" on="0"/>
        <pt x="279" y="807" on="1"/>
        <pt x="327" y="807" on="0"/>
        <pt x="327" y="771" on="1"/>
        <pt x="327" y="759" on="0"/>
        <pt x="317" y="719" on="1"/>
        <pt x="156" y="78" on="1"/>
        <pt x="255" y="78" on="1"/>
        <pt x="255" y="37" on="1"/>
        <pt x="200" y="20" on="0"/>
        <pt x="101" y="-7" on="0"/>
        <pt x="68" y="-7" on="1"/>
        <pt x="22" y="-7" on="0"/>
      </contour>
    </TTGlyph>
    <TTGlyph name="less" xMin="61" yMin="91" xMax="490" yMax="625">
      <contour>
        <pt x="61" y="321" on="1"/>
        <pt x="61" y="394" on="1"/>
        <pt x="490" y="625" on="1"/>
        <pt x="490" y="530" on="1"/>
        <pt x="171" y="357" on="1"/>
        <pt x="490" y="186" on="1"/>
        <pt x="490" y="91" on="1"/>
      </contour>
    </TTGlyph>
    <TTGlyph name="logicalnot" xMin="69" yMin="123" xMax="505" yMax="397">
      <contour>
        <pt x="69" y="318" on="1"/>
        <pt x="69" y="397" on="1"/>
        <pt x="505" y="397" on="1"/>
        <pt x="505" y="123" on="1"/>
        <pt x="425" y="123" on="1"/>
        <pt x="425" y="318" on="1"/>
      </contour>
    </TTGlyph>
    <TTGlyph name="m" xMin="25" yMin="-7" xMax="821" yMax="507">
      <contour>
        <pt x="25" y="-7" on="1"/>
        <pt x="133" y="421" on="1"/>
        <pt x="35" y="421" on="1"/>
        <pt x="35" y="463" on="1"/>
        <pt x="114" y="484" on="0"/>
        <pt x="219" y="507" on="0"/>
        <pt x="235" y="507" on="1"/>
        <pt x="270" y="507" on="0"/>
        <pt x="270" y="477" on="1"/>
        <pt x="270" y="459" on="0"/>
        <pt x="264" y="437" on="1"/>
        <pt x="253" y="397" on="1"/>
        <pt x="344" y="507" on="0"/>
        <pt x="433" y="507" on="1"/>
        <pt x="529" y="507" on="0"/>
        <pt x="529" y="407" on="1"/>
        <pt x="529" y="401" on="0"/>
        <pt x="528" y="394" on="1"/>
        <pt x="616" y="507" on="0"/>
        <pt x="714" y="507" on="1"/>
        <pt x="808" y="507" on="0"/>
        <pt x="808" y="407" on="1"/>
        <pt x="808" y="394" on="0"/>
        <pt x="802" y="354" on="0"/>
        <pt x="795" y="327" on="1"/>
        <pt x="777" y="250" on="0"/>
        <pt x="723" y="80" on="1"/>
        <pt x="821" y="80" on="1"/>
        <pt x="821" y="37" on="1"/>
        <pt x="741" y="16" on="0"/>
        <pt x="638" y="-7" on="0"/>
        <pt x="618" y="-7" on="1"/>
        <pt x="582" y="-7" on="0"/>
        <pt x="582" y="22" on="1"/>
        <pt x="582" y="30" on="0"/>
        <pt x="592" y="65" on="1"/>
        <pt x="660" y="297" on="1"/>
        <pt x="669" y="330" on="0"/>
        <pt x="679" y="376" on="0"/>
        <pt x="679" y="387" on="1"/>
        <pt x="679" y="418" on="0"/>
        <pt x="657" y="418" on="1"/>
        <pt x="626" y="418" on="0"/>
        <pt x="575" y="372" on="1"/>
        <pt x="539" y="340" on="0"/>
        <pt x="507" y="291" on="1"/>
        <pt x="428" y="0" on="1"/>
        <pt x="300" y="-7" on="1"/>
        <pt x="376" y="273" on="1"/>
        <pt x="400" y="362" on="0"/>
        <pt x="400" y="387" on="1"/>
        <pt x="400" y="418" on="0"/>
        <pt x="376" y="418" on="1"/>
        <pt x="346" y="418" on="0"/>
        <pt x="293" y="371" on="1"/>
        <pt x="259" y="340" on="0"/>
        <pt x="226" y="292" on="1"/>
        <pt x="153" y="0" on="1"/>
      </contour>
    </TTGlyph>
    <TTGlyph name="minus" xMin="91" yMin="316" xMax="540" yMax="398">
      <contour>
        <pt x="91" y="316" on="1"/>
        <pt x="91" y="398" on="1"/>
        <pt x="540" y="398" on="1"/>
        <pt x="540" y="316" on="1"/>
      </contour>
    </TTGlyph>
    <TTGlyph name="mu" xMin="-27" yMin="-248" xMax="584" yMax="500">
      <contour>
        <pt x="-27" y="-197" on="1"/>
        <pt x="-27" y="-186" on="0"/>
        <pt x="-23" y="-170" on="1"/>
        <pt x="145" y="500" on="1"/>
        <pt x="273" y="500" on="1"/>
        <pt x="189" y="162" on="1"/>
        <pt x="183" y="134" on="0"/>
        <pt x="183" y="118" on="1"/>
        <pt x="183" y="67" on="0"/>
        <pt x="238" y="67" on="1"/>
        <pt x="291" y="67" on="0"/>
        <pt x="358" y="108" on="1"/>
        <pt x="455" y="500" on="1"/>
        <pt x="584" y="500" on="1"/>
        <pt x="496" y="146" on="1"/>
        <pt x="491" y="126" on="0"/>
        <pt x="491" y="114" on="1"/>
        <pt x="491" y="76" on="0"/>
        <pt x="540" y="76" on="1"/>
        <pt x="551" y="76" on="1"/>
        <pt x="542" y="40" on="1"/>
        <pt x="471" y="-7" on="0"/>
        <pt x="406" y="-7" on="1"/>
        <pt x="373" y="-7" on="0"/>
        <pt x="344" y="18" on="0"/>
        <pt x="344" y="45" on="1"/>
        <pt x="344" y="49" on="1"/>
        <pt x="266" y="-7" on="0"/>
        <pt x="190" y="-7" on="1"/>
        <pt x="132" y="-7" on="0"/>
        <pt x="107" y="26" on="1"/>
        <pt x="84" y="-49" on="0"/>
        <pt x="84" y="-114" on="1"/>
        <pt x="84" y="-138" on="0"/>
        <pt x="98" y="-167" on="0"/>
        <pt x="120" y="-187" on="1"/>
        <pt x="121" y="-188" on="0"/>
        <pt x="99" y="-217" on="0"/>
        <pt x="51" y="-248" on="0"/>
        <pt x="25" y="-248" on="1"/>
        <pt x="-27" y="-248" on="0"/>
      </contour>
    </TTGlyph>
    <TTGlyph name="multiply" xMin="97" yMin="137" xMax="537" yMax="578">
      <contour>
        <pt x="97" y="195" on="1"/>
        <pt x="260" y="357" on="1"/>
        <pt x="97" y="520" on="1"/>
        <pt x="154" y="577" on="1"/>
        <pt x="317" y="415" on="1"/>
        <pt x="480" y="578" on="1"/>
        <pt x="537" y="521" on="1"/>
        <pt x="374" y="357" on="1"/>
        <pt x="537" y="194" on="1"/>
        <pt x="480" y="137" on="1"/>
        <pt x="317" y="300" on="1"/>
        <pt x="155" y="138" on="1"/>
      </contour>
    </TTGlyph>
    <TTGlyph name="n" xMin="25" yMin="-7" xMax="551" yMax="507">
      <contour>
        <pt x="25" y="-7" on="1"/>
        <pt x="132" y="421" on="1"/>
        <pt x="36" y="421" on="1"/>
        <pt x="36" y="463" on="1"/>
        <pt x="115" y="484" on="0"/>
        <pt x="220" y="507" on="0"/>
        <pt x="234" y="507" on="1"/>
        <pt x="269" y="507" on="0"/>
        <pt x="269" y="477" on="1"/>
        <pt x="269" y="458" on="0"/>
        <pt x="264" y="437" on="1"/>
        <pt x="252" y="393" on="1"/>
        <pt x="347" y="507" on="0"/>
        <pt x="443" y="507" on="1"/>
        <pt x="489" y="507" on="0"/>
        <pt x="534" y="455" on="0"/>
        <pt x="534" y="411" on="1"/>
        <pt x="534" y="360" on="0"/>
        <pt x="501" y="247" on="1"/>
        <pt x="453" y="80" on="1"/>
        <pt x="551" y="80" on="1"/>
        <pt x="551" y="37" on="1"/>
        <pt x="470" y="16" on="0"/>
        <pt x="365" y="-7" on="0"/>
        <pt x="349" y="-7" on="1"/>
        <pt x="314" y="-7" on="0"/>
        <pt x="314" y="22" on="1"/>
        <pt x="314" y="33" on="0"/>
        <pt x="323" y="62" on="1"/>
        <pt x="390" y="304" on="1"/>
        <pt x="398" y="332" on="0"/>
        <pt x="409" y="378" on="0"/>
        <pt x="409" y="391" on="1"/>
        <pt x="409" y="417" on="0"/>
        <pt x="388" y="417" on="1"/>
        <pt x="360" y="417" on="0"/>
        <pt x="270" y="346" on="0"/>
        <pt x="224" y="285" on="1"/>
        <pt x="153" y="0" on="1"/>
      </contour>
    </TTGlyph>
    <TTGlyph name="nine" xMin="58" yMin="-8" xMax="549" yMax="707">
      <contour>
        <pt x="58" y="49" on="1"/>
        <pt x="181" y="81" on="0"/>
        <pt x="339" y="219" on="0"/>
        <pt x="388" y="321" on="1"/>
        <pt x="302" y="267" on="0"/>
        <pt x="233" y="267" on="1"/>
        <pt x="153" y="267" on="0"/>
        <pt x="73" y="360" on="0"/>
        <pt x="73" y="436" on="1"/>
        <pt x="73" y="556" on="0"/>
        <pt x="230" y="707" on="0"/>
        <pt x="355" y="707" on="1"/>
        <pt x="445" y="707" on="0"/>
        <pt x="549" y="598" on="0"/>
        <pt x="549" y="503" on="1"/>
        <pt x="549" y="313" on="0"/>
        <pt x="276" y="16" on="0"/>
        <pt x="65" y="-8" on="1"/>
      </contour>
      <contour>
        <pt x="211" y="459" on="1"/>
        <pt x="211" y="408" on="0"/>
        <pt x="256" y="348" on="0"/>
        <pt x="300" y="348" on="1"/>
        <pt x="347" y="348" on="0"/>
        <pt x="403" y="379" on="1"/>
        <pt x="411" y="383" on="1"/>
        <pt x="428" y="443" on="0"/>
        <pt x="428" y="501" on="1"/>
        <pt x="428" y="568" on="0"/>
        <pt x="382" y="647" on="0"/>
        <pt x="341" y="647" on="1"/>
        <pt x="287" y="647" on="0"/>
        <pt x="211" y="531" on="0"/>
      </contour>
    </TTGlyph>
    <TTGlyph name="nonbreakingspace" xMin="0" yMin="0" xMax="0" yMax="0">
      <component glyphName="space" x="0" y="0" flags="0x204"/>
    </TTGlyph>
    <TTGlyph name="ntilde" xMin="25" yMin="-7" xMax="570" yMax="753">
      <component glyphName="n" x="0" y="0" flags="0x204"/>
      <component glyphName="tilde" x="144" y="0" flags="0x4"/>
    </TTGlyph>
    <TTGlyph name="numbersign" xMin="24" yMin="0" xMax="581" yMax="708">
      <contour>
        <pt x="24" y="0" on="1"/>
        <pt x="98" y="191" on="1"/>
        <pt x="25" y="191" on="1"/>
        <pt x="44" y="274" on="1"/>
        <pt x="131" y="274" on="1"/>
        <pt x="199" y="446" on="1"/>
        <pt x="106" y="446" on="1"/>
        <pt x="125" y="529" on="1"/>
        <pt x="231" y="529" on="1"/>
        <pt x="301" y="708" on="1"/>
        <pt x="385" y="708" on="1"/>
        <pt x="314" y="529" on="1"/>
        <pt x="416" y="529" on="1"/>
        <pt x="486" y="708" on="1"/>
        <pt x="570" y="708" on="1"/>
        <pt x="499" y="529" on="1"/>
        <pt x="581" y="529" on="1"/>
        <pt x="563" y="446" on="1"/>
        <pt x="467" y="446" on="1"/>
        <pt x="399" y="274" on="1"/>
        <pt x="500" y="274" on="1"/>
        <pt x="482" y="191" on="1"/>
        <pt x="366" y="191" on="1"/>
        <pt x="291" y="0" on="1"/>
        <pt x="208" y="0" on="1"/>
        <pt x="283" y="191" on="1"/>
        <pt x="181" y="191" on="1"/>
        <pt x="106" y="0" on="1"/>
      </contour>
      <contour>
        <pt x="214" y="274" on="1"/>
        <pt x="316" y="274" on="1"/>
        <pt x="384" y="446" on="1"/>
        <pt x="282" y="446" on="1"/>
      </contour>
    </TTGlyph>
    <TTGlyph name="o" xMin="18" yMin="-7" xMax="511" yMax="507">
      <contour>
        <pt x="18" y="176" on="1"/>
        <pt x="18" y="237" on="0"/>
        <pt x="64" y="356" on="0"/>
        <pt x="146" y="449" on="0"/>
        <pt x="261" y="507" on="0"/>
        <pt x="330" y="507" on="1"/>
        <pt x="414" y="507" on="0"/>
        <pt x="511" y="408" on="0"/>
        <pt x="511" y="323" on="1"/>
        <pt x="511" y="264" on="0"/>
        <pt x="469" y="146" on="0"/>
        <pt x="388" y="52" on="0"/>
        <pt x="272" y="-7" on="0"/>
        <pt x="197" y="-7" on="1"/>
        <pt x="18" y="-7" on="0"/>
      </contour>
      <contour>
        <pt x="153" y="158" on="1"/>
        <pt x="153" y="43" on="0"/>
        <pt x="209" y="43" on="1"/>
        <pt x="250" y="43" on="0"/>
        <pt x="312" y="103" on="0"/>
        <pt x="353" y="193" on="0"/>
        <pt x="374" y="297" on="0"/>
        <pt x="374" y="341" on="1"/>
        <pt x="374" y="457" on="0"/>
        <pt x="318" y="457" on="1"/>
        <pt x="290" y="457" on="0"/>
        <pt x="244" y="427" on="0"/>
        <pt x="208" y="379" on="0"/>
        <pt x="180" y="316" on="0"/>
        <pt x="162" y="249" on="0"/>
        <pt x="153" y="184" on="0"/>
      </contour>
    </TTGlyph>
    <TTGlyph name="oacute" xMin="18" yMin="-7" xMax="511" yMax="794">
      <component glyphName="o" x="0" y="0" flags="0x204"/>
      <component glyphName="acute" x="238" y="0" flags="0x4"/>
    </TTGlyph>
    <TTGlyph name="ocircumflex" xMin="18" yMin="-7" xMax="511" yMax="788">
      <component glyphName="o" x="0" y="0" flags="0x204"/>
      <component glyphName="circumflex" x="168" y="0" flags="0x4"/>
    </TTGlyph>
    <TTGlyph name="odieresis" xMin="18" yMin="-7" xMax="523" yMax="760">
      <component glyphName="o" x="0" y="0" flags="0x204"/>
      <component glyphName="dieresis" x="84" y="0" flags="0x4"/>
    </TTGlyph>
    <TTGlyph name="oe" xMin="18" yMin="-7" xMax="828" yMax="507">
      <contour>
        <pt x="18" y="176" on="1"/>
        <pt x="18" y="312" on="0"/>
        <pt x="197" y="507" on="0"/>
        <pt x="331" y="507" on="1"/>
        <pt x="388" y="507" on="0"/>
        <pt x="464" y="461" on="0"/>
        <pt x="484" y="425" on="1"/>
        <pt x="515" y="454" on="0"/>
        <pt x="556" y="475" on="1"/>
        <pt x="618" y="507" on="0"/>
        <pt x="688" y="507" on="1"/>
        <pt x="828" y="507" on="0"/>
        <pt x="828" y="407" on="1"/>
        <pt x="828" y="362" on="0"/>
        <pt x="770" y="289" on="0"/>
        <pt x="666" y="238" on="0"/>
        <pt x="565" y="208" on="0"/>
        <pt x="501" y="194" on="1"/>
        <pt x="500" y="187" on="0"/>
        <pt x="500" y="172" on="1"/>
        <pt x="500" y="102" on="0"/>
        <pt x="542" y="52" on="0"/>
        <pt x="593" y="52" on="1"/>
        <pt x="654" y="52" on="0"/>
        <pt x="725" y="79" on="1"/>
        <pt x="736" y="43" on="1"/>
        <pt x="645" y="-7" on="0"/>
        <pt x="542" y="-7" on="1"/>
        <pt x="428" y="-7" on="0"/>
        <pt x="390" y="67" on="1"/>
        <pt x="368" y="45" on="0"/>
        <pt x="264" y="-7" on="0"/>
        <pt x="198" y="-7" on="1"/>
        <pt x="109" y="-7" on="0"/>
        <pt x="18" y="87" on="0"/>
      </contour>
      <contour>
        <pt x="154" y="158" on="1"/>
        <pt x="153" y="43" on="0"/>
        <pt x="213" y="43" on="1"/>
        <pt x="259" y="43" on="0"/>
        <pt x="337" y="148" on="0"/>
        <pt x="376" y="283" on="0"/>
        <pt x="376" y="341" on="1"/>
        <pt x="376" y="457" on="0"/>
        <pt x="317" y="457" on="1"/>
        <pt x="277" y="457" on="0"/>
        <pt x="212" y="395" on="0"/>
        <pt x="174" y="301" on="0"/>
        <pt x="154" y="201" on="0"/>
      </contour>
      <contour>
        <pt x="506" y="243" on="1"/>
        <pt x="582" y="269" on="0"/>
        <pt x="697" y="364" on="0"/>
        <pt x="697" y="422" on="1"/>
        <pt x="697" y="459" on="0"/>
        <pt x="664" y="459" on="1"/>
        <pt x="609" y="459" on="0"/>
        <pt x="523" y="336" on="0"/>
      </contour>
    </TTGlyph>
    <TTGlyph name="ograve" xMin="18" yMin="-7" xMax="511" yMax="796">
      <component glyphName="o" x="0" y="0" flags="0x204"/>
      <component glyphName="grave" x="218" y="0" flags="0x4"/>
    </TTGlyph>
    <TTGlyph name="one" xMin="50" yMin="0" xMax="361" yMax="708">
      <contour>
        <pt x="50" y="0" on="1"/>
        <pt x="202" y="594" on="1"/>
        <pt x="93" y="550" on="1"/>
        <pt x="85" y="596" on="1"/>
        <pt x="311" y="708" on="1"/>
        <pt x="361" y="708" on="1"/>
        <pt x="184" y="0" on="1"/>
      </contour>
    </TTGlyph>
    <TTGlyph name="onehalf" xMin="67" yMin="0" xMax="739" yMax="707">
      <component glyphName="slash" x="105" y="0" flags="0x4"/>
      <component glyphName="onesuperior" x="21" y="0" flags="0x4"/>
      <component glyphName="twosuperior" x="357" y="-282" flags="0x4"/>
    </TTGlyph>
    <TTGlyph name="onequarter" xMin="67" yMin="0" xMax="681" yMax="707">
      <component glyphName="slash" x="105" y="0" flags="0x4"/>
      <component glyphName="onesuperior" x="21" y="0" flags="0x4"/>
      <component glyphName="foursuperior" x="302" y="-282" flags="0x4"/>
    </TTGlyph>
    <TTGlyph name="onesuperior" xMin="94" yMin="283" xMax="290" yMax="707">
      <contour>
        <pt x="94" y="283" on="1"/>
        <pt x="181" y="626" on="1"/>
        <pt x="109" y="596" on="1"/>
        <pt x="99" y="636" on="1"/>
        <pt x="243" y="707" on="1"/>
        <pt x="290" y="707" on="1"/>
        <pt x="184" y="283" on="1"/>
      </contour>
    </TTGlyph>
    <TTGlyph name="ordfeminine" xMin="92" yMin="387" xMax="414" yMax="708">
      <contour>
        <pt x="92" y="477" on="1"/>
        <pt x="92" y="524" on="0"/>
        <pt x="126" y="608" on="0"/>
        <pt x="184" y="671" on="0"/>
        <pt x="259" y="708" on="0"/>
        <pt x="301" y="708" on="1"/>
        <pt x="370" y="708" on="0"/>
        <pt x="414" y="679" on="1"/>
        <pt x="354" y="446" on="1"/>
        <pt x="413" y="446" on="1"/>
        <pt x="413" y="415" on="1"/>
        <pt x="373" y="403" on="0"/>
        <pt x="310" y="387" on="0"/>
        <pt x="290" y="387" on="1"/>
        <pt x="262" y="387" on="0"/>
        <pt x="262" y="409" on="1"/>
        <pt x="262" y="419" on="0"/>
        <pt x="266" y="431" on="1"/>
        <pt x="270" y="445" on="1"/>
        <pt x="227" y="387" on="0"/>
        <pt x="168" y="387" on="1"/>
        <pt x="92" y="387" on="0"/>
      </contour>
      <contour>
        <pt x="186" y="491" on="1"/>
        <pt x="186" y="444" on="0"/>
        <pt x="210" y="444" on="1"/>
        <pt x="227" y="444" on="0"/>
        <pt x="272" y="489" on="0"/>
        <pt x="290" y="524" on="1"/>
        <pt x="328" y="667" on="1"/>
        <pt x="320" y="670" on="0"/>
        <pt x="306" y="670" on="1"/>
        <pt x="280" y="670" on="0"/>
        <pt x="236" y="639" on="0"/>
        <pt x="204" y="588" on="0"/>
        <pt x="186" y="524" on="0"/>
      </contour>
    </TTGlyph>
    <TTGlyph name="ordmasculine" xMin="92" yMin="387" xMax="427" yMax="708">
      <contour>
        <pt x="92" y="500" on="1"/>
        <pt x="92" y="585" on="0"/>
        <pt x="215" y="708" on="0"/>
        <pt x="299" y="708" on="1"/>
        <pt x="361" y="708" on="0"/>
        <pt x="427" y="646" on="0"/>
        <pt x="427" y="595" on="1"/>
        <pt x="427" y="511" on="0"/>
        <pt x="306" y="387" on="0"/>
        <pt x="220" y="387" on="1"/>
        <pt x="157" y="387" on="0"/>
        <pt x="92" y="449" on="0"/>
      </contour>
      <contour>
        <pt x="193" y="486" on="1"/>
        <pt x="193" y="426" on="0"/>
        <pt x="228" y="426" on="1"/>
        <pt x="266" y="426" on="0"/>
        <pt x="327" y="548" on="0"/>
        <pt x="327" y="609" on="1"/>
        <pt x="327" y="640" on="0"/>
        <pt x="311" y="669" on="0"/>
        <pt x="291" y="669" on="1"/>
        <pt x="252" y="669" on="0"/>
        <pt x="193" y="549" on="0"/>
      </contour>
    </TTGlyph>
    <TTGlyph name="oslash" xMin="18" yMin="-71" xMax="511" yMax="569">
      <contour>
        <pt x="45" y="-71" on="1"/>
        <pt x="92" y="16" on="1"/>
        <pt x="18" y="58" on="0"/>
        <pt x="18" y="176" on="1"/>
        <pt x="18" y="259" on="0"/>
        <pt x="96" y="410" on="0"/>
        <pt x="242" y="507" on="0"/>
        <pt x="330" y="507" on="1"/>
        <pt x="346" y="507" on="0"/>
        <pt x="361" y="505" on="1"/>
        <pt x="396" y="569" on="1"/>
        <pt x="472" y="569" on="1"/>
        <pt x="426" y="484" on="1"/>
        <pt x="446" y="473" on="0"/>
        <pt x="462" y="457" on="1"/>
        <pt x="511" y="407" on="0"/>
        <pt x="511" y="239" on="0"/>
        <pt x="436" y="90" on="0"/>
        <pt x="290" y="-7" on="0"/>
        <pt x="197" y="-7" on="1"/>
        <pt x="176" y="-7" on="0"/>
        <pt x="158" y="-4" on="1"/>
        <pt x="122" y="-71" on="1"/>
      </contour>
      <contour>
        <pt x="209" y="43" on="1"/>
        <pt x="248" y="43" on="0"/>
        <pt x="314" y="103" on="0"/>
        <pt x="353" y="194" on="0"/>
        <pt x="374" y="295" on="0"/>
        <pt x="374" y="341" on="1"/>
        <pt x="374" y="366" on="0"/>
        <pt x="371" y="385" on="1"/>
        <pt x="187" y="48" on="1"/>
        <pt x="197" y="43" on="0"/>
      </contour>
      <contour>
        <pt x="153" y="158" on="1"/>
        <pt x="153" y="142" on="0"/>
        <pt x="154" y="128" on="1"/>
        <pt x="333" y="454" on="1"/>
        <pt x="326" y="457" on="0"/>
        <pt x="318" y="457" on="1"/>
        <pt x="267" y="457" on="0"/>
        <pt x="188" y="351" on="0"/>
        <pt x="153" y="217" on="0"/>
      </contour>
    </TTGlyph>
    <TTGlyph name="otilde" xMin="18" yMin="-7" xMax="520" yMax="753">
      <component glyphName="o" x="0" y="0" flags="0x204"/>
      <component glyphName="tilde" x="94" y="0" flags="0x4"/>
    </TTGlyph>
    <TTGlyph name="p" xMin="-50" yMin="-300" xMax="545" yMax="507">
      <contour>
        <pt x="-50" y="-300" on="1"/>
        <pt x="133" y="421" on="1"/>
        <pt x="36" y="421" on="1"/>
        <pt x="36" y="463" on="1"/>
        <pt x="116" y="484" on="0"/>
        <pt x="221" y="507" on="0"/>
        <pt x="235" y="507" on="1"/>
        <pt x="270" y="507" on="0"/>
        <pt x="270" y="477" on="1"/>
        <pt x="270" y="459" on="0"/>
        <pt x="264" y="437" on="1"/>
        <pt x="259" y="416" on="1"/>
        <pt x="338" y="507" on="0"/>
        <pt x="433" y="507" on="1"/>
        <pt x="481" y="507" on="0"/>
        <pt x="545" y="436" on="0"/>
        <pt x="545" y="363" on="1"/>
        <pt x="545" y="204" on="0"/>
        <pt x="352" y="-7" on="0"/>
        <pt x="214" y="-7" on="1"/>
        <pt x="182" y="-7" on="0"/>
        <pt x="152" y="-1" on="1"/>
        <pt x="79" y="-285" on="1"/>
      </contour>
      <contour>
        <pt x="165" y="50" on="1"/>
        <pt x="189" y="46" on="0"/>
        <pt x="204" y="46" on="1"/>
        <pt x="264" y="46" on="0"/>
        <pt x="364" y="150" on="0"/>
        <pt x="413" y="283" on="0"/>
        <pt x="413" y="341" on="1"/>
        <pt x="413" y="428" on="0"/>
        <pt x="370" y="428" on="1"/>
        <pt x="306" y="428" on="0"/>
        <pt x="232" y="310" on="1"/>
      </contour>
    </TTGlyph>
    <TTGlyph name="paragraph" xMin="98" yMin="-112" xMax="679" yMax="760">
      <contour>
        <pt x="98" y="517" on="1"/>
        <pt x="98" y="614" on="0"/>
        <pt x="248" y="760" on="0"/>
        <pt x="372" y="760" on="1"/>
        <pt x="679" y="760" on="1"/>
        <pt x="667" y="712" on="1"/>
        <pt x="582" y="692" on="1"/>
        <pt x="382" y="-112" on="1"/>
        <pt x="304" y="-112" on="1"/>
        <pt x="503" y="687" on="1"/>
        <pt x="433" y="687" on="1"/>
        <pt x="235" y="-112" on="1"/>
        <pt x="157" y="-112" on="1"/>
        <pt x="279" y="376" on="1"/>
        <pt x="270" y="376" on="1"/>
        <pt x="185" y="376" on="0"/>
        <pt x="98" y="451" on="0"/>
      </contour>
    </TTGlyph>
    <TTGlyph name="parenleft" xMin="2" yMin="-304" xMax="436" yMax="805">
      <contour>
        <pt x="2" y="81" on="1"/>
        <pt x="2" y="287" on="0"/>
        <pt x="223" y="680" on="0"/>
        <pt x="405" y="805" on="1"/>
        <pt x="436" y="763" on="1"/>
        <pt x="122" y="486" on="0"/>
        <pt x="122" y="66" on="1"/>
        <pt x="122" y="-111" on="0"/>
        <pt x="198" y="-266" on="1"/>
        <pt x="156" y="-304" on="1"/>
        <pt x="2" y="-152" on="0"/>
      </contour>
    </TTGlyph>
    <TTGlyph name="parenright" xMin="-117" yMin="-304" xMax="317" yMax="805">
      <contour>
        <pt x="-117" y="-262" on="1"/>
        <pt x="197" y="15" on="0"/>
        <pt x="197" y="425" on="1"/>
        <pt x="197" y="614" on="0"/>
        <pt x="121" y="767" on="1"/>
        <pt x="164" y="805" on="1"/>
        <pt x="235" y="734" on="0"/>
        <pt x="317" y="530" on="0"/>
        <pt x="317" y="410" on="1"/>
        <pt x="317" y="205" on="0"/>
        <pt x="97" y="-178" on="0"/>
        <pt x="-85" y="-304" on="1"/>
      </contour>
    </TTGlyph>
    <TTGlyph name="percent" xMin="95" yMin="-8" xMax="687" yMax="708">
      <contour>
        <pt x="95" y="477" on="1"/>
        <pt x="95" y="572" on="0"/>
        <pt x="202" y="708" on="0"/>
        <pt x="286" y="708" on="1"/>
        <pt x="336" y="708" on="0"/>
        <pt x="394" y="653" on="0"/>
        <pt x="394" y="600" on="1"/>
        <pt x="394" y="505" on="0"/>
        <pt x="287" y="369" on="0"/>
        <pt x="203" y="369" on="1"/>
        <pt x="154" y="369" on="0"/>
        <pt x="95" y="424" on="0"/>
      </contour>
      <contour>
        <pt x="97" y="0" on="1"/>
        <pt x="601" y="700" on="1"/>
        <pt x="687" y="700" on="1"/>
        <pt x="184" y="0" on="1"/>
      </contour>
      <contour>
        <pt x="189" y="471" on="1"/>
        <pt x="189" y="405" on="0"/>
        <pt x="215" y="405" on="1"/>
        <pt x="254" y="405" on="0"/>
        <pt x="301" y="535" on="0"/>
        <pt x="301" y="606" on="1"/>
        <pt x="301" y="671" on="0"/>
        <pt x="275" y="671" on="1"/>
        <pt x="236" y="671" on="0"/>
        <pt x="189" y="547" on="0"/>
      </contour>
      <contour>
        <pt x="385" y="100" on="1"/>
        <pt x="385" y="195" on="0"/>
        <pt x="492" y="331" on="0"/>
        <pt x="576" y="331" on="1"/>
        <pt x="626" y="331" on="0"/>
        <pt x="684" y="276" on="0"/>
        <pt x="684" y="223" on="1"/>
        <pt x="684" y="128" on="0"/>
        <pt x="577" y="-8" on="0"/>
        <pt x="493" y="-8" on="1"/>
        <pt x="444" y="-8" on="0"/>
        <pt x="385" y="47" on="0"/>
      </contour>
      <contour>
        <pt x="479" y="94" on="1"/>
        <pt x="479" y="28" on="0"/>
        <pt x="505" y="28" on="1"/>
        <pt x="541" y="28" on="0"/>
        <pt x="591" y="160" on="0"/>
        <pt x="591" y="229" on="1"/>
        <pt x="591" y="294" on="0"/>
        <pt x="565" y="294" on="1"/>
        <pt x="529" y="294" on="0"/>
        <pt x="479" y="168" on="0"/>
      </contour>
    </TTGlyph>
    <TTGlyph name="period" xMin="-6" yMin="-7" xMax="165" yMax="164">
      <contour>
        <pt x="-6" y="78" on="1"/>
        <pt x="-6" y="115" on="0"/>
        <pt x="46" y="164" on="0"/>
        <pt x="79" y="164" on="1"/>
        <pt x="116" y="164" on="0"/>
        <pt x="165" y="113" on="0"/>
        <pt x="165" y="78" on="1"/>
        <pt x="165" y="45" on="0"/>
        <pt x="115" y="-7" on="0"/>
        <pt x="79" y="-7" on="1"/>
        <pt x="45" y="-7" on="0"/>
        <pt x="-6" y="46" on="0"/>
      </contour>
    </TTGlyph>
    <TTGlyph name="periodcentered" xMin="45" yMin="187" xMax="269" yMax="411">
      <contour>
        <pt x="45" y="298" on="1"/>
        <pt x="45" y="347" on="0"/>
        <pt x="113" y="411" on="0"/>
        <pt x="156" y="411" on="1"/>
        <pt x="205" y="411" on="0"/>
        <pt x="269" y="344" on="0"/>
        <pt x="269" y="298" on="1"/>
        <pt x="269" y="255" on="0"/>
        <pt x="204" y="187" on="0"/>
        <pt x="156" y="187" on="1"/>
        <pt x="112" y="187" on="0"/>
        <pt x="45" y="256" on="0"/>
      </contour>
    </TTGlyph>
    <TTGlyph name="plus" xMin="65" yMin="127" xMax="525" yMax="586">
      <contour>
        <pt x="65" y="316" on="1"/>
        <pt x="65" y="398" on="1"/>
        <pt x="253" y="398" on="1"/>
        <pt x="253" y="586" on="1"/>
        <pt x="335" y="586" on="1"/>
        <pt x="335" y="398" on="1"/>
        <pt x="525" y="398" on="1"/>
        <pt x="525" y="316" on="1"/>
        <pt x="335" y="316" on="1"/>
        <pt x="335" y="127" on="1"/>
        <pt x="253" y="127" on="1"/>
        <pt x="253" y="316" on="1"/>
      </contour>
    </TTGlyph>
    <TTGlyph name="plusminus" xMin="72" yMin="0" xMax="521" yMax="586">
      <contour>
        <pt x="72" y="0" on="1"/>
        <pt x="72" y="82" on="1"/>
        <pt x="521" y="82" on="1"/>
        <pt x="521" y="0" on="1"/>
      </contour>
      <contour>
        <pt x="72" y="316" on="1"/>
        <pt x="72" y="398" on="1"/>
        <pt x="250" y="398" on="1"/>
        <pt x="250" y="586" on="1"/>
        <pt x="332" y="586" on="1"/>
        <pt x="332" y="398" on="1"/>
        <pt x="521" y="398" on="1"/>
        <pt x="521" y="316" on="1"/>
        <pt x="332" y="316" on="1"/>
        <pt x="332" y="127" on="1"/>
        <pt x="250" y="127" on="1"/>
        <pt x="250" y="316" on="1"/>
      </contour>
    </TTGlyph>
    <TTGlyph name="q" xMin="16" yMin="-307" xMax="528" yMax="507">
      <contour>
        <pt x="16" y="137" on="1"/>
        <pt x="16" y="295" on="0"/>
        <pt x="209" y="507" on="0"/>
        <pt x="347" y="507" on="1"/>
        <pt x="448" y="507" on="0"/>
        <pt x="528" y="461" on="1"/>
        <pt x="329" y="-294" on="1"/>
        <pt x="202" y="-307" on="1"/>
        <pt x="302" y="83" on="1"/>
        <pt x="221" y="-7" on="0"/>
        <pt x="134" y="-7" on="1"/>
        <pt x="83" y="-7" on="0"/>
        <pt x="16" y="61" on="0"/>
      </contour>
      <contour>
        <pt x="149" y="159" on="1"/>
        <pt x="149" y="114" on="0"/>
        <pt x="168" y="72" on="0"/>
        <pt x="191" y="72" on="1"/>
        <pt x="235" y="72" on="0"/>
        <pt x="281" y="124" on="1"/>
        <pt x="309" y="156" on="0"/>
        <pt x="330" y="192" on="1"/>
        <pt x="398" y="448" on="1"/>
        <pt x="380" y="453" on="0"/>
        <pt x="356" y="453" on="1"/>
        <pt x="298" y="453" on="0"/>
        <pt x="199" y="353" on="0"/>
        <pt x="149" y="219" on="0"/>
      </contour>
    </TTGlyph>
    <TTGlyph name="question" xMin="107" yMin="-7" xMax="511" yMax="708">
      <contour>
        <pt x="115" y="594" on="1"/>
        <pt x="115" y="647" on="0"/>
        <pt x="227" y="708" on="0"/>
        <pt x="325" y="708" on="1"/>
        <pt x="408" y="708" on="0"/>
        <pt x="511" y="638" on="0"/>
        <pt x="511" y="575" on="1"/>
        <pt x="511" y="527" on="0"/>
        <pt x="450" y="453" on="0"/>
        <pt x="362" y="406" on="0"/>
        <pt x="274" y="365" on="0"/>
        <pt x="213" y="314" on="0"/>
        <pt x="213" y="284" on="1"/>
        <pt x="213" y="267" on="0"/>
        <pt x="233" y="246" on="0"/>
        <pt x="249" y="246" on="1"/>
        <pt x="274" y="246" on="0"/>
        <pt x="299" y="265" on="1"/>
        <pt x="329" y="227" on="1"/>
        <pt x="291" y="189" on="0"/>
        <pt x="238" y="189" on="1"/>
        <pt x="192" y="189" on="0"/>
        <pt x="132" y="243" on="0"/>
        <pt x="132" y="286" on="1"/>
        <pt x="132" y="324" on="0"/>
        <pt x="168" y="385" on="0"/>
        <pt x="222" y="424" on="0"/>
        <pt x="254" y="445" on="1"/>
        <pt x="313" y="484" on="1"/>
        <pt x="340" y="503" on="0"/>
        <pt x="376" y="558" on="0"/>
        <pt x="376" y="592" on="1"/>
        <pt x="376" y="622" on="0"/>
        <pt x="342" y="656" on="0"/>
        <pt x="313" y="656" on="1"/>
        <pt x="281" y="656" on="0"/>
        <pt x="241" y="605" on="0"/>
        <pt x="241" y="560" on="1"/>
        <pt x="241" y="536" on="0"/>
        <pt x="248" y="504" on="1"/>
        <pt x="115" y="504" on="0"/>
      </contour>
      <contour>
        <pt x="107" y="78" on="1"/>
        <pt x="107" y="115" on="0"/>
        <pt x="157" y="164" on="0"/>
        <pt x="192" y="164" on="1"/>
        <pt x="229" y="164" on="0"/>
        <pt x="278" y="115" on="0"/>
        <pt x="278" y="78" on="1"/>
        <pt x="278" y="43" on="0"/>
        <pt x="229" y="-7" on="0"/>
        <pt x="192" y="-7" on="1"/>
        <pt x="157" y="-7" on="0"/>
        <pt x="107" y="43" on="0"/>
      </contour>
    </TTGlyph>
    <TTGlyph name="questiondown" xMin="-50" yMin="-208" xMax="354" yMax="506">
      <component glyphName="question" x="461" y="500" scale="-0.999938964844" flags="0x4"/>
    </TTGlyph>
    <TTGlyph name="quotedbl" xMin="113" yMin="472" xMax="434" yMax="707">
      <contour>
        <pt x="113" y="472" on="1"/>
        <pt x="138" y="707" on="1"/>
        <pt x="262" y="707" on="1"/>
        <pt x="183" y="472" on="1"/>
      </contour>
      <contour>
        <pt x="285" y="472" on="1"/>
        <pt x="310" y="707" on="1"/>
        <pt x="434" y="707" on="1"/>
        <pt x="354" y="472" on="1"/>
      </contour>
    </TTGlyph>
    <TTGlyph name="quotedblbase" xMin="-72" yMin="-197" xMax="367" yMax="138">
      <contour>
        <pt x="-72" y="-155" on="1"/>
        <pt x="11" y="-87" on="0"/>
        <pt x="45" y="-5" on="1"/>
        <pt x="-12" y="53" on="1"/>
        <pt x="-12" y="88" on="0"/>
        <pt x="39" y="138" on="0"/>
        <pt x="74" y="138" on="1"/>
        <pt x="110" y="138" on="0"/>
        <pt x="159" y="89" on="0"/>
        <pt x="159" y="53" on="1"/>
        <pt x="159" y="-21" on="0"/>
        <pt x="30" y="-161" on="0"/>
        <pt x="-39" y="-197" on="1"/>
      </contour>
      <contour>
        <pt x="136" y="-155" on="1"/>
        <pt x="219" y="-87" on="0"/>
        <pt x="253" y="-5" on="1"/>
        <pt x="196" y="53" on="1"/>
        <pt x="196" y="88" on="0"/>
        <pt x="247" y="138" on="0"/>
        <pt x="282" y="138" on="1"/>
        <pt x="318" y="138" on="0"/>
        <pt x="367" y="89" on="0"/>
        <pt x="367" y="53" on="1"/>
        <pt x="367" y="-21" on="0"/>
        <pt x="238" y="-161" on="0"/>
        <pt x="169" y="-197" on="1"/>
      </contour>
    </TTGlyph>
    <TTGlyph name="quotedblleft" xMin="88" yMin="399" xMax="527" yMax="734">
      <contour>
        <pt x="319" y="692" on="1"/>
        <pt x="236" y="624" on="0"/>
        <pt x="202" y="542" on="1"/>
        <pt x="259" y="484" on="1"/>
        <pt x="259" y="449" on="0"/>
        <pt x="208" y="399" on="0"/>
        <pt x="173" y="399" on="1"/>
        <pt x="137" y="399" on="0"/>
        <pt x="88" y="448" on="0"/>
        <pt x="88" y="484" on="1"/>
        <pt x="88" y="558" on="0"/>
        <pt x="217" y="698" on="0"/>
        <pt x="286" y="734" on="1"/>
      </contour>
      <contour>
        <pt x="527" y="692" on="1"/>
        <pt x="444" y="624" on="0"/>
        <pt x="410" y="542" on="1"/>
        <pt x="467" y="484" on="1"/>
        <pt x="467" y="449" on="0"/>
        <pt x="416" y="399" on="0"/>
        <pt x="381" y="399" on="1"/>
        <pt x="345" y="399" on="0"/>
        <pt x="296" y="448" on="0"/>
        <pt x="296" y="484" on="1"/>
        <pt x="296" y="558" on="0"/>
        <pt x="425" y="698" on="0"/>
        <pt x="494" y="734" on="1"/>
      </contour>
    </TTGlyph>
    <TTGlyph name="quotedblright" xMin="76" yMin="399" xMax="515" yMax="734">
      <contour>
        <pt x="76" y="441" on="1"/>
        <pt x="159" y="509" on="0"/>
        <pt x="193" y="591" on="1"/>
        <pt x="136" y="649" on="1"/>
        <pt x="136" y="684" on="0"/>
        <pt x="187" y="734" on="0"/>
        <pt x="222" y="734" on="1"/>
        <pt x="258" y="734" on="0"/>
        <pt x="307" y="685" on="0"/>
        <pt x="307" y="649" on="1"/>
        <pt x="307" y="575" on="0"/>
        <pt x="178" y="435" on="0"/>
        <pt x="109" y="399" on="1"/>
      </contour>
      <contour>
        <pt x="284" y="441" on="1"/>
        <pt x="367" y="509" on="0"/>
        <pt x="401" y="591" on="1"/>
        <pt x="344" y="649" on="1"/>
        <pt x="344" y="684" on="0"/>
        <pt x="395" y="734" on="0"/>
        <pt x="430" y="734" on="1"/>
        <pt x="466" y="734" on="0"/>
        <pt x="515" y="685" on="0"/>
        <pt x="515" y="649" on="1"/>
        <pt x="515" y="575" on="0"/>
        <pt x="386" y="435" on="0"/>
        <pt x="317" y="399" on="1"/>
      </contour>
    </TTGlyph>
    <TTGlyph name="quoteleft" xMin="88" yMin="399" xMax="319" yMax="734">
      <contour>
        <pt x="319" y="692" on="1"/>
        <pt x="236" y="624" on="0"/>
        <pt x="202" y="542" on="1"/>
        <pt x="259" y="484" on="1"/>
        <pt x="259" y="449" on="0"/>
        <pt x="208" y="399" on="0"/>
        <pt x="173" y="399" on="1"/>
        <pt x="137" y="399" on="0"/>
        <pt x="88" y="448" on="0"/>
        <pt x="88" y="484" on="1"/>
        <pt x="88" y="558" on="0"/>
        <pt x="217" y="698" on="0"/>
        <pt x="286" y="734" on="1"/>
      </contour>
    </TTGlyph>
    <TTGlyph name="quoteright" xMin="76" yMin="399" xMax="307" yMax="734">
      <contour>
        <pt x="76" y="441" on="1"/>
        <pt x="159" y="509" on="0"/>
        <pt x="193" y="591" on="1"/>
        <pt x="136" y="649" on="1"/>
        <pt x="136" y="684" on="0"/>
        <pt x="187" y="734" on="0"/>
        <pt x="222" y="734" on="1"/>
        <pt x="258" y="734" on="0"/>
        <pt x="307" y="685" on="0"/>
        <pt x="307" y="649" on="1"/>
        <pt x="307" y="575" on="0"/>
        <pt x="178" y="435" on="0"/>
        <pt x="109" y="399" on="1"/>
      </contour>
    </TTGlyph>
    <TTGlyph name="quotesinglbase" xMin="-68" yMin="-171" xMax="163" yMax="164">
      <contour>
        <pt x="-68" y="-129" on="1"/>
        <pt x="15" y="-61" on="0"/>
        <pt x="49" y="21" on="1"/>
        <pt x="-8" y="79" on="1"/>
        <pt x="-8" y="114" on="0"/>
        <pt x="43" y="164" on="0"/>
        <pt x="78" y="164" on="1"/>
        <pt x="114" y="164" on="0"/>
        <pt x="163" y="115" on="0"/>
        <pt x="163" y="79" on="1"/>
        <pt x="163" y="5" on="0"/>
        <pt x="34" y="-135" on="0"/>
        <pt x="-35" y="-171" on="1"/>
      </contour>
    </TTGlyph>
    <TTGlyph name="quotesingle" xMin="112" yMin="473" xMax="261" yMax="708">
      <contour>
        <pt x="112" y="473" on="1"/>
        <pt x="138" y="708" on="1"/>
        <pt x="261" y="708" on="1"/>
        <pt x="182" y="473" on="1"/>
      </contour>
    </TTGlyph>
    <TTGlyph name="r" xMin="26" yMin="-7" xMax="486" yMax="507">
      <contour>
        <pt x="26" y="-7" on="1"/>
        <pt x="134" y="422" on="1"/>
        <pt x="37" y="422" on="1"/>
        <pt x="37" y="463" on="1"/>
        <pt x="193" y="507" on="0"/>
        <pt x="232" y="507" on="1"/>
        <pt x="270" y="507" on="0"/>
        <pt x="270" y="478" on="1"/>
        <pt x="270" y="460" on="0"/>
        <pt x="260" y="423" on="1"/>
        <pt x="252" y="395" on="1"/>
        <pt x="260" y="405" on="0"/>
        <pt x="267" y="413" on="1"/>
        <pt x="294" y="446" on="0"/>
        <pt x="376" y="507" on="0"/>
        <pt x="412" y="507" on="1"/>
        <pt x="446" y="507" on="0"/>
        <pt x="486" y="471" on="0"/>
        <pt x="486" y="443" on="1"/>
        <pt x="486" y="405" on="0"/>
        <pt x="461" y="370" on="1"/>
        <pt x="434" y="384" on="0"/>
        <pt x="390" y="406" on="0"/>
        <pt x="373" y="406" on="1"/>
        <pt x="331" y="406" on="0"/>
        <pt x="282" y="353" on="1"/>
        <pt x="257" y="327" on="0"/>
        <pt x="223" y="278" on="1"/>
        <pt x="153" y="0" on="1"/>
      </contour>
    </TTGlyph>
    <TTGlyph name="registered" xMin="77" yMin="-17" xMax="826" yMax="732">
      <contour>
        <pt x="186" y="92" on="1"/>
        <pt x="77" y="201" on="0"/>
        <pt x="77" y="357" on="1"/>
        <pt x="77" y="434" on="0"/>
        <pt x="136" y="570" on="0"/>
        <pt x="238" y="672" on="0"/>
        <pt x="374" y="732" on="0"/>
        <pt x="451" y="732" on="1"/>
        <pt x="528" y="732" on="0"/>
        <pt x="664" y="672" on="0"/>
        <pt x="766" y="570" on="0"/>
        <pt x="826" y="434" on="0"/>
        <pt x="826" y="357" on="1"/>
        <pt x="826" y="280" on="0"/>
        <pt x="766" y="144" on="0"/>
        <pt x="664" y="42" on="0"/>
        <pt x="528" y="-17" on="0"/>
        <pt x="451" y="-17" on="1"/>
        <pt x="295" y="-17" on="0"/>
      </contour>
      <contour>
        <pt x="240" y="569" on="1"/>
        <pt x="153" y="482" on="0"/>
        <pt x="153" y="357" on="1"/>
        <pt x="153" y="295" on="0"/>
        <pt x="199" y="186" on="0"/>
        <pt x="280" y="105" on="0"/>
        <pt x="389" y="59" on="0"/>
        <pt x="451" y="59" on="1"/>
        <pt x="514" y="59" on="0"/>
        <pt x="622" y="106" on="0"/>
        <pt x="703" y="187" on="0"/>
        <pt x="749" y="295" on="0"/>
        <pt x="749" y="357" on="1"/>
        <pt x="749" y="419" on="0"/>
        <pt x="702" y="528" on="0"/>
        <pt x="621" y="609" on="0"/>
        <pt x="513" y="656" on="0"/>
        <pt x="451" y="656" on="1"/>
        <pt x="327" y="656" on="0"/>
      </contour>
      <contour>
        <pt x="263" y="149" on="1"/>
        <pt x="263" y="190" on="1"/>
        <pt x="312" y="203" on="1"/>
        <pt x="312" y="516" on="1"/>
        <pt x="263" y="529" on="1"/>
        <pt x="263" y="570" on="1"/>
        <pt x="433" y="570" on="1"/>
        <pt x="607" y="570" on="0"/>
        <pt x="607" y="451" on="1"/>
        <pt x="607" y="363" on="0"/>
        <pt x="515" y="337" on="1"/>
        <pt x="600" y="203" on="1"/>
        <pt x="648" y="189" on="1"/>
        <pt x="648" y="149" on="1"/>
        <pt x="532" y="149" on="1"/>
        <pt x="427" y="328" on="1"/>
        <pt x="399" y="328" on="1"/>
        <pt x="399" y="203" on="1"/>
        <pt x="455" y="190" on="1"/>
        <pt x="455" y="149" on="1"/>
      </contour>
      <contour>
        <pt x="399" y="379" on="1"/>
        <pt x="427" y="379" on="1"/>
        <pt x="517" y="379" on="0"/>
        <pt x="517" y="451" on="1"/>
        <pt x="517" y="517" on="0"/>
        <pt x="427" y="517" on="1"/>
        <pt x="399" y="517" on="1"/>
      </contour>
    </TTGlyph>
    <TTGlyph name="ring" xMin="39" yMin="570" xMax="279" yMax="810">
      <contour>
        <pt x="39" y="690" on="1"/>
        <pt x="39" y="740" on="0"/>
        <pt x="111" y="810" on="0"/>
        <pt x="159" y="810" on="1"/>
        <pt x="208" y="810" on="0"/>
        <pt x="279" y="739" on="0"/>
        <pt x="279" y="690" on="1"/>
        <pt x="279" y="640" on="0"/>
        <pt x="208" y="570" on="0"/>
        <pt x="159" y="570" on="1"/>
        <pt x="111" y="570" on="0"/>
        <pt x="39" y="640" on="0"/>
      </contour>
      <contour>
        <pt x="107" y="690" on="1"/>
        <pt x="107" y="668" on="0"/>
        <pt x="137" y="639" on="0"/>
        <pt x="159" y="639" on="1"/>
        <pt x="181" y="639" on="0"/>
        <pt x="210" y="668" on="0"/>
        <pt x="210" y="690" on="1"/>
        <pt x="210" y="712" on="0"/>
        <pt x="181" y="740" on="0"/>
        <pt x="159" y="740" on="1"/>
        <pt x="136" y="740" on="0"/>
        <pt x="107" y="712" on="0"/>
      </contour>
    </TTGlyph>
    <TTGlyph name="ring.case" xMin="36" yMin="732" xMax="275" yMax="971">
      <contour>
        <pt x="36" y="851" on="1"/>
        <pt x="36" y="901" on="0"/>
        <pt x="108" y="971" on="0"/>
        <pt x="155" y="971" on="1"/>
        <pt x="204" y="971" on="0"/>
        <pt x="275" y="900" on="0"/>
        <pt x="275" y="851" on="1"/>
        <pt x="275" y="801" on="0"/>
        <pt x="204" y="732" on="0"/>
        <pt x="155" y="732" on="1"/>
        <pt x="108" y="732" on="0"/>
        <pt x="36" y="801" on="0"/>
      </contour>
      <contour>
        <pt x="101" y="852" on="1"/>
        <pt x="101" y="828" on="0"/>
        <pt x="135" y="798" on="0"/>
        <pt x="154" y="799" on="1"/>
        <pt x="175" y="798" on="0"/>
        <pt x="208" y="828" on="0"/>
        <pt x="208" y="852" on="1"/>
        <pt x="208" y="873" on="0"/>
        <pt x="178" y="904" on="0"/>
        <pt x="154" y="904" on="1"/>
        <pt x="133" y="904" on="0"/>
        <pt x="101" y="874" on="0"/>
      </contour>
    </TTGlyph>
    <TTGlyph name="s" xMin="-12" yMin="-7" xMax="426" yMax="507">
      <contour>
        <pt x="-12" y="84" on="1"/>
        <pt x="-12" y="116" on="0"/>
        <pt x="34" y="158" on="0"/>
        <pt x="75" y="179" on="1"/>
        <pt x="89" y="139" on="0"/>
        <pt x="140" y="44" on="0"/>
        <pt x="188" y="44" on="1"/>
        <pt x="215" y="44" on="0"/>
        <pt x="252" y="80" on="0"/>
        <pt x="252" y="106" on="1"/>
        <pt x="252" y="122" on="0"/>
        <pt x="242" y="149" on="0"/>
        <pt x="218" y="175" on="0"/>
        <pt x="200" y="191" on="0"/>
        <pt x="180" y="206" on="1"/>
        <pt x="153" y="227" on="1"/>
        <pt x="71" y="287" on="0"/>
        <pt x="71" y="373" on="1"/>
        <pt x="71" y="433" on="0"/>
        <pt x="175" y="507" on="0"/>
        <pt x="266" y="507" on="1"/>
        <pt x="342" y="507" on="0"/>
        <pt x="426" y="460" on="0"/>
        <pt x="426" y="424" on="1"/>
        <pt x="426" y="393" on="0"/>
        <pt x="375" y="353" on="0"/>
        <pt x="334" y="347" on="1"/>
        <pt x="317" y="386" on="0"/>
        <pt x="299" y="420" on="0"/>
        <pt x="263" y="454" on="0"/>
        <pt x="241" y="454" on="1"/>
        <pt x="216" y="454" on="0"/>
        <pt x="190" y="423" on="0"/>
        <pt x="190" y="401" on="1"/>
        <pt x="190" y="356" on="0"/>
        <pt x="265" y="303" on="1"/>
        <pt x="320" y="262" on="0"/>
        <pt x="372" y="185" on="0"/>
        <pt x="372" y="136" on="1"/>
        <pt x="372" y="69" on="0"/>
        <pt x="256" y="-7" on="0"/>
        <pt x="165" y="-7" on="1"/>
        <pt x="81" y="-7" on="0"/>
        <pt x="-12" y="43" on="0"/>
      </contour>
    </TTGlyph>
    <TTGlyph name="section" xMin="-2" yMin="-83" xMax="526" yMax="759">
      <contour>
        <pt x="137" y="583" on="1"/>
        <pt x="137" y="663" on="0"/>
        <pt x="273" y="759" on="0"/>
        <pt x="375" y="759" on="1"/>
        <pt x="462" y="759" on="0"/>
        <pt x="526" y="733" on="1"/>
        <pt x="487" y="576" on="1"/>
        <pt x="444" y="576" on="1"/>
        <pt x="437" y="693" on="1"/>
        <pt x="404" y="700" on="0"/>
        <pt x="379" y="700" on="1"/>
        <pt x="327" y="700" on="0"/>
        <pt x="252" y="655" on="0"/>
        <pt x="252" y="613" on="1"/>
        <pt x="252" y="583" on="0"/>
        <pt x="299" y="535" on="0"/>
        <pt x="367" y="498" on="0"/>
        <pt x="436" y="453" on="0"/>
        <pt x="482" y="387" on="0"/>
        <pt x="482" y="343" on="1"/>
        <pt x="482" y="288" on="0"/>
        <pt x="421" y="216" on="0"/>
        <pt x="371" y="189" on="1"/>
        <pt x="382" y="178" on="0"/>
        <pt x="414" y="131" on="0"/>
        <pt x="416" y="89" on="1"/>
        <pt x="415" y="4" on="0"/>
        <pt x="272" y="-83" on="0"/>
        <pt x="171" y="-83" on="1"/>
        <pt x="64" y="-81" on="0"/>
        <pt x="-2" y="-43" on="1"/>
        <pt x="37" y="113" on="1"/>
        <pt x="80" y="113" on="1"/>
        <pt x="88" y="-9" on="1"/>
        <pt x="119" y="-21" on="0"/>
        <pt x="160" y="-21" on="1"/>
        <pt x="221" y="-21" on="0"/>
        <pt x="291" y="28" on="0"/>
        <pt x="291" y="70" on="1"/>
        <pt x="291" y="100" on="0"/>
        <pt x="247" y="150" on="0"/>
        <pt x="147" y="210" on="1"/>
        <pt x="114" y="231" on="0"/>
        <pt x="68" y="294" on="0"/>
        <pt x="68" y="334" on="1"/>
        <pt x="68" y="385" on="0"/>
        <pt x="135" y="463" on="0"/>
        <pt x="179" y="483" on="1"/>
        <pt x="166" y="494" on="0"/>
        <pt x="137" y="544" on="0"/>
      </contour>
      <contour>
        <pt x="204" y="422" on="1"/>
        <pt x="183" y="398" on="0"/>
        <pt x="183" y="364" on="1"/>
        <pt x="183" y="334" on="0"/>
        <pt x="231" y="285" on="0"/>
        <pt x="294" y="247" on="0"/>
        <pt x="321" y="229" on="1"/>
        <pt x="357" y="267" on="0"/>
        <pt x="357" y="312" on="1"/>
        <pt x="357" y="351" on="0"/>
        <pt x="311" y="406" on="0"/>
        <pt x="233" y="446" on="1"/>
        <pt x="215" y="435" on="0"/>
      </contour>
    </TTGlyph>
    <TTGlyph name="semicolon" xMin="-43" yMin="-171" xMax="276" yMax="479">
      <contour>
        <pt x="-43" y="-129" on="1"/>
        <pt x="40" y="-61" on="0"/>
        <pt x="74" y="21" on="1"/>
        <pt x="17" y="79" on="1"/>
        <pt x="17" y="114" on="0"/>
        <pt x="68" y="164" on="0"/>
        <pt x="103" y="164" on="1"/>
        <pt x="139" y="164" on="0"/>
        <pt x="188" y="115" on="0"/>
        <pt x="188" y="79" on="1"/>
        <pt x="188" y="5" on="0"/>
        <pt x="59" y="-135" on="0"/>
        <pt x="-10" y="-171" on="1"/>
      </contour>
      <contour>
        <pt x="105" y="393" on="1"/>
        <pt x="105" y="430" on="0"/>
        <pt x="157" y="479" on="0"/>
        <pt x="190" y="479" on="1"/>
        <pt x="227" y="479" on="0"/>
        <pt x="276" y="428" on="0"/>
        <pt x="276" y="393" on="1"/>
        <pt x="276" y="360" on="0"/>
        <pt x="226" y="308" on="0"/>
        <pt x="190" y="308" on="1"/>
        <pt x="156" y="308" on="0"/>
        <pt x="105" y="361" on="0"/>
      </contour>
    </TTGlyph>
    <TTGlyph name="seven" xMin="56" yMin="0" xMax="541" yMax="700">
      <contour>
        <pt x="56" y="0" on="1"/>
        <pt x="122" y="173" on="0"/>
        <pt x="319" y="472" on="0"/>
        <pt x="408" y="579" on="1"/>
        <pt x="170" y="579" on="1"/>
        <pt x="123" y="510" on="1"/>
        <pt x="73" y="510" on="1"/>
        <pt x="138" y="700" on="1"/>
        <pt x="541" y="700" on="1"/>
        <pt x="527" y="637" on="1"/>
        <pt x="301" y="341" on="0"/>
        <pt x="194" y="0" on="1"/>
      </contour>
    </TTGlyph>
    <TTGlyph name="six" xMin="37" yMin="-7" xMax="528" yMax="708">
      <contour>
        <pt x="37" y="197" on="1"/>
        <pt x="37" y="387" on="0"/>
        <pt x="310" y="684" on="0"/>
        <pt x="521" y="708" on="1"/>
        <pt x="528" y="651" on="1"/>
        <pt x="405" y="619" on="0"/>
        <pt x="319" y="544" on="1"/>
        <pt x="246" y="480" on="0"/>
        <pt x="197" y="378" on="1"/>
        <pt x="283" y="433" on="0"/>
        <pt x="353" y="433" on="1"/>
        <pt x="433" y="433" on="0"/>
        <pt x="513" y="340" on="0"/>
        <pt x="513" y="264" on="1"/>
        <pt x="513" y="144" on="0"/>
        <pt x="356" y="-7" on="0"/>
        <pt x="231" y="-7" on="1"/>
        <pt x="141" y="-7" on="0"/>
        <pt x="37" y="102" on="0"/>
      </contour>
      <contour>
        <pt x="158" y="199" on="1"/>
        <pt x="158" y="132" on="0"/>
        <pt x="204" y="53" on="0"/>
        <pt x="245" y="53" on="1"/>
        <pt x="299" y="53" on="0"/>
        <pt x="375" y="169" on="0"/>
        <pt x="375" y="241" on="1"/>
        <pt x="375" y="292" on="0"/>
        <pt x="330" y="352" on="0"/>
        <pt x="286" y="352" on="1"/>
        <pt x="239" y="352" on="0"/>
        <pt x="183" y="321" on="1"/>
        <pt x="175" y="317" on="1"/>
        <pt x="158" y="256" on="0"/>
      </contour>
    </TTGlyph>
    <TTGlyph name="slash" xMin="-38" yMin="0" xMax="524" yMax="700">
      <contour>
        <pt x="-38" y="0" on="1"/>
        <pt x="429" y="700" on="1"/>
        <pt x="524" y="700" on="1"/>
        <pt x="57" y="0" on="1"/>
      </contour>
    </TTGlyph>
    <TTGlyph name="sterling" xMin="-2" yMin="0" xMax="591" yMax="707">
      <contour>
        <pt x="59" y="326" on="1"/>
        <pt x="70" y="379" on="1"/>
        <pt x="171" y="387" on="1"/>
        <pt x="168" y="399" on="0"/>
        <pt x="145" y="481" on="0"/>
        <pt x="145" y="519" on="1"/>
        <pt x="145" y="604" on="0"/>
        <pt x="283" y="707" on="0"/>
        <pt x="386" y="707" on="1"/>
        <pt x="479" y="707" on="0"/>
        <pt x="591" y="643" on="0"/>
        <pt x="591" y="585" on="1"/>
        <pt x="591" y="547" on="0"/>
        <pt x="533" y="504" on="0"/>
        <pt x="481" y="504" on="1"/>
        <pt x="467" y="504" on="1"/>
        <pt x="473" y="530" on="0"/>
        <pt x="473" y="560" on="1"/>
        <pt x="473" y="605" on="0"/>
        <pt x="428" y="655" on="0"/>
        <pt x="389" y="655" on="1"/>
        <pt x="337" y="655" on="0"/>
        <pt x="276" y="577" on="0"/>
        <pt x="276" y="509" on="1"/>
        <pt x="276" y="478" on="0"/>
        <pt x="289" y="422" on="1"/>
        <pt x="293" y="408" on="0"/>
        <pt x="295" y="396" on="1"/>
        <pt x="449" y="408" on="1"/>
        <pt x="417" y="326" on="1"/>
        <pt x="303" y="326" on="1"/>
        <pt x="302" y="257" on="0"/>
        <pt x="261" y="197" on="1"/>
        <pt x="235" y="159" on="0"/>
        <pt x="191" y="116" on="1"/>
        <pt x="421" y="116" on="1"/>
        <pt x="483" y="205" on="1"/>
        <pt x="532" y="205" on="1"/>
        <pt x="461" y="0" on="1"/>
        <pt x="5" y="0" on="1"/>
        <pt x="-2" y="36" on="1"/>
        <pt x="75" y="87" on="0"/>
        <pt x="183" y="232" on="0"/>
        <pt x="183" y="312" on="1"/>
        <pt x="183" y="318" on="0"/>
        <pt x="182" y="326" on="1"/>
      </contour>
    </TTGlyph>
    <TTGlyph name="t" xMin="43" yMin="-7" xMax="406" yMax="591">
      <contour>
        <pt x="43" y="53" on="1"/>
        <pt x="43" y="70" on="0"/>
        <pt x="49" y="90" on="1"/>
        <pt x="136" y="445" on="1"/>
        <pt x="55" y="445" on="1"/>
        <pt x="63" y="484" on="1"/>
        <pt x="148" y="491" on="1"/>
        <pt x="171" y="576" on="1"/>
        <pt x="300" y="591" on="1"/>
        <pt x="276" y="498" on="1"/>
        <pt x="406" y="509" on="1"/>
        <pt x="392" y="445" on="1"/>
        <pt x="263" y="445" on="1"/>
        <pt x="182" y="119" on="1"/>
        <pt x="180" y="109" on="0"/>
        <pt x="180" y="106" on="1"/>
        <pt x="180" y="86" on="0"/>
        <pt x="200" y="86" on="1"/>
        <pt x="216" y="86" on="0"/>
        <pt x="313" y="118" on="1"/>
        <pt x="325" y="78" on="1"/>
        <pt x="299" y="63" on="0"/>
        <pt x="155" y="-7" on="0"/>
        <pt x="101" y="-7" on="1"/>
        <pt x="43" y="-7" on="0"/>
      </contour>
    </TTGlyph>
    <TTGlyph name="thorn" xMin="-65" yMin="-276" xMax="524" yMax="708">
      <contour>
        <pt x="-65" y="-276" on="1"/>
        <pt x="161" y="623" on="1"/>
        <pt x="63" y="623" on="1"/>
        <pt x="63" y="664" on="1"/>
        <pt x="142" y="685" on="0"/>
        <pt x="247" y="708" on="0"/>
        <pt x="261" y="708" on="1"/>
        <pt x="297" y="708" on="0"/>
        <pt x="297" y="678" on="1"/>
        <pt x="297" y="664" on="0"/>
        <pt x="291" y="638" on="1"/>
        <pt x="238" y="416" on="1"/>
        <pt x="317" y="507" on="0"/>
        <pt x="412" y="507" on="1"/>
        <pt x="460" y="507" on="0"/>
        <pt x="524" y="436" on="0"/>
        <pt x="524" y="363" on="1"/>
        <pt x="524" y="204" on="0"/>
        <pt x="331" y="-7" on="0"/>
        <pt x="193" y="-7" on="1"/>
        <pt x="157" y="-7" on="0"/>
        <pt x="131" y="0" on="1"/>
        <pt x="64" y="-261" on="1"/>
      </contour>
      <contour>
        <pt x="144" y="51" on="1"/>
        <pt x="168" y="47" on="0"/>
        <pt x="183" y="47" on="1"/>
        <pt x="243" y="47" on="0"/>
        <pt x="343" y="150" on="0"/>
        <pt x="392" y="283" on="0"/>
        <pt x="392" y="341" on="1"/>
        <pt x="392" y="428" on="0"/>
        <pt x="349" y="428" on="1"/>
        <pt x="285" y="428" on="0"/>
        <pt x="211" y="310" on="1"/>
      </contour>
    </TTGlyph>
    <TTGlyph name="three" xMin="-13" yMin="-7" xMax="514" yMax="708">
      <contour>
        <pt x="-13" y="56" on="1"/>
        <pt x="10" y="106" on="1"/>
        <pt x="105" y="60" on="0"/>
        <pt x="176" y="60" on="1"/>
        <pt x="250" y="60" on="0"/>
        <pt x="348" y="146" on="0"/>
        <pt x="348" y="209" on="1"/>
        <pt x="348" y="334" on="0"/>
        <pt x="201" y="340" on="1"/>
        <pt x="216" y="400" on="1"/>
        <pt x="292" y="410" on="0"/>
        <pt x="383" y="503" on="0"/>
        <pt x="383" y="573" on="1"/>
        <pt x="383" y="612" on="0"/>
        <pt x="343" y="658" on="0"/>
        <pt x="312" y="658" on="1"/>
        <pt x="275" y="658" on="0"/>
        <pt x="231" y="610" on="0"/>
        <pt x="231" y="566" on="1"/>
        <pt x="231" y="541" on="0"/>
        <pt x="238" y="514" on="1"/>
        <pt x="218" y="510" on="0"/>
        <pt x="204" y="510" on="1"/>
        <pt x="166" y="510" on="0"/>
        <pt x="110" y="547" on="0"/>
        <pt x="110" y="586" on="1"/>
        <pt x="110" y="638" on="0"/>
        <pt x="219" y="708" on="0"/>
        <pt x="310" y="708" on="1"/>
        <pt x="407" y="708" on="0"/>
        <pt x="514" y="630" on="0"/>
        <pt x="514" y="561" on="1"/>
        <pt x="514" y="493" on="0"/>
        <pt x="409" y="388" on="0"/>
        <pt x="324" y="370" on="1"/>
        <pt x="324" y="368" on="1"/>
        <pt x="399" y="361" on="0"/>
        <pt x="484" y="274" on="0"/>
        <pt x="484" y="212" on="1"/>
        <pt x="484" y="115" on="0"/>
        <pt x="337" y="-7" on="0"/>
        <pt x="216" y="-7" on="1"/>
        <pt x="92" y="-7" on="0"/>
      </contour>
    </TTGlyph>
    <TTGlyph name="threequarters" xMin="66" yMin="0" xMax="825" yMax="708">
      <component glyphName="slash" x="250" y="0" flags="0x4"/>
      <component glyphName="foursuperior" x="446" y="-282" flags="0x4"/>
      <component glyphName="threesuperior" x="6" y="0" flags="0x4"/>
    </TTGlyph>
    <TTGlyph name="threesuperior" xMin="60" yMin="275" xMax="373" yMax="708">
      <contour>
        <pt x="60" y="310" on="1"/>
        <pt x="75" y="346" on="1"/>
        <pt x="120" y="318" on="0"/>
        <pt x="168" y="318" on="1"/>
        <pt x="211" y="318" on="0"/>
        <pt x="262" y="364" on="0"/>
        <pt x="262" y="402" on="1"/>
        <pt x="262" y="435" on="0"/>
        <pt x="221" y="481" on="0"/>
        <pt x="180" y="484" on="1"/>
        <pt x="187" y="524" on="1"/>
        <pt x="231" y="525" on="0"/>
        <pt x="281" y="585" on="0"/>
        <pt x="281" y="627" on="1"/>
        <pt x="281" y="675" on="0"/>
        <pt x="245" y="675" on="1"/>
        <pt x="223" y="675" on="0"/>
        <pt x="199" y="640" on="0"/>
        <pt x="199" y="611" on="1"/>
        <pt x="199" y="586" on="0"/>
        <pt x="202" y="570" on="1"/>
        <pt x="169" y="570" on="0"/>
        <pt x="120" y="598" on="0"/>
        <pt x="120" y="631" on="1"/>
        <pt x="120" y="666" on="0"/>
        <pt x="197" y="708" on="0"/>
        <pt x="256" y="708" on="1"/>
        <pt x="310" y="708" on="0"/>
        <pt x="373" y="663" on="0"/>
        <pt x="373" y="618" on="1"/>
        <pt x="373" y="575" on="0"/>
        <pt x="303" y="512" on="0"/>
        <pt x="255" y="504" on="1"/>
        <pt x="255" y="503" on="1"/>
        <pt x="301" y="499" on="0"/>
        <pt x="357" y="444" on="0"/>
        <pt x="357" y="406" on="1"/>
        <pt x="357" y="343" on="0"/>
        <pt x="262" y="275" on="0"/>
        <pt x="194" y="275" on="1"/>
        <pt x="123" y="275" on="0"/>
      </contour>
    </TTGlyph>
    <TTGlyph name="tilde" xMin="28" yMin="619" xMax="426" yMax="753">
      <contour>
        <pt x="28" y="665" on="1"/>
        <pt x="48" y="694" on="0"/>
        <pt x="129" y="753" on="0"/>
        <pt x="168" y="753" on="1"/>
        <pt x="202" y="753" on="0"/>
        <pt x="272" y="699" on="0"/>
        <pt x="300" y="699" on="1"/>
        <pt x="322" y="699" on="0"/>
        <pt x="363" y="719" on="0"/>
        <pt x="397" y="743" on="1"/>
        <pt x="426" y="706" on="1"/>
        <pt x="405" y="678" on="0"/>
        <pt x="317" y="619" on="0"/>
        <pt x="277" y="619" on="1"/>
        <pt x="244" y="619" on="0"/>
        <pt x="168" y="672" on="0"/>
        <pt x="145" y="672" on="1"/>
        <pt x="126" y="672" on="0"/>
        <pt x="92" y="654" on="0"/>
        <pt x="58" y="629" on="1"/>
      </contour>
    </TTGlyph>
    <TTGlyph name="tilde.case" xMin="7" yMin="786" xMax="435" yMax="925">
      <contour>
        <pt x="7" y="838" on="1"/>
        <pt x="32" y="866" on="0"/>
        <pt x="121" y="925" on="0"/>
        <pt x="162" y="925" on="1"/>
        <pt x="202" y="925" on="0"/>
        <pt x="272" y="872" on="0"/>
        <pt x="303" y="872" on="1"/>
        <pt x="345" y="872" on="0"/>
        <pt x="406" y="915" on="1"/>
        <pt x="435" y="872" on="1"/>
        <pt x="418" y="850" on="0"/>
        <pt x="326" y="786" on="0"/>
        <pt x="282" y="786" on="1"/>
        <pt x="244" y="786" on="0"/>
        <pt x="166" y="839" on="0"/>
        <pt x="140" y="839" on="1"/>
        <pt x="97" y="839" on="0"/>
        <pt x="38" y="796" on="1"/>
      </contour>
    </TTGlyph>
    <TTGlyph name="two" xMin="-22" yMin="0" xMax="514" yMax="708">
      <contour>
        <pt x="-22" y="0" on="1"/>
        <pt x="-8" y="60" on="1"/>
        <pt x="262" y="348" on="1"/>
        <pt x="298" y="388" on="0"/>
        <pt x="345" y="450" on="0"/>
        <pt x="371" y="500" on="0"/>
        <pt x="381" y="542" on="0"/>
        <pt x="381" y="563" on="1"/>
        <pt x="381" y="656" on="0"/>
        <pt x="308" y="656" on="1"/>
        <pt x="272" y="656" on="0"/>
        <pt x="232" y="601" on="0"/>
        <pt x="232" y="556" on="1"/>
        <pt x="232" y="535" on="0"/>
        <pt x="241" y="495" on="1"/>
        <pt x="224" y="492" on="0"/>
        <pt x="202" y="492" on="1"/>
        <pt x="164" y="492" on="0"/>
        <pt x="107" y="534" on="0"/>
        <pt x="107" y="576" on="1"/>
        <pt x="107" y="607" on="0"/>
        <pt x="137" y="656" on="0"/>
        <pt x="191" y="690" on="0"/>
        <pt x="267" y="708" on="0"/>
        <pt x="312" y="708" on="1"/>
        <pt x="357" y="708" on="0"/>
        <pt x="432" y="687" on="0"/>
        <pt x="485" y="647" on="0"/>
        <pt x="514" y="591" on="0"/>
        <pt x="514" y="557" on="1"/>
        <pt x="514" y="519" on="0"/>
        <pt x="485" y="446" on="0"/>
        <pt x="433" y="376" on="0"/>
        <pt x="362" y="306" on="0"/>
        <pt x="321" y="270" on="1"/>
        <pt x="133" y="97" on="1"/>
        <pt x="356" y="97" on="1"/>
        <pt x="422" y="195" on="1"/>
        <pt x="484" y="195" on="1"/>
        <pt x="416" y="0" on="1"/>
      </contour>
    </TTGlyph>
    <TTGlyph name="twosuperior" xMin="57" yMin="283" xMax="382" yMax="708">
      <contour>
        <pt x="57" y="283" on="1"/>
        <pt x="65" y="318" on="1"/>
        <pt x="214" y="484" on="0"/>
        <pt x="247" y="526" on="1"/>
        <pt x="260" y="543" on="0"/>
        <pt x="271" y="563" on="0"/>
        <pt x="283" y="589" on="0"/>
        <pt x="287" y="610" on="0"/>
        <pt x="287" y="621" on="1"/>
        <pt x="287" y="673" on="0"/>
        <pt x="249" y="673" on="1"/>
        <pt x="209" y="673" on="0"/>
        <pt x="209" y="613" on="1"/>
        <pt x="209" y="591" on="0"/>
        <pt x="212" y="570" on="1"/>
        <pt x="174" y="571" on="0"/>
        <pt x="122" y="600" on="0"/>
        <pt x="122" y="629" on="1"/>
        <pt x="122" y="665" on="0"/>
        <pt x="198" y="708" on="0"/>
        <pt x="256" y="708" on="1"/>
        <pt x="313" y="708" on="0"/>
        <pt x="382" y="659" on="0"/>
        <pt x="382" y="616" on="1"/>
        <pt x="382" y="588" on="0"/>
        <pt x="350" y="535" on="0"/>
        <pt x="330" y="516" on="1"/>
        <pt x="206" y="404" on="0"/>
        <pt x="166" y="364" on="1"/>
        <pt x="302" y="364" on="1"/>
        <pt x="337" y="416" on="1"/>
        <pt x="372" y="416" on="1"/>
        <pt x="323" y="283" on="1"/>
      </contour>
    </TTGlyph>
    <TTGlyph name="u" xMin="33" yMin="-7" xMax="559" yMax="507">
      <contour>
        <pt x="33" y="420" on="1"/>
        <pt x="33" y="463" on="1"/>
        <pt x="114" y="484" on="0"/>
        <pt x="219" y="507" on="0"/>
        <pt x="234" y="507" on="1"/>
        <pt x="270" y="507" on="0"/>
        <pt x="270" y="477" on="1"/>
        <pt x="270" y="468" on="0"/>
        <pt x="261" y="437" on="1"/>
        <pt x="194" y="195" on="1"/>
        <pt x="186" y="166" on="0"/>
        <pt x="175" y="121" on="0"/>
        <pt x="175" y="107" on="1"/>
        <pt x="175" y="82" on="0"/>
        <pt x="196" y="82" on="1"/>
        <pt x="224" y="82" on="0"/>
        <pt x="314" y="153" on="0"/>
        <pt x="359" y="213" on="1"/>
        <pt x="431" y="500" on="1"/>
        <pt x="559" y="507" on="1"/>
        <pt x="452" y="78" on="1"/>
        <pt x="549" y="78" on="1"/>
        <pt x="549" y="37" on="1"/>
        <pt x="469" y="16" on="0"/>
        <pt x="366" y="-7" on="0"/>
        <pt x="350" y="-7" on="1"/>
        <pt x="315" y="-7" on="0"/>
        <pt x="315" y="22" on="1"/>
        <pt x="315" y="41" on="0"/>
        <pt x="321" y="62" on="1"/>
        <pt x="333" y="107" on="1"/>
        <pt x="237" y="-7" on="0"/>
        <pt x="141" y="-7" on="1"/>
        <pt x="50" y="-7" on="0"/>
        <pt x="50" y="88" on="1"/>
        <pt x="50" y="154" on="0"/>
        <pt x="131" y="420" on="1"/>
      </contour>
    </TTGlyph>
    <TTGlyph name="uacute" xMin="33" yMin="-7" xMax="559" yMax="794">
      <component glyphName="u" x="0" y="0" flags="0x204"/>
      <component glyphName="acute" x="275" y="0" flags="0x4"/>
    </TTGlyph>
    <TTGlyph name="ucircumflex" xMin="33" yMin="-7" xMax="559" yMax="788">
      <component glyphName="u" x="0" y="0" flags="0x204"/>
      <component glyphName="circumflex" x="206" y="0" flags="0x4"/>
    </TTGlyph>
    <TTGlyph name="udieresis" xMin="33" yMin="-7" xMax="559" yMax="760">
      <component glyphName="u" x="0" y="0" flags="0x204"/>
      <component glyphName="dieresis" x="91" y="0" flags="0x4"/>
    </TTGlyph>
    <TTGlyph name="ugrave" xMin="33" yMin="-7" xMax="559" yMax="796">
      <component glyphName="u" x="0" y="0" flags="0x204"/>
      <component glyphName="grave" x="256" y="0" flags="0x4"/>
    </TTGlyph>
    <TTGlyph name="underscore" xMin="51" yMin="-142" xMax="510" yMax="-71">
      <contour>
        <pt x="51" y="-71" on="1"/>
        <pt x="510" y="-71" on="1"/>
        <pt x="510" y="-142" on="1"/>
        <pt x="51" y="-142" on="1"/>
      </contour>
    </TTGlyph>
    <TTGlyph name="uni00AD" xMin="63" yMin="212" xMax="323" yMax="307">
      <contour>
        <pt x="63" y="212" on="1"/>
        <pt x="63" y="307" on="1"/>
        <pt x="323" y="307" on="1"/>
        <pt x="323" y="212" on="1"/>
      </contour>
    </TTGlyph>
    <TTGlyph name="v" xMin="12" yMin="-7" xMax="536" yMax="507">
      <contour>
        <pt x="12" y="421" on="1"/>
        <pt x="12" y="463" on="1"/>
        <pt x="52" y="476" on="0"/>
        <pt x="160" y="507" on="0"/>
        <pt x="179" y="507" on="1"/>
        <pt x="221" y="507" on="0"/>
        <pt x="229" y="467" on="1"/>
        <pt x="294" y="98" on="1"/>
        <pt x="325" y="139" on="0"/>
        <pt x="345" y="167" on="1"/>
        <pt x="376" y="211" on="0"/>
        <pt x="429" y="325" on="0"/>
        <pt x="429" y="370" on="1"/>
        <pt x="429" y="397" on="0"/>
        <pt x="400" y="430" on="0"/>
        <pt x="361" y="456" on="1"/>
        <pt x="401" y="507" on="0"/>
        <pt x="461" y="507" on="1"/>
        <pt x="493" y="507" on="0"/>
        <pt x="536" y="469" on="0"/>
        <pt x="536" y="432" on="1"/>
        <pt x="536" y="370" on="0"/>
        <pt x="433" y="185" on="0"/>
        <pt x="287" y="0" on="1"/>
        <pt x="188" y="-7" on="1"/>
        <pt x="112" y="421" on="1"/>
      </contour>
    </TTGlyph>
    <TTGlyph name="w" xMin="12" yMin="-7" xMax="796" yMax="507">
      <contour>
        <pt x="12" y="421" on="1"/>
        <pt x="12" y="463" on="1"/>
        <pt x="52" y="476" on="0"/>
        <pt x="160" y="507" on="0"/>
        <pt x="177" y="507" on="1"/>
        <pt x="221" y="507" on="0"/>
        <pt x="228" y="467" on="1"/>
        <pt x="290" y="99" on="1"/>
        <pt x="320" y="139" on="0"/>
        <pt x="342" y="172" on="1"/>
        <pt x="376" y="226" on="0"/>
        <pt x="400" y="299" on="1"/>
        <pt x="404" y="313" on="0"/>
        <pt x="408" y="327" on="1"/>
        <pt x="378" y="500" on="1"/>
        <pt x="500" y="507" on="1"/>
        <pt x="572" y="99" on="1"/>
        <pt x="689" y="259" on="0"/>
        <pt x="689" y="369" on="1"/>
        <pt x="689" y="396" on="0"/>
        <pt x="659" y="430" on="0"/>
        <pt x="621" y="456" on="1"/>
        <pt x="664" y="507" on="0"/>
        <pt x="719" y="507" on="1"/>
        <pt x="756" y="507" on="0"/>
        <pt x="796" y="466" on="0"/>
        <pt x="796" y="431" on="1"/>
        <pt x="796" y="286" on="0"/>
        <pt x="565" y="0" on="1"/>
        <pt x="466" y="-7" on="1"/>
        <pt x="427" y="215" on="1"/>
        <pt x="390" y="152" on="1"/>
        <pt x="372" y="123" on="0"/>
        <pt x="313" y="33" on="0"/>
        <pt x="287" y="0" on="1"/>
        <pt x="186" y="-7" on="1"/>
        <pt x="110" y="421" on="1"/>
      </contour>
    </TTGlyph>
    <TTGlyph name="x" xMin="-30" yMin="-7" xMax="571" yMax="507">
      <contour>
        <pt x="-30" y="54" on="1"/>
        <pt x="-30" y="80" on="0"/>
        <pt x="-16" y="116" on="1"/>
        <pt x="43" y="96" on="0"/>
        <pt x="67" y="96" on="1"/>
        <pt x="92" y="96" on="0"/>
        <pt x="138" y="123" on="0"/>
        <pt x="185" y="189" on="1"/>
        <pt x="217" y="234" on="1"/>
        <pt x="160" y="421" on="1"/>
        <pt x="57" y="421" on="1"/>
        <pt x="57" y="463" on="1"/>
        <pt x="97" y="476" on="0"/>
        <pt x="206" y="507" on="0"/>
        <pt x="222" y="507" on="1"/>
        <pt x="262" y="507" on="0"/>
        <pt x="274" y="467" on="1"/>
        <pt x="313" y="336" on="1"/>
        <pt x="380" y="426" on="0"/>
        <pt x="419" y="463" on="1"/>
        <pt x="464" y="507" on="0"/>
        <pt x="505" y="507" on="1"/>
        <pt x="536" y="507" on="0"/>
        <pt x="571" y="474" on="0"/>
        <pt x="571" y="445" on="1"/>
        <pt x="571" y="418" on="0"/>
        <pt x="558" y="384" on="1"/>
        <pt x="499" y="404" on="0"/>
        <pt x="474" y="404" on="1"/>
        <pt x="443" y="404" on="0"/>
        <pt x="395" y="365" on="0"/>
        <pt x="374" y="335" on="1"/>
        <pt x="331" y="275" on="1"/>
        <pt x="392" y="79" on="1"/>
        <pt x="496" y="79" on="1"/>
        <pt x="496" y="37" on="1"/>
        <pt x="456" y="24" on="0"/>
        <pt x="349" y="-7" on="0"/>
        <pt x="331" y="-7" on="1"/>
        <pt x="290" y="-7" on="0"/>
        <pt x="278" y="34" on="1"/>
        <pt x="235" y="174" on="1"/>
        <pt x="169" y="85" on="0"/>
        <pt x="126" y="42" on="1"/>
        <pt x="77" y="-7" on="0"/>
        <pt x="37" y="-7" on="1"/>
        <pt x="-30" y="-7" on="0"/>
      </contour>
    </TTGlyph>
    <TTGlyph name="y" xMin="-1" yMin="-300" xMax="537" yMax="507">
      <contour>
        <pt x="-1" y="-240" on="1"/>
        <pt x="-1" y="-208" on="0"/>
        <pt x="54" y="-142" on="0"/>
        <pt x="115" y="-87" on="1"/>
        <pt x="159" y="-47" on="0"/>
        <pt x="191" y="-13" on="1"/>
        <pt x="113" y="421" on="1"/>
        <pt x="12" y="421" on="1"/>
        <pt x="12" y="463" on="1"/>
        <pt x="52" y="476" on="0"/>
        <pt x="160" y="507" on="0"/>
        <pt x="178" y="507" on="1"/>
        <pt x="221" y="507" on="0"/>
        <pt x="229" y="467" on="1"/>
        <pt x="294" y="106" on="1"/>
        <pt x="429" y="284" on="0"/>
        <pt x="429" y="370" on="1"/>
        <pt x="429" y="387" on="0"/>
        <pt x="407" y="420" on="0"/>
        <pt x="383" y="440" on="0"/>
        <pt x="361" y="456" on="1"/>
        <pt x="404" y="507" on="0"/>
        <pt x="464" y="507" on="1"/>
        <pt x="495" y="507" on="0"/>
        <pt x="537" y="467" on="0"/>
        <pt x="537" y="432" on="1"/>
        <pt x="537" y="311" on="0"/>
        <pt x="316" y="44" on="1"/>
        <pt x="180" y="-113" on="1"/>
        <pt x="162" y="-132" on="0"/>
        <pt x="133" y="-169" on="0"/>
        <pt x="125" y="-189" on="0"/>
        <pt x="125" y="-202" on="1"/>
        <pt x="125" y="-225" on="0"/>
        <pt x="158" y="-261" on="1"/>
        <pt x="123" y="-300" on="0"/>
        <pt x="65" y="-300" on="1"/>
        <pt x="36" y="-300" on="0"/>
        <pt x="-1" y="-268" on="0"/>
      </contour>
    </TTGlyph>
    <TTGlyph name="yacute" xMin="-1" yMin="-300" xMax="537" yMax="794">
      <component glyphName="y" x="0" y="0" flags="0x204"/>
      <component glyphName="acute" x="240" y="0" flags="0x4"/>
    </TTGlyph>
    <TTGlyph name="ydieresis" xMin="-1" yMin="-300" xMax="537" yMax="760">
      <component glyphName="y" x="0" y="0" flags="0x204"/>
      <component glyphName="dieresis" x="66" y="0" flags="0x4"/>
    </TTGlyph>
    <TTGlyph name="yen" xMin="119" yMin="0" xMax="772" yMax="700">
      <contour>
        <pt x="135" y="191" on="1"/>
        <pt x="148" y="243" on="1"/>
        <pt x="294" y="251" on="1"/>
        <pt x="308" y="307" on="1"/>
        <pt x="164" y="307" on="1"/>
        <pt x="177" y="359" on="1"/>
        <pt x="290" y="365" on="1"/>
        <pt x="193" y="629" on="1"/>
        <pt x="119" y="649" on="1"/>
        <pt x="131" y="700" on="1"/>
        <pt x="403" y="700" on="1"/>
        <pt x="390" y="649" on="1"/>
        <pt x="326" y="636" on="1"/>
        <pt x="408" y="405" on="1"/>
        <pt x="589" y="629" on="1"/>
        <pt x="515" y="649" on="1"/>
        <pt x="527" y="700" on="1"/>
        <pt x="772" y="700" on="1"/>
        <pt x="761" y="649" on="1"/>
        <pt x="680" y="626" on="1"/>
        <pt x="477" y="376" on="1"/>
        <pt x="616" y="384" on="1"/>
        <pt x="586" y="307" on="1"/>
        <pt x="423" y="307" on="1"/>
        <pt x="410" y="258" on="1"/>
        <pt x="586" y="268" on="1"/>
        <pt x="557" y="191" on="1"/>
        <pt x="393" y="191" on="1"/>
        <pt x="364" y="73" on="1"/>
        <pt x="452" y="51" on="1"/>
        <pt x="440" y="0" on="1"/>
        <pt x="154" y="0" on="1"/>
        <pt x="166" y="51" on="1"/>
        <pt x="250" y="73" on="1"/>
        <pt x="279" y="191" on="1"/>
      </contour>
    </TTGlyph>
    <TTGlyph name="z" xMin="-3" yMin="-82" xMax="493" yMax="507">
      <contour>
        <pt x="-3" y="26" on="1"/>
        <pt x="354" y="416" on="1"/>
        <pt x="309" y="396" on="0"/>
        <pt x="241" y="396" on="1"/>
        <pt x="184" y="396" on="1"/>
        <pt x="138" y="396" on="0"/>
        <pt x="101" y="375" on="0"/>
        <pt x="83" y="337" on="1"/>
        <pt x="40" y="345" on="1"/>
        <pt x="66" y="453" on="0"/>
        <pt x="95" y="507" on="0"/>
        <pt x="132" y="507" on="1"/>
        <pt x="154" y="507" on="0"/>
        <pt x="303" y="500" on="0"/>
        <pt x="336" y="500" on="1"/>
        <pt x="411" y="500" on="0"/>
        <pt x="466" y="507" on="1"/>
        <pt x="493" y="478" on="1"/>
        <pt x="118" y="67" on="1"/>
        <pt x="203" y="83" on="0"/>
        <pt x="284" y="84" on="1"/>
        <pt x="458" y="84" on="0"/>
        <pt x="458" y="-7" on="1"/>
        <pt x="458" y="-42" on="0"/>
        <pt x="413" y="-82" on="0"/>
        <pt x="374" y="-82" on="1"/>
        <pt x="343" y="-81" on="1"/>
        <pt x="343" y="-75" on="1"/>
        <pt x="343" y="-37" on="0"/>
        <pt x="267" y="11" on="0"/>
        <pt x="191" y="11" on="1"/>
        <pt x="124" y="11" on="0"/>
        <pt x="28" y="0" on="1"/>
      </contour>
    </TTGlyph>
    <TTGlyph name="zero" xMin="51" yMin="-7" xMax="609" yMax="708">
      <contour>
        <pt x="51" y="219" on="1"/>
        <pt x="51" y="344" on="0"/>
        <pt x="139" y="566" on="0"/>
        <pt x="310" y="708" on="0"/>
        <pt x="417" y="708" on="1"/>
        <pt x="512" y="708" on="0"/>
        <pt x="609" y="589" on="0"/>
        <pt x="609" y="483" on="1"/>
        <pt x="609" y="352" on="0"/>
        <pt x="521" y="130" on="0"/>
        <pt x="352" y="-7" on="0"/>
        <pt x="244" y="-7" on="1"/>
        <pt x="147" y="-7" on="0"/>
        <pt x="51" y="117" on="0"/>
      </contour>
      <contour>
        <pt x="186" y="202" on="1"/>
        <pt x="186" y="44" on="0"/>
        <pt x="257" y="44" on="1"/>
        <pt x="320" y="44" on="0"/>
        <pt x="424" y="198" on="0"/>
        <pt x="474" y="403" on="0"/>
        <pt x="474" y="499" on="1"/>
        <pt x="474" y="655" on="0"/>
        <pt x="403" y="655" on="1"/>
        <pt x="339" y="655" on="0"/>
        <pt x="237" y="511" on="0"/>
        <pt x="186" y="307" on="0"/>
      </contour>
    </TTGlyph>
</ttFont>
